<?xml version="1.0" standalone="no"?>
<!DOCTYPE svg PUBLIC "-//W3C//DTD SVG 1.1//EN" "http://www.w3.org/Graphics/SVG/1.1/DTD/svg11.dtd" >
<svg>
<metadata>
Created by FontForge 20090914 at Thu Oct 25 20:29:27 2012
 By www-data
Copyright (c) West Wind Fonts, 2001. 
</metadata>
<defs>
<font id="LittleDays" horiz-adv-x="500" >
  <font-face 
    font-family="Little Days"
    font-weight="400"
    font-stretch="normal"
    units-per-em="1000"
    panose-1="2 0 6 7 2 0 0 2 0 4"
    ascent="800"
    descent="-200"
    x-height="288.997"
    cap-height="670.004"
    bbox="-87 -441 1203 780"
    underline-thickness="50"
    underline-position="-75"
    unicode-range="U+0020-U+203A"
  />
<missing-glyph 
 />
    <glyph glyph-name=".notdef" 
 />
    <glyph glyph-name="space" unicode=" " 
 />
    <glyph glyph-name="space" unicode="&#xa0;" 
 />
    <glyph glyph-name="exclam" unicode="!" horiz-adv-x="243" 
d="M138 649c-12.667 -40 -22 -80.667 -28 -122s-10.167 -83 -12.5 -125s-3 -84 -2 -126s2.16699 -83.667 3.5 -125c0 -5.33301 1.66699 -9.16602 5 -11.499s6.83301 -3.33301 10.5 -3s7 1.83301 10 4.5s4.5 6.66699 4.5 12c-2 40.667 -3.33301 81.5 -4 122.5
s0.166016 82 2.49902 123s6.5 81.833 12.5 122.5s14.667 80.667 26 120c1.33301 4.66699 0.833008 8.66699 -1.5 12s-5.33301 5.5 -9 6.5s-7.16699 0.666992 -10.5 -1s-5.66602 -4.83398 -6.99902 -9.50098zM81 28c0 -9.33301 3.16699 -16.833 9.5 -22.5
s14.166 -8.5 23.499 -8.5s17.166 2.83301 23.499 8.5s9.5 13.167 9.5 22.5s-3.16699 17 -9.5 23s-14.166 9 -23.499 9s-17.166 -3 -23.499 -9s-9.5 -13.667 -9.5 -23z" />
    <glyph glyph-name="quotedbl" unicode="&#x22;" horiz-adv-x="287" 
d="M196 502c0 -10.667 -5.33301 -16 -16 -16s-16 5.33301 -16 16v208c0 10.667 5.33301 16 16 16s16 -5.33301 16 -16v-208zM77 502c0 -10.667 -5.33301 -16 -16 -16s-16 5.33301 -16 16v208c0 10.667 5.33301 16 16 16s16 -5.33301 16 -16v-208z" />
    <glyph glyph-name="numbersign" unicode="#" 
d="M186 548l-46 -361c-0.666992 -4 0.166016 -7.16699 2.49902 -9.5s5 -3.83301 8 -4.5s5.83301 -0.166992 8.5 1.5s4.33398 4.5 5.00098 8.5l46 361c0.666992 4 -0.166016 7.16699 -2.49902 9.5s-5 3.83301 -8 4.5s-5.83301 0.166992 -8.5 -1.5
s-4.33398 -4.5 -5.00098 -8.5zM334 547l-48 -378c-0.666992 -4 0.166016 -7.16699 2.49902 -9.5s5 -3.83301 8 -4.5s5.83301 -0.166992 8.5 1.5s4.33398 4.5 5.00098 8.5l48 378c0.666992 4 -0.166016 7.16699 -2.49902 9.5s-5 3.83301 -8 4.5s-5.83301 0.166992 -8.5 -1.5
s-4.33398 -4.5 -5.00098 -8.5zM116 431l300 -32c4 -0.666992 7.16699 0.166016 9.5 2.49902s3.5 4.83301 3.5 7.5c0 3.33301 -0.833008 6.33301 -2.5 9s-4.5 4.33398 -8.5 5.00098l-300 32c-4 0.666992 -7.16699 -0.166016 -9.5 -2.49902s-3.5 -5.16602 -3.5 -8.49902
c0 -2.66699 0.833008 -5.33398 2.5 -8.00098s4.5 -4.33398 8.5 -5.00098zM95 303l302 -35c4 -0.666992 7.16699 0.166016 9.5 2.49902s3.5 4.83301 3.5 7.5c0 3.33301 -0.833008 6.33301 -2.5 9s-4.5 4.33398 -8.5 5.00098l-302 35
c-4 0.666992 -7.16699 -0.166016 -9.5 -2.49902s-3.5 -5.16602 -3.5 -8.49902c0 -2.66699 0.833008 -5.33398 2.5 -8.00098s4.5 -4.33398 8.5 -5.00098z" />
    <glyph glyph-name="dollar" unicode="$" 
d="M263 659l-3.99805 -41.0039c-18.667 0 -37 -3 -55 -9s-34.167 -14.667 -48.5 -26s-26 -25.166 -35 -41.499s-13.833 -34.833 -14.5 -55.5v-5c0 -18 3.66699 -33.833 11 -47.5s17.333 -25.167 30 -34.5s26.834 -17.166 42.501 -23.499s32.167 -11.166 49.5 -14.499
l-18 -222h-4c-13.333 0 -26.166 1.33301 -38.499 4s-23.5 7 -33.5 13s-18.333 14 -25 24s-10.667 22.333 -12 37c0 8 -4 12 -12 12h-2c-4.66699 0 -8 -1.16699 -10 -3.5s-3 -5.16602 -3 -8.49902c0 -2.66699 0.833008 -5.16699 2.5 -7.5s4.16699 -3.83301 7.5 -4.5h-6
c4 -16 10.333 -29.667 19 -41s19 -20.666 31 -27.999s25.167 -12.833 39.5 -16.5s29.166 -5.5 44.499 -5.5l-5 -62c0 -4 1.16699 -7.16699 3.5 -9.5s5.16602 -3.5 8.49902 -3.5s6.16602 1 8.49902 3s3.5 5 3.5 9l5 65c18.667 2 36.667 6.5 54 13.5
s32.666 16.167 45.999 27.5s24 24.5 32 39.5s12 31.833 12 50.5c0 17.333 -3.16699 34 -9.5 50s-15 30.167 -26 42.5s-24 22.5 -39 30.5s-30.833 13 -47.5 15l17 208c22 -3.33301 41.667 -11.833 59 -25.5s28.666 -32.5 33.999 -56.5c2 -6 5.66699 -9 11 -9
c3.33301 0 6.16602 1.16699 8.49902 3.5s3.5 5.16602 3.5 8.49902c0 2 -0.333008 3.66699 -1 5c-6.66699 30 -20.5 52.833 -41.5 68.5s-44.833 25.167 -71.5 28.5l3 42c0 4 -1.16699 7.16699 -3.5 9.5s-5.16602 3.5 -8.49902 3.5s-6.16602 -1 -8.49902 -3s-3.5 -5 -3.5 -9z
M137.002 503.996c2 14.667 6.83301 27.499 14.5 38.499s17 20.333 28 28s23.167 13.5 36.5 17.5s27 6 41 6l-16 -208c-12 1.33301 -24.5 4.33301 -37.5 9s-25 10.834 -36 18.501s-20 16.5 -27 26.5s-10.5 21.333 -10.5 34c0 10 2.33301 20 7 30zM290.002 354.995
c23.333 -7.33301 41 -21.5 53 -42.5s18 -42.833 18 -65.5c0 -60.667 -38.667 -96 -116 -106l18 216c4.66699 -0.666992 9.16699 -1.16699 13.5 -1.5s8.83301 -0.5 13.5 -0.5zM85.002 204.995c-0.666992 0.666992 -1 2 -1 4v-4h1z" />
    <glyph glyph-name="percent" unicode="%" 
d="M397 584l-270.999 -448c-1.33301 -1.33301 -2 -3.66602 -2 -6.99902c0 -7.33301 3.66699 -11 11 -11c4 0 7.66699 2 11 6l271 448c1.33301 1.33301 2 3.66602 2 6.99902c0 7.33301 -3.66699 11 -11 11c-4.66699 0 -8.33398 -2 -11.001 -6zM224.001 588
c-13.333 12.667 -30.334 19 -51.001 19c-13.333 0 -26.333 -3.16699 -39 -9.5s-22.667 -15.833 -30 -28.5c-12 -9.33301 -20.667 -19.666 -26 -30.999s-8 -23 -8 -35c0 -14 3 -27.833 9 -41.5s14 -26 24 -37s21.333 -19.833 34 -26.5s26 -10 40 -10c12 0 23.833 3 35.5 9
s22 13.833 31 23.5s16.333 20.667 22 33s8.5 25.166 8.5 38.499c0 18 -4 35.667 -12 53s-19.667 31.333 -35 42c-3.33301 2 -6.33301 3 -9 3c-3.33301 0 -6.16602 -1.16699 -8.49902 -3.5s-3.5 -5.16602 -3.5 -8.49902c0 -2.66699 1.66699 -5.66699 5 -9
c13.333 -8 23 -18.5 29 -31.5s9 -26.833 9 -41.5c0 -10.667 -1.66699 -21 -5 -31s-8.16602 -19 -14.499 -27s-14.166 -14.333 -23.499 -19s-20 -7 -32 -7h-2c-10.667 0 -20.667 2.66699 -30 8s-17.333 12.333 -24 21s-12 18.167 -16 28.5s-6 20.833 -6 31.5
c0 8.66699 2.16699 17.834 6.5 27.501s10 18.5 17 26.5s15.167 14.667 24.5 20s18.666 8 27.999 8c15.333 0 28 -5 38 -15c1.33301 -1.33301 3.66602 -2 6.99902 -2s6.33301 1.16699 9 3.5s4 5.16602 4 8.49902s-2 6.66602 -6 9.99902zM423 299
c-13.333 12.667 -30.334 19 -51.001 19c-13.333 0 -26.333 -3.16699 -39 -9.5s-22.667 -15.833 -30 -28.5c-12 -9.33301 -20.667 -19.666 -26 -30.999s-8 -23 -8 -35c0 -14 3 -27.833 9 -41.5s14 -26 24 -37s21.333 -19.833 34 -26.5s26 -10 40 -10c12 0 23.833 3 35.5 9
s22 13.833 31 23.5s16.333 20.667 22 33s8.5 25.166 8.5 38.499c0 18 -4 35.667 -12 53s-19.667 31.333 -35 42c-3.33301 2 -6.33301 3 -9 3c-3.33301 0 -6.16602 -1.16699 -8.49902 -3.5s-3.5 -5.16602 -3.5 -8.49902c0 -2.66699 1.66699 -5.66699 5 -9
c13.333 -8 23 -18.5 29 -31.5s9 -26.833 9 -41.5c0 -10.667 -1.66699 -21 -5 -31s-8.16602 -19 -14.499 -27s-14.166 -14.333 -23.499 -19s-20 -7 -32 -7h-2c-10.667 0 -20.667 2.66699 -30 8s-17.333 12.333 -24 21s-12 18.167 -16 28.5s-6 20.833 -6 31.5
c0 8.66699 2.16699 17.834 6.5 27.501s10 18.5 17 26.5s15.167 14.667 24.5 20s18.666 8 27.999 8c15.333 0 28 -5 38 -15c1.33301 -1.33301 3.66602 -2 6.99902 -2s6.33301 1.16699 9 3.5s4 5.16602 4 8.49902s-2 6.66602 -6 9.99902z" />
    <glyph glyph-name="ampersand" unicode="&#x26;" horiz-adv-x="427" 
d="M154 434c-3.33301 -2 -6.16992 -4.16406 -8.50293 -6.49707s-5.16602 -4.5 -8.49902 -6.5c-18.667 -14 -37.167 -29.167 -55.5 -45.5s-34.666 -33.833 -48.999 -52.5s-26 -39.167 -35 -61.5s-13.5 -46.5 -13.5 -72.5c0 -25.333 5.5 -49 16.5 -71s25.667 -41.5 44 -58.5
s39.166 -30.333 62.499 -40s47.666 -14.5 72.999 -14.5c32 0 63.167 7.66699 93.5 23s56.166 34.666 77.499 57.999c19.333 -18.667 40.166 -34.334 62.499 -47.001s47.5 -19.667 75.5 -21c4.66699 0 8.16699 1.5 10.5 4.5s3.5 6.16699 3.5 9.5s-1.16699 6.5 -3.5 9.5
s-5.83301 4.5 -10.5 4.5c-24.667 5.33301 -46.667 13.333 -66 24s-37.333 23.667 -54 39c29.333 39.333 48 84.333 56 135v4c0 4.66699 -1.5 8.16699 -4.5 10.5s-6.16699 3.5 -9.5 3.5c-7.33301 0 -12 -4 -14 -12c-1.33301 -22 -6.16602 -43.333 -14.499 -64
s-19.166 -39.667 -32.499 -57c-18 20.667 -34.667 43.334 -50 68.001s-29.5 50.167 -42.5 76.5s-25.167 52.666 -36.5 78.999l-32 74.5c14.667 11.333 28.834 23.166 42.501 35.499s25.667 25.5 36 39.5s18.5 29 24.5 45s9 34 9 54c-4.66699 34 -16 60 -34 78
s-37.667 27 -59 27c-16 0 -29.167 -5.33301 -39.5 -16s-18.666 -23.667 -24.999 -39s-10.666 -31.333 -12.999 -48s-3.5 -31 -3.5 -43c0 -21.333 2.5 -42.333 7.5 -63s11.5 -41.667 19.5 -63zM266.996 203.003l29.5039 -48.5c10.333 -16.333 22.166 -31.833 35.499 -46.5
c-21.333 -22 -45.5 -39.667 -72.5 -53s-55.167 -20 -84.5 -20c-21.333 0 -41.833 4 -61.5 12s-36.834 19 -51.501 33s-26.334 30.5 -35.001 49.5s-13 39.5 -13 61.5c0 22.667 4.66699 44.167 14 64.5s21.166 39.5 35.499 57.5s30.333 34.833 48 50.5l52.5 44.5
c12.667 -36 28.5 -71.167 47.5 -105.5zM190 673.003l0.000976562 1.00098c3.33301 1.33301 6.33301 2.33301 9 3s5.66699 1 9 1c9.33301 0 18 -2.5 26 -7.5s15 -11.5 21 -19.5s10.833 -17 14.5 -27s5.5 -20 5.5 -30c0 -4 -0.333008 -8.16699 -1 -12.5
s-1.66699 -8.16602 -3 -11.499c-10 -24.667 -23.333 -46.334 -40 -65.001s-34.667 -36 -54 -52c-6.66699 17.333 -12.167 35.5 -16.5 54.5s-6.5 38.167 -6.5 57.5s2.66699 38.166 8 56.499s14.666 35.5 27.999 51.5z" />
    <glyph glyph-name="quotesingle" unicode="'" horiz-adv-x="130" 
d="M77 502c0 -10.667 -5.33301 -16 -16 -16s-16 5.33301 -16 16v208c0 10.667 5.33301 16 16 16s16 -5.33301 16 -16v-208z" />
    <glyph glyph-name="parenleft" unicode="(" horiz-adv-x="196" 
d="M200 610c-46 -32.667 -81.334 -79 -106.001 -139c-22.667 -53.333 -34 -113.333 -34 -180c0 -98 23 -184 69 -258c2 -3.33301 3 -6.33301 3 -9c0 -10.667 -5.33301 -16 -16 -16c-5.33301 0 -9.66602 2.66699 -12.999 8c-50 78.667 -75 170.667 -75 276
c0 70.667 12.333 135 37 193c13.333 32 29.5 60.5 48.5 85.5s41.167 46.5 66.5 64.5v1c2 2 5.33301 3 10 3c10.667 0 16 -5.66699 16 -17c0 -5.33301 -2 -9.33301 -6 -12z" />
    <glyph glyph-name="parenright" unicode=")" horiz-adv-x="238" 
d="M32 30c67.333 74 101.001 172.334 101.001 295.001c0 113.333 -28.667 216.333 -86 309c-2 2.66699 -3 5.66699 -3 9c0 10.667 5.66699 16 17 16c5.33301 0 9.66602 -2.66699 12.999 -8c60.667 -96.667 91 -205.334 91 -326.001
c0 -130.667 -36.333 -236.334 -109 -317.001h-1c-3.33301 -4 -7 -6 -11 -6c-10.667 0 -16 5.66699 -16 17c0 2.66699 1.66699 6.33398 5 11.001h-1z" />
    <glyph glyph-name="asterisk" unicode="*" 
d="M247 606c-3.33301 0 -6.16992 -1.16602 -8.50293 -3.49902s-3.5 -5.5 -3.5 -9.5l1 -117l-107 37c-1.33301 0.666992 -3 1 -5 1c-3.33301 0 -6.16602 -1.16699 -8.49902 -3.5s-3.5 -5.16602 -3.5 -8.49902c0 -5.33301 3 -9 9 -11l113 -39l-81 -109
c-2 -2 -3 -4.33301 -3 -7c0 -8 4.33301 -12 13 -12c4 0 7.33301 1.66699 10 5l78 104l70 -111c2.66699 -4 6.33398 -6 11.001 -6c7.33301 0 11 3.66699 11 11c0 3.33301 -0.666992 5.66602 -2 6.99902l-72 114l107 50c4.66699 2 7 5.66699 7 11
c0 3.33301 -1 6.16602 -3 8.49902s-4.66699 3.5 -8 3.5c-2.66699 0 -4.66699 -0.333008 -6 -1l-105 -49l-2 122c0 4 -1.16699 7.16699 -3.5 9.5s-5.16602 3.5 -8.49902 3.5z" />
    <glyph glyph-name="comma" unicode="," horiz-adv-x="222" 
d="M77 -51c-11.333 0 -17.001 5.66699 -17.001 17c0 1.33301 3.33301 7.33301 10 18c3.33301 5.33301 5.83301 10 7.5 14s2.83398 6.66699 3.50098 8l-1 3c-20 6.66699 -30 18.667 -30 36c0 20.667 10.333 31 31 31c9.33301 0 18.666 -3.83301 27.999 -11.5
s14 -16.167 14 -25.5c0 -11.333 -5 -28.333 -15 -51c-11.333 -26 -21.666 -39 -30.999 -39z" />
    <glyph glyph-name="hyphen" unicode="-" horiz-adv-x="416" 
d="M75 300h265c4 0 7.16699 1.16699 9.5 3.5s3.5 4.83301 3.5 7.5c0 3.33301 -1.16699 6.33301 -3.5 9s-5.5 4 -9.5 4h-265c-4 0 -7.16699 -1.33301 -9.5 -4s-3.5 -5.66699 -3.5 -9c0 -2.66699 1.16699 -5.16699 3.5 -7.5s5.5 -3.5 9.5 -3.5z" />
    <glyph glyph-name="hyphen" unicode="&#xad;" horiz-adv-x="416" 
d="M75 300h265c4 0 7.16699 1.16699 9.5 3.5s3.5 4.83301 3.5 7.5c0 3.33301 -1.16699 6.33301 -3.5 9s-5.5 4 -9.5 4h-265c-4 0 -7.16699 -1.33301 -9.5 -4s-3.5 -5.66699 -3.5 -9c0 -2.66699 1.16699 -5.16699 3.5 -7.5s5.5 -3.5 9.5 -3.5z" />
    <glyph glyph-name="period" unicode="." horiz-adv-x="241" 
d="M40 28c0 9.33301 3.16699 17 9.5 23s14.166 9 23.499 9s17.166 -3 23.499 -9s9.5 -13.667 9.5 -23s-3.16699 -16.833 -9.5 -22.5s-14.166 -8.5 -23.499 -8.5s-17.166 2.83301 -23.499 8.5s-9.5 13.167 -9.5 22.5z" />
    <glyph glyph-name="slash" unicode="/" horiz-adv-x="487" 
d="M439 641c3.33301 5.33301 7.33301 8 12 8c11.333 0 17 -5.33301 17 -16c0 -4.66699 -1 -8 -3 -10l-408 -617c-4.66699 -4.66699 -9 -7 -13 -7c-10.667 0 -16 5.33301 -16 16c0 2 1 5 3 9z" />
    <glyph glyph-name="zero" unicode="0" horiz-adv-x="617" 
d="M525 344c0 91.333 -23.333 168.333 -70 231c-46 64 -101 96 -165 96s-119 -32 -165 -96c-46 -63.333 -69 -140.333 -69 -231c0 -91.333 23 -168.333 69 -231c46 -64 101 -96 165 -96s119 32 165 96c46.667 62.667 70 139.667 70 231zM549 344
c0 -94.667 -25.333 -177.332 -76 -247.999c-48.667 -68.667 -109.667 -103 -183 -103s-134.333 34.333 -183 103c-50 70 -75 152.667 -75 248s25 178 75 248c48.667 68.667 109.667 103 183 103s134.333 -34.333 183 -103c50.667 -70.667 76 -153.334 76 -248.001z" />
    <glyph glyph-name="one" unicode="1" horiz-adv-x="429" 
d="M203 28l4.00293 3.99805v576l-3 4l-5 2l-4 -2c-2.66699 -3.33301 -5 -6.5 -7 -9.5s-4 -6.16699 -6 -9.5l-28 -40.5c-8.66699 -12.333 -18.334 -23.833 -29.001 -34.5s-22.834 -20.167 -36.501 -28.5s-29.834 -15.833 -48.501 -22.5h-1c-2 -0.666992 -3.66699 -1 -5 -1
c-6 0 -9 4.33301 -9 13c0 6.66699 3.33301 10.334 10 11.001h1c20 10.667 37.5 22.334 52.5 35.001s29 27 42 43s25.833 33.833 38.5 53.5l41 66.5l1 1c2 6 5.66699 9 11 9c8 0 12 -4.33301 12 -13v-3c-0.666992 -10 -1 -21 -1 -33v-40v-577l4 -4h153
c6.66699 0 10 -4 10 -12c0 -6.66699 -3.66699 -10.667 -11 -12h-331c-6.66699 0 -10 4 -10 12c0 6.66699 4 10.667 12 12h143z" />
    <glyph glyph-name="two" unicode="2" horiz-adv-x="611" 
d="M575 112c0 0.666992 0.333008 1.33301 1 2zM155 422.999c-56.667 36 -85.0029 74.665 -85.0029 115.998c0 46.667 30.333 84.334 91 113.001c48.667 24 96.334 36 143.001 36c42.667 0 78.334 -10.333 107.001 -31c31.333 -23.333 47 -56.666 47 -99.999
c0 -126 -101 -289 -303 -489l-1 -4l1 -3l5 -3c18 4 36 6 54 6c23.333 0 60 -7 110 -21c50 -13.333 88.333 -20 115 -20c48.667 0 86.667 31.667 114 95c2 5.33301 5.33301 8 10 8c8 0 12 -4 12 -12v-2c-33.333 -75.333 -78.666 -113 -135.999 -113
c-24 0 -61 6.66699 -111 20c-49.333 14 -87.333 21 -114 21c-28 0 -55.167 -5.33301 -81.5 -16s-51.833 -27.667 -76.5 -51l-3 -2l-2 -3v1c-2 -2 -4.66699 -3 -8 -3c-8 0 -12 4 -12 12c0 3.33301 4.33301 9.33301 13 18c260 240 390 427 390 561
c0 71.333 -43.333 107 -130 107c-44.667 0 -89 -10.667 -133 -32c-51.333 -26 -77 -57 -77 -93c0 -33.333 24.667 -65 74 -95c4 -2 6 -5.33301 6 -10c0 -8.66699 -4 -13 -12 -13c-2 0 -4.33301 0.666992 -7 2z" />
    <glyph glyph-name="three" unicode="3" horiz-adv-x="682" 
d="M585 696c7.33301 0 10.998 -1.66797 10.998 -5.00098c0 -11.333 -23 -39 -69 -83l-63.5 -55l-88.5 -79l-1 -4l1 -3l5 -3c18.667 4 37 6 55 6c48.667 0 90.667 -14.667 126 -44c37.333 -31.333 56 -71.333 56 -120v-8c0 -41.333 -8.33301 -80.5 -25 -117.5
s-39.167 -69.833 -67.5 -98.5s-61 -51.334 -98 -68.001s-75.5 -25 -115.5 -25h-3c-35.333 0 -68.333 5.16699 -99 15.5s-57.5 24.5 -80.5 42.5s-41.167 39 -54.5 63s-20 49.333 -20 76c0 53.333 20 94 60 122l2 3v-1c0.666992 0.666992 2.33398 1 5.00098 1
c8 0 12 -4.33301 12 -13c0 -2 -3 -6 -9 -12c-30.667 -22.667 -46 -56 -46 -100c0 -22 6.33301 -43.5 19 -64.5s29.5 -39.5 50.5 -55.5s45.333 -28.833 73 -38.5s56.834 -14.5 87.501 -14.5h3c38 0 74 7.83301 108 23.5s63.833 36.834 89.5 63.501s46.167 57.334 61.5 92.001
s23 71 23 109v5c0 41.333 -15.667 75 -47 101c-30 26 -67 39 -111 39c-36 0 -74 -8.66699 -114 -26c-4 -2 -6.66699 -3 -8 -3c-6.66699 0 -10 3.33301 -10 10c0 2 0.666992 4.33301 2 7c30 34.667 69.333 73 118 115c28.667 24 53 45.167 73 63.5s35.667 33.5 47 45.5l1 4
l-1 6l-4 3h-363c-6.66699 0 -10 4.33301 -10 13c0 6.66699 3.66699 10.667 11 12h408z" />
    <glyph glyph-name="four" unicode="4" horiz-adv-x="639" 
d="M357 232l-2.00098 2.00293l-2 1c-8 1.33301 -21.5 4.66602 -40.5 9.99902l-74.5 22c-47.333 14 -87.333 21 -120 21c-24.667 0 -48 -3.66699 -70 -11c-4 -1.33301 -6.33301 -2 -7 -2c-6.66699 0 -10 3 -10 9c0 3.33301 0.333008 5.66602 1 6.99902l160 379
c2.66699 6 6 9 10 9c8.66699 0 13 -4 13 -12c0 -0.666992 -0.333008 -1.66699 -1 -3v-1c0 0.666992 1 1 3 1l-3 -2h-1l-144 -345l1 -4l2 -3l4 -2c12.667 2.66699 26.667 4 42 4c30.667 0 70 -7.33301 118 -22c30 -9.33301 54.833 -16.5 74.5 -21.5
s34.167 -8.16699 43.5 -9.5l4 1l2 2l1 3v424c0.666992 6.66699 4.66699 10 12 10c8 0 12 -3.33301 12 -10v-428l1 -3l2 -2l3 -1h11c62.667 0 117.334 31.333 164.001 94c2 2.66699 5 4 9 4c8.66699 0 13 -4 13 -12c0 -2.66699 -1 -5.33398 -3 -8.00098
c-52 -68 -113 -102 -183 -102h-14l-3 -1l-2 -2l-1 -3v-232c-0.666992 -6.66699 -4.66699 -10 -12 -10c-8 0 -12 3.66699 -12 11v235z" />
    <glyph glyph-name="five" unicode="5" horiz-adv-x="580" 
d="M119 676l-2.99609 -0.99707l-2 -2l-1 -2l-12 -93.5l-16 -128.5c-0.666992 -5.33301 -1.33398 -10.333 -2.00098 -15s-1.33398 -9.66699 -2.00098 -15c-0.666992 -2.66699 -1 -5.66699 -1 -9c0 -2.66699 -0.333008 -5.33398 -1 -8.00098l2 -4l3 -2h4
c80.667 47.333 158 71 232 71c60 0 106.833 -17.833 140.5 -53.5s50.5 -83.167 50.5 -142.5c0 -82.667 -27 -151 -81 -205s-122.333 -81 -205 -81c-44 0 -85.667 11.333 -125 34c-45.333 27.333 -68 64 -68 110c0 21.333 10 44 30 68c19.333 23.333 39.333 35 60 35
c7.33301 0 11 -4.33301 11 -13c0 -4 -3 -7.33301 -9 -10c-45.333 -15.333 -68 -42 -68 -80c0 -35.333 19 -65 57 -89c32.667 -20.667 70 -31 112 -31c75.333 0 137.666 24.667 186.999 74c50 50 75 112.667 75 188c0 53.333 -14.667 95.333 -44 126s-70.333 46 -123 46
c-80.667 0 -164 -29 -250 -87c-3.33301 -2 -6.66602 -3 -9.99902 -3c-6 0 -9 4 -9 12v3l2 16.5c0.666992 5.66699 1.66699 12.167 3 19.5c1.33301 9.33301 2.66602 19.833 3.99902 31.5l4 36.5c0 2 0.166992 3.83301 0.5 5.5s0.5 3.5 0.5 5.5c2 14.667 4 30.667 6 48
c1.33301 5.33301 2.16602 10.666 2.49902 15.999s0.833008 10.666 1.5 15.999c4 28 7.33301 52.333 10 73s4.66699 38.667 6 54c0.666992 6.66699 4.66699 10 12 10h400c6.66699 0 10 -4 10 -12c0 -7.33301 -4 -11.333 -12 -12h-382z" />
    <glyph glyph-name="six" unicode="6" horiz-adv-x="562" 
d="M351 666c-47.333 -32.667 -88.168 -64.335 -122.501 -95.002s-62.166 -61 -83.499 -91c-30 -38 -52.167 -77.667 -66.5 -119s-21.5 -84.666 -21.5 -129.999c0 -33.333 4.83301 -63.5 14.5 -90.5s23.667 -50.167 42 -69.5s40.666 -34.333 66.999 -45s56.5 -16 90.5 -16
c58.667 0 108.667 21.333 150 64c41.333 44 62 95.667 62 155c0 38 -10.5 68.167 -31.5 90.5s-50.833 33.5 -89.5 33.5c-25.333 0 -49.166 -3.83301 -71.499 -11.5s-43.166 -19.167 -62.499 -34.5s-35.5 -32.833 -48.5 -52.5s-22.5 -42.167 -28.5 -67.5c-2 -6 -6 -9 -12 -9
c-8.66699 0 -13 3 -13 9c0 2 0.333008 4 1 6c7.33301 27.333 18.166 52 32.499 74s32.166 41.333 53.499 58c44 34.667 93.667 52 149 52c46 0 81.833 -13.5 107.5 -40.5s38.5 -62.833 38.5 -107.5c0 -68 -23 -125 -69 -171c-46 -48 -102 -72 -168 -72
c-74 0 -132.667 22.333 -176 67c-42 46 -63 105.333 -63 178c0 95.333 31 184 93 266c23.333 30 52.333 60.833 87 92.5s75.667 63.834 123 96.501c2.66699 1.33301 5.33398 2 8.00098 2c8.66699 0 13 -4.33301 13 -13c0 -2 -2 -5 -6 -9h1z" />
    <glyph glyph-name="seven" unicode="7" horiz-adv-x="591" 
d="M34 555c40 79.333 91.332 119 153.999 119c11.333 0 26.166 -1.83301 44.499 -5.5s39.166 -8.83398 62.499 -15.501c48 -14 85.333 -21 112 -21c44.667 0 87.334 14.333 128.001 43l4 2c1.33301 0.666992 3 1 5 1c7.33301 0 11 -3.66699 11 -11
c0 -3.33301 -1 -6.33301 -3 -9c-60.667 -93.333 -117.5 -195 -170.5 -305s-102.833 -229.667 -149.5 -359c-2 -5.33301 -5.33301 -8 -10 -8c-8.66699 0 -13 3.66699 -13 11c0 1.33301 0.333008 2.66602 1 3.99902v1c44 118.667 89.5 228.834 136.5 330.501
s96.5 195.5 148.5 281.5v5l-3 3l-3 1c-28 -10 -55.333 -15 -82 -15c-24.667 0 -61 7 -109 21c-23.333 6.66699 -44.166 11.834 -62.499 15.501s-34.166 5.5 -47.499 5.5c-52 0 -96.333 -35 -133 -105c-2.66699 -4.66699 -6 -7 -10 -7c-8.66699 0 -13 3.66699 -13 11
c0 0.666992 0.666992 3 2 7v-1z" />
    <glyph glyph-name="eight" unicode="8" horiz-adv-x="554" 
d="M436 531c-4 30.667 -22.001 57.6689 -54.001 81.002c-30 21.333 -63.667 32 -101 32c-17.333 0 -34 -3.66699 -50 -11s-31.667 -19 -47 -35c-26.667 -26.667 -40 -54.334 -40 -83.001c0 -2 0.166992 -4 0.5 -6s0.5 -4 0.5 -6c2 -16.667 7.66699 -31.334 17 -44.001
s22 -24.667 38 -36c30 -18 63 -27 99 -27c36.667 0 69.334 13.667 98.001 41l1 3v-1c26 24 39 50.667 39 80c0 2 -0.166992 4 -0.5 6s-0.5 4 -0.5 6zM502.999 206.002c-6.66699 51.333 -38.333 92.667 -95 124c-45.333 26.667 -99 40 -161 40c-58.667 0 -103 -19 -133 -57
c-26.667 -34 -40 -72 -40 -114c0 -4.66699 0.166992 -9.16699 0.5 -13.5s0.833008 -8.83301 1.5 -13.5c13.333 -106.667 81.333 -160 204 -160c59.333 0 111.333 18.333 156 55c45.333 35.333 68 76 68 122v8c0 2.66699 -0.333008 5.66699 -1 9zM526 206.003
c0.666992 -3.33301 1.00195 -7.00293 1.00195 -11.0029v-10c0 -53.333 -24 -98.666 -72 -135.999c-52 -40.667 -109.333 -61 -172 -61c-63.333 0 -115.333 14.667 -156 44c-44 32.667 -69.333 79.334 -76 140.001c-0.666992 5.33301 -1.16699 10.333 -1.5 15
s-0.5 9.33398 -0.5 14.001c0 41.333 11 78.666 33 111.999c13.333 19.333 29.5 35.5 48.5 48.5s41.167 22.167 66.5 27.5l1 3l1 4l-3 3c-44.667 24.667 -69.667 59.334 -75 104.001c-0.666992 2.66699 -1 5.33398 -1 8.00098v8c0 36 14.333 68.333 43 97
c34 35.333 72.333 53 115 53c21.333 0 41.666 -3.33301 60.999 -10s37.666 -15.667 54.999 -27c40 -26.667 62.333 -60.334 67 -101.001c0 -2 0.166992 -4 0.5 -6s0.5 -4 0.5 -6c0 -28 -9.66699 -54 -29 -78s-43.333 -42.667 -72 -56v-4v-4l3 -4
c98 -32 152 -87.667 162 -167z" />
    <glyph glyph-name="nine" unicode="9" horiz-adv-x="523" 
d="M331 456c-2 -18 -7.00098 -34.666 -15.001 -49.999s-18.333 -28.5 -31 -39.5s-27.167 -19.5 -43.5 -25.5s-33.833 -9 -52.5 -9c-45.333 0 -83.333 18.333 -114 55c-28.667 34.667 -43 74.667 -43 120c0 56 25 102 75 138c44.667 32 95.334 48 152.001 48
c58.667 0 107 -18.333 145 -55c38.667 -36.667 58 -84.667 58 -144c0 -152.667 -96.333 -316.334 -289 -491.001c-4.66699 -3.33301 -7.66699 -5 -9 -5c-8.66699 0 -13 4.33301 -13 13c0 3.33301 1.33301 6 4 8l2 3v-1c187.333 169.333 281 327 281 473
c0 26 -4.5 49.667 -13.5 71s-21.333 39.833 -37 55.5s-34.5 27.667 -56.5 36s-46 12.5 -72 12.5c-52 0 -97.667 -14.333 -137 -43c-44 -32 -66 -71.667 -66 -119c0 -42 12.333 -77.333 37 -106c24 -30 56 -45 96 -45c31.333 0 57.833 9.83301 79.5 29.5s34.5 44.5 38.5 74.5
c0.666992 6.66699 4.66699 10 12 10c8 0 12 -3.66699 12 -11v-3z" />
    <glyph glyph-name="colon" unicode=":" horiz-adv-x="195" 
d="M63 280c0 9.33301 3.16699 16.833 9.5 22.5s14.166 8.5 23.499 8.5s17.166 -2.83301 23.499 -8.5s9.5 -13.167 9.5 -22.5s-3.16699 -17 -9.5 -23s-14.166 -9 -23.499 -9s-17.166 3 -23.499 9s-9.5 13.667 -9.5 23zM60 28c0 9.33301 3.16699 17 9.5 23s14.166 9 23.499 9
s17.166 -3 23.499 -9s9.5 -13.667 9.5 -23s-3.16699 -16.833 -9.5 -22.5s-14.166 -8.5 -23.499 -8.5s-17.166 2.83301 -23.499 8.5s-9.5 13.167 -9.5 22.5z" />
    <glyph glyph-name="semicolon" unicode=";" horiz-adv-x="195" 
d="M63 280c0 9.33301 3.16699 16.833 9.5 22.5s14.166 8.5 23.499 8.5s17.166 -2.83301 23.499 -8.5s9.5 -13.167 9.5 -22.5s-3.16699 -17 -9.5 -23s-14.166 -9 -23.499 -9s-17.166 3 -23.499 9s-9.5 13.667 -9.5 23zM92 -47c-10.667 0 -15.999 5.66797 -15.999 17.001
c0 1.33301 3 7.66602 9 18.999c6.66699 10.667 10.667 17.667 12 21l-1 3c-20 6.66699 -30 18.667 -30 36c0 20.667 10.333 31 31 31c9.33301 0 18.666 -3.83301 27.999 -11.5s14 -16.167 14 -25.5c0 -11.333 -5 -28.333 -15 -51c-11.333 -26 -22 -39 -32 -39z" />
    <glyph glyph-name="semicolon" unicode="&#x37e;" horiz-adv-x="195" 
d="M63 280c0 9.33301 3.16699 16.833 9.5 22.5s14.166 8.5 23.499 8.5s17.166 -2.83301 23.499 -8.5s9.5 -13.167 9.5 -22.5s-3.16699 -17 -9.5 -23s-14.166 -9 -23.499 -9s-17.166 3 -23.499 9s-9.5 13.667 -9.5 23zM92 -47c-10.667 0 -15.999 5.66797 -15.999 17.001
c0 1.33301 3 7.66602 9 18.999c6.66699 10.667 10.667 17.667 12 21l-1 3c-20 6.66699 -30 18.667 -30 36c0 20.667 10.333 31 31 31c9.33301 0 18.666 -3.83301 27.999 -11.5s14 -16.167 14 -25.5c0 -11.333 -5 -28.333 -15 -51c-11.333 -26 -22 -39 -32 -39z" />
    <glyph glyph-name="question" unicode="?" horiz-adv-x="446" 
d="M118 22c0 14 7 21 21 21c14.667 0 22 -7 22 -21c0 -14.667 -7.33301 -22 -22 -22c-14 -0 -21 7.33301 -21 22zM94 436c-44 0 -65.999 20.6699 -65.999 62.0029c0 50 22 91 66 123c40.667 29.333 85.334 44 134.001 44c52.667 0 95.334 -15.667 128.001 -47
c32.667 -30.667 49 -72.667 49 -126c0 -57.333 -24 -98.333 -72 -123l-54 -18c-13.333 -4.66699 -26.5 -9 -39.5 -13s-26.167 -8.33301 -39.5 -13c-44 -16.667 -66 -45 -66 -85v-8c1.33301 -12.667 2.33301 -22.834 3 -30.501s1 -13.167 1 -16.5v-3
c0 -10.667 -5.33301 -16 -16 -16s-16 5.33301 -16 16c0 4 -0.333008 9 -1 15s-1.33398 12.333 -2.00098 19c-0.666992 6 -1.16699 11.667 -1.5 17s-0.5 9.66602 -0.5 12.999c0 14 2.33301 26.667 7 38c14 33.333 44 58 90 74c19.333 6.66699 38.666 13 57.999 19l58 18
c39.333 19.333 59 51.666 59 96.999c0 43.333 -13.167 77.666 -39.5 102.999s-61.5 38 -105.5 38c-43.333 0 -81.333 -12.333 -114 -37c-36 -27.333 -54 -60 -54 -98c0 -20 11.333 -30 34 -30c2.66699 0 5.66699 0.166992 9 0.5s6.66602 0.833008 9.99902 1.5
c1.33301 0 2.33301 0.166992 3 0.5s1.66699 0.5 3 0.5c8.66699 0 13 -5.66699 13 -17c0 -9.33301 -4.5 -14.666 -13.5 -15.999s-17.167 -2 -24.5 -2z" />
    <glyph glyph-name="at" unicode="@" 
d="M329 362c-4 24 -13.668 41.3311 -29.001 51.998s-32.666 16 -51.999 16c-13.333 0 -26.833 -2.5 -40.5 -7.5s-26 -11.833 -37 -20.5s-19.833 -19.167 -26.5 -31.5s-10 -25.833 -10 -40.5c0 -15.333 2.83301 -28.833 8.5 -40.5s13.334 -21.334 23.001 -29.001
s20.334 -13.5 32.001 -17.5s23.5 -6 35.5 -6c13.333 0 26.5 2.33301 39.5 7s24.167 12 33.5 22c3.33301 -7.33301 8.5 -13.5 15.5 -18.5s16.167 -7.83301 27.5 -8.5c28 12 48.167 29.167 60.5 51.5s18.5 46.166 18.5 71.499c0 20.667 -3.66699 41.5 -11 62.5
s-17.833 40 -31.5 57s-29.834 30.667 -48.501 41s-39 15.5 -61 15.5c-10 0 -19.333 -1 -28 -3h-8c-31.333 0 -59.666 -7 -84.999 -21s-46.833 -32.333 -64.5 -55s-31.334 -48.167 -41.001 -76.5s-14.5 -56.833 -14.5 -85.5c0 -24.667 3.83301 -48.667 11.5 -72
s19.834 -44 36.501 -62s37.667 -32.333 63 -43s55.666 -16 90.999 -16c33.333 0 65.666 5.83301 96.999 17.5s59.666 28.834 84.999 51.501c3.33301 3.33301 5 6.33301 5 9c0 3.33301 -1.16699 6.16602 -3.5 8.49902s-5.16602 3.5 -8.49902 3.5s-6.33301 -1 -9 -3
c-20 -21.333 -43.667 -37.333 -71 -48s-55.666 -16 -84.999 -16c-24 0 -47.333 3.5 -70 10.5s-42.834 17.5 -60.501 31.5s-32 31.333 -43 52s-16.833 44.667 -17.5 72v5c0 29.333 5.33301 57 16 83s25.334 48.833 44.001 68.5s40.5 35.334 65.5 47.001
s52.167 17.5 81.5 17.5c20.667 0 39.667 -4 57 -12s32.166 -19 44.499 -33s22 -30 29 -48s10.5 -37 10.5 -57c0 -22 -5.5 -41.833 -16.5 -59.5s-28.5 -30.167 -52.5 -37.5c-7.33301 6.66699 -11.333 14.667 -12 24c2 4.66699 3.5 9.83398 4.5 15.501s1.83301 11.5 2.5 17.5
c0 4 0.166992 8.16699 0.5 12.5s0.5 8.5 0.5 12.5v1v2c0 0.666992 -0.166992 1.33398 -0.5 2.00098s-0.5 1.33398 -0.5 2.00098v1c0 2 -0.333008 3.66699 -1 5zM299.999 304.998c-6 -13.333 -14.4971 -24.168 -25.4971 -32.501s-24.167 -12.5 -39.5 -12.5
c-24 0 -42.333 6.83301 -55 20.5s-19 30.167 -19 49.5s7.16699 36.833 21.5 52.5s34.166 23.5 59.499 23.5c15.333 0 29.666 -4.33301 42.999 -13s20.666 -21.667 21.999 -39v-1c-3.33301 -6 -5.33301 -13.667 -6 -23s-1 -17.666 -1 -24.999z" />
    <glyph glyph-name="A" unicode="A" horiz-adv-x="797" 
d="M658 -4c14.667 0 29.001 3.83398 43.001 11.501s27.167 17.834 39.5 30.501s23.833 27.167 34.5 43.5s20.667 32.833 30 49.5v5c0 2.66699 -1.33301 5.5 -4 8.5s-5.66699 4.5 -9 4.5c-2 0 -4 -0.5 -6 -1.5s-3.33301 -3.16699 -4 -6.5
c-6.66699 -12.667 -14 -25.334 -22 -38.001s-16.5 -24.334 -25.5 -35.001s-18.333 -19.834 -28 -27.501s-19.167 -13.167 -28.5 -16.5c-3.33301 -0.666992 -6.33301 -1.33398 -9 -2.00098s-5 -1 -7 -1c-8 0 -16 1.5 -24 4.5s-15.333 7 -22 12s-12.167 11.167 -16.5 18.5
s-6.5 15 -6.5 23v560c0 2.66699 -0.666992 5.66699 -2 9s-4.66602 5.33301 -9.99902 6c-14.667 2.66699 -28.834 4.33398 -42.501 5.00098s-27.167 1 -40.5 1c-50 0 -96.833 -6.66699 -140.5 -20s-83.834 -31.333 -120.501 -54s-69.167 -49.167 -97.5 -79.5
s-52.5 -62.666 -72.5 -96.999s-35.167 -69.333 -45.5 -105s-15.5 -70.5 -15.5 -104.5c0 -25.333 5.33301 -50 16 -74s25.334 -45.667 44.001 -65s41 -34.833 67 -46.5s54.333 -17.5 85 -17.5h10c24.667 0.666992 53.167 7.5 85.5 20.5s64.5 31.667 96.5 56s62 54 90 89
s50.667 75.167 68 120.5v-206c0 -10 2.66699 -20 8 -30s12.166 -18.667 20.499 -26s17.5 -13.333 27.5 -18s19.667 -7 29 -7h5zM566.001 373.001c-10 -55.333 -28.332 -104.666 -54.999 -147.999s-56.834 -79.833 -90.501 -109.5s-68 -52.5 -103 -68.5
s-65.5 -24.667 -91.5 -26h-7c-26.667 0 -51.5 5.16699 -74.5 15.5s-42.833 23.833 -59.5 40.5s-29.834 35.5 -39.501 56.5s-14.5 42.167 -14.5 63.5c0 32 4.83301 65.167 14.5 99.5s24 67.666 43 99.999s42 63 69 92s57.833 54.5 92.5 76.5s72.834 39.333 114.501 52
s86.5 19 134.5 19c11.333 0 22.5 -0.5 33.5 -1.5s22.833 -2.16699 35.5 -3.5c-0.666992 -64 -1.16699 -113.5 -1.5 -148.5s-0.5 -60.833 -0.5 -77.5v-28v-4z" />
    <glyph glyph-name="B" unicode="B" horiz-adv-x="523" 
d="M273 -6c30 0 58.998 5.16797 86.998 15.501s53 24.5 75 42.5s39.667 39 53 63s20 49.333 20 76c0 40 -8.83301 74.667 -26.5 104s-40.5 52.333 -68.5 69c19.333 19.333 33 41 41 65s12 47.667 12 71c0 20 -4.33301 40 -13 60s-21.334 38.167 -38.001 54.5
s-37.5 29.666 -62.5 39.999s-53.833 15.5 -86.5 15.5c-31.333 0 -59.166 -6.5 -83.499 -19.5s-46.166 -29.167 -65.499 -48.5s-36.166 -40.666 -50.499 -63.999s-26.833 -45.666 -37.5 -66.999v182c0 8.66699 -3.66699 13 -11 13c-8.66699 0 -13 -4.33301 -13 -13l1 -630
c0 -8 4 -12 12 -12c2.66699 0 5.5 1.16699 8.5 3.5s4.5 5.16602 4.5 8.49902l-2 390c8.66699 19.333 19.667 42.333 33 69s29.5 52 48.5 76s41.333 44.333 67 61s55.167 25 88.5 25c30 0 55.833 -4.33301 77.5 -13s39.834 -20 54.501 -34s25.5 -29.5 32.5 -46.5
s10.5 -33.833 10.5 -50.5c0 -20.667 -3.83301 -41.667 -11.5 -63s-20.167 -41.333 -37.5 -60c-18.667 11.333 -38.667 19.166 -60 23.499s-42.666 6.5 -63.999 6.5c-5.33301 0 -11.333 -1.33301 -18 -4s-12.834 -6.16699 -18.501 -10.5s-10.5 -9.5 -14.5 -15.5
s-6 -12.667 -6 -20c0 -9.33301 2.83301 -17.166 8.5 -23.499s12.5 -11.5 20.5 -15.5s16.167 -6.83301 24.5 -8.5s15.5 -2.5 21.5 -2.5c42.667 0 78.334 13 107.001 39c28 -16.667 50 -37.834 66 -63.501s24 -55.5 24 -89.5c0 -23.333 -5.83301 -45.5 -17.5 -66.5
s-27.334 -39.5 -47.001 -55.5s-42.167 -28.667 -67.5 -38s-51.333 -14 -78 -14h-4c-18 0 -35.833 2.33301 -53.5 7s-34.334 11 -50.001 19s-29.834 17 -42.501 27s-23 20.667 -31 32c-1.33301 4 -4.66602 6 -9.99902 6c-2.66699 0 -5 -1 -7 -3
c-2.66699 -2.66699 -4 -6 -4 -10c0 -2.66699 0.666992 -5 2 -7c8.66699 -12 20 -23.833 34 -35.5s29.667 -22 47 -31s35.833 -16.167 55.5 -21.5s39.5 -8 59.5 -8h4zM285.998 331.001c-10 0 -20.8301 2.49902 -32.4971 7.49902s-17.834 11.167 -18.501 18.5
c0 6.66699 4 12.334 12 17.001s18.667 7 32 7s27.666 -1.5 42.999 -4.5s32 -8.83301 50 -17.5c-22.667 -18.667 -51.334 -28 -86.001 -28z" />
    <glyph glyph-name="C" unicode="C" horiz-adv-x="625" 
d="M359 -14c60.667 0.666992 113.335 14.0039 158.002 40.0039s83.334 60.333 116.001 103c2 1.33301 3 3.66602 3 6.99902c0 2 -0.5 3.5 -1.5 4.5s-1.83301 2.16699 -2.5 3.5c-1.33301 1.33301 -2.83301 2.16602 -4.5 2.49902s-3.16699 0.5 -4.5 0.5
c-2 0 -3.83301 -0.166992 -5.5 -0.5s-3.16699 -2.16602 -4.5 -5.49902c-29.333 -37.333 -64.833 -68.333 -106.5 -93s-90.834 -37.334 -147.501 -38.001c-41.333 0 -81 7.16699 -119 21.5s-71.333 34.833 -100 61.5s-51.667 58.667 -69 96s-26 78.666 -26 123.999
c0 42 9.16699 82.833 27.5 122.5s42.5 75 72.5 106s64 55.833 102 74.5s76.667 28 116 28c27.333 0 49.833 -2 67.5 -6s32.667 -9.33301 45 -16s22.666 -14.5 30.999 -23.5s16.5 -18.5 24.5 -28.5c0.666992 -2.66699 3.33398 -4 8.00098 -4
c1.33301 0 2.83301 0.166992 4.5 0.5s3.16699 1.16602 4.5 2.49902c0.666992 0.666992 1.5 1.66699 2.5 3s1.5 3 1.5 5c0 1.33301 -0.166992 2.66602 -0.5 3.99902s-0.5 2.33301 -0.5 3c-10 12 -19.833 23.167 -29.5 33.5s-21.334 19.333 -35.001 27
s-30.334 13.834 -50.001 18.501s-44.167 7 -73.5 7c-43.333 0 -85.5 -10.167 -126.5 -30.5s-77.5 -47 -109.5 -80s-57.667 -70.667 -77 -113s-29 -85.833 -29 -130.5c0 -50 9.16699 -95.167 27.5 -135.5s43 -75 74 -104s66.667 -51.333 107 -67s82.5 -23.5 126.5 -23.5h3z
" />
    <glyph glyph-name="D" unicode="D" horiz-adv-x="664" 
d="M123 -10c18 0 34.498 6.00195 49.498 18.002s28.5 28 40.5 48l6 -2l16 -8c5.33301 -2.66699 10.666 -5.66699 15.999 -9c20 -11.333 40.667 -21.5 62 -30.5s45.333 -13.5 72 -13.5c38.667 0 73.834 10.667 105.501 32s58.667 48.5 81 81.5s39.5 69.167 51.5 108.5
s18 77.333 18 114c-0.666992 42.667 -9.16699 84.5 -25.5 125.5s-38.833 77.5 -67.5 109.5s-62.334 57.833 -101.001 77.5s-80.334 29.5 -125.001 29.5c-37.333 0 -72.333 -7 -105 -21s-62.5 -32 -89.5 -54s-50.833 -47 -71.5 -75s-37.334 -56 -50.001 -84
c0 -8.66699 2.33301 -14 7 -16c4.66699 0 8.16699 0.666992 10.5 2s4.83301 3.33301 7.5 6c12.667 26 28.5 52 47.5 78s40.833 49.333 65.5 70s52 37.5 82 50.5s62 19.5 96 19.5c40.667 0 78.834 -9 114.501 -27s66.667 -42 93 -72s47.166 -64 62.499 -102s23 -77 23 -117
c0 -36 -5.66699 -72.333 -17 -109s-27.166 -70 -47.499 -100s-44.666 -54.5 -72.999 -73.5s-59.166 -28.833 -92.499 -29.5c-18.667 0 -37.5 4 -56.5 12s-37.833 17 -56.5 27l-23.5 11.5l-23.5 11.5c10.667 22.667 18.834 47 24.501 73s8.5 50.667 8.5 74
c0 19.333 -1 38.5 -3 57.5l-6 56.5c-2 17.333 -3.83301 34.5 -5.5 51.5s-2.5 33.167 -2.5 48.5c0.666992 25.333 5 51 13 77s19.667 44.667 35 56c3.33301 0.666992 5.33301 2 6 4s1 4 1 6s-0.333008 4 -1 6c-3.33301 4.66699 -7.33301 7 -12 7c-2.66699 0 -5 -1 -7 -3
c-10.667 -6.66699 -19.667 -15.834 -27 -27.501s-13.333 -24.667 -18 -39s-8.16699 -29 -10.5 -44s-3.83301 -29.167 -4.5 -42.5c0 -15.333 1 -31.833 3 -49.5l6 -53.5c2 -18.667 3.83301 -37.5 5.5 -56.5s2.5 -37.167 2.5 -54.5c0 -20 -2.16699 -42.333 -6.5 -67
s-12.5 -48 -24.5 -70c-27.333 13.333 -51.666 20 -72.999 20c-8 -0.666992 -16.5 -2.66699 -25.5 -6s-17.333 -8 -25 -14s-14 -12.833 -19 -20.5s-7.5 -15.834 -7.5 -24.501c0 -12 2.5 -21.5 7.5 -28.5s11.333 -12.333 19 -16s15.5 -6.16699 23.5 -7.5s15 -2 21 -2z
M122.998 16.002c-13.333 0 -24.5 2 -33.5 6s-13.5 11 -13.5 21s5.83301 19.167 17.5 27.5s23.5 12.5 35.5 12.5c9.33301 0 19.166 -1.16699 29.499 -3.5s21.166 -6.5 32.499 -12.5c-9.33301 -18 -19.666 -31 -30.999 -39s-23.666 -12 -36.999 -12z" />
    <glyph glyph-name="E" unicode="E" horiz-adv-x="601" 
d="M353 -11c24.667 0 49.6699 3.6709 75.0029 11.0039s49.5 17.166 72.5 29.499s44.167 26.833 63.5 43.5s35.333 34.667 48 54c0 1.33301 0.166992 2.66602 0.5 3.99902s0.5 2.33301 0.5 3c0 5.33301 -2.33301 9.33301 -7 12c-0.666992 0.666992 -2.33398 1 -5.00098 1
c-6.66699 0 -10.667 -2.33301 -12 -7c-12 -17.333 -26.833 -33.666 -44.5 -48.999s-37 -28.833 -58 -40.5s-43 -20.834 -66 -27.501s-45.5 -10 -67.5 -10c-32.667 0 -67.834 5.5 -105.501 16.5s-72.5 26.167 -104.5 45.5s-58.667 42 -80 68s-32 54 -32 84
c0 23.333 6.5 47.666 19.5 72.999s31.167 47.333 54.5 66c44 -36.667 94 -55 150 -55c10.667 0 22.667 1.5 36 4.5s25.666 7.66699 36.999 14s21 14.333 29 24s12 20.834 12 33.501s-4.16699 23.5 -12.5 32.5s-18.5 16.333 -30.5 22s-24.5 9.66699 -37.5 12
s-24.167 3.5 -33.5 3.5c-23.333 0 -48.166 -5 -74.499 -15s-51.166 -24.333 -74.499 -43c-18.667 17.333 -31.667 34.166 -39 50.499s-11 32.166 -11 47.499c0 20.667 7.33301 40.334 22 59.001s33.167 34.834 55.5 48.501s46.833 24.5 73.5 32.5s51.667 12 75 12
c26 0 48.667 -1.66699 68 -5s36.166 -7.83301 50.499 -13.5s26.833 -12 37.5 -19s20.667 -14.5 30 -22.5c3.33301 -3.33301 5.66602 -5 6.99902 -5s2.66602 0.333008 3.99902 1l4 2c3.33301 4.66699 5 8.66699 5 12c0 1.33301 -1.66699 3.66602 -5 6.99902
c-10 9.33301 -21 18.166 -33 26.499s-25.833 15.5 -41.5 21.5s-33.834 10.833 -54.501 14.5s-44.667 5.5 -72 5.5c-24.667 0 -51.667 -4.5 -81 -13.5s-56.5 -21.167 -81.5 -36.5s-46 -33.833 -63 -55.5s-25.5 -45.5 -25.5 -71.5
c0.666992 -21.333 5.83398 -41.833 15.501 -61.5s22.834 -37.167 39.501 -52.5c-22 -21.333 -40.833 -45.5 -56.5 -72.5s-23.5 -54.833 -23.5 -83.5c0 -34.667 11.333 -66.5 34 -95.5s51.167 -54 85.5 -75s71.833 -37.5 112.5 -49.5s79 -18 115 -18zM255.003 336.004
c-18 0 -37.001 2.83301 -57.001 8.5s-44 17.834 -72 36.501c24.667 19.333 47.834 32.833 69.501 40.5s41.5 11.5 59.5 11.5c9.33301 0 19.333 -1 30 -3s20.5 -5 29.5 -9s16.333 -8.83301 22 -14.5s8.5 -12.167 8.5 -19.5s-2.83301 -14 -8.5 -20s-13 -11.333 -22 -16
s-18.833 -8.33398 -29.5 -11.001s-20.667 -4 -30 -4z" />
    <glyph glyph-name="F" unicode="F" horiz-adv-x="570" 
d="M119 341c9.33301 0 18.5039 1.33789 27.5039 4.00488s18.5 6.66699 28.5 12c4.66699 1.33301 7 5.33301 7 12c0 1.33301 -0.333008 3 -1 5c-2.66699 4.66699 -6 7 -10 7c-3.33301 0 -5.33301 -0.333008 -6 -1c-18 -9.33301 -34.333 -14 -49 -14
c-13.333 0 -25.333 3.66699 -36 11s-19.667 16.5 -27 27.5s-12.833 22.833 -16.5 35.5s-5.5 24.667 -5.5 36c0 33.333 5.16699 60.166 15.5 80.499s23.5 36 39.5 47s33.5 18.333 52.5 22s37.167 5.5 54.5 5.5c24.667 0 49.5 -2.66699 74.5 -8s50.167 -11.666 75.5 -18.999
c10.667 -4 22.667 -7.33301 36 -10l-1 -257c-30 0 -55.167 -3.83301 -75.5 -11.5s-37.5 -24.167 -51.5 -49.5c-1.33301 -2 -2 -4.33301 -2 -7c0 -4 2 -8 6 -12h8c2 0 5 2 9 6c13.333 23.333 29 37.833 47 43.5s37.667 7.16699 59 4.5v-124c0 -26 -4.83301 -49.5 -14.5 -70.5
s-22.5 -39 -38.5 -54s-34.333 -26.5 -55 -34.5s-42 -12 -64 -12c-16 0 -32.167 2.5 -48.5 7.5s-31.833 12.833 -46.5 23.5s-28.334 24.334 -41.001 41.001s-23.334 37 -32.001 61c-3.33301 4.66699 -7.33301 7 -12 7c-7.33301 -2.66699 -11 -6.66699 -11 -12v-4
c19.333 -52 46.833 -89.833 82.5 -113.5s72.834 -35.5 111.501 -35.5c24 0 47.667 4.16699 71 12.5s44 20.833 62 37.5s32.5 37.167 43.5 61.5s16.5 52.5 16.5 84.5v122c2 0 6.16699 -0.333008 12.5 -1s13 -1.33398 20 -2.00098s13.5 -1.33398 19.5 -2.00098s10 -1 12 -1
c20.667 0 37.334 3.66699 50.001 11c4 1.33301 6 4.66602 6 9.99902c0 2 -0.333008 4 -1 6c-3.33301 4.66699 -6.66602 7 -9.99902 7s-6 -1 -8 -3c-10 -4.66699 -22.333 -7 -37 -7c-10 0 -20.5 0.666992 -31.5 2l-32.5 4l3 254c15.333 -3.33301 31.166 -6 47.499 -8
s34.166 -3 53.499 -3c40 0 75.667 3.66699 107 11s62 18.333 92 33c4 4 6 7.66699 6 11v5c-4 5.33301 -8 8 -12 8c-2 0 -3.33301 -0.333008 -4 -1c-28.667 -13.333 -57.834 -23.833 -87.501 -31.5s-63.5 -11.5 -101.5 -11.5c-25.333 0 -50.5 2.66699 -75.5 8
s-50.167 11.666 -75.5 18.999s-51.166 14 -77.499 20s-54.5 9 -84.5 9c-18.667 0 -38.834 -2.16699 -60.501 -6.5s-41.834 -13 -60.501 -26s-34.334 -31.167 -47.001 -54.5s-19 -54.333 -19 -93c0 -14 2.5 -28.833 7.5 -44.5s12.333 -30.334 22 -44.001
s21.167 -24.834 34.5 -33.501s28.333 -13 45 -13h4z" />
    <glyph glyph-name="G" unicode="G" horiz-adv-x="777" 
d="M459 -363c22 0 41.002 4.50293 57.002 13.5029s29.167 20.333 39.5 34s17.833 28.667 22.5 45s7 32.166 7 47.499v184c28 15.333 53 30 75 44s41.333 27.667 58 41s30.834 27 42.501 41s20.834 28.667 27.501 44c0.666992 1.33301 1 3 1 5c0 4.66699 -2.66699 9 -8 13h-3
c-2.66699 0 -5.33398 -0.5 -8.00098 -1.5s-4.33398 -3.16699 -5.00098 -6.5c-12 -29.333 -33.5 -55.333 -64.5 -78s-69.5 -46.667 -115.5 -72l-3 646c0 4.66699 -1.66699 8 -5 10s-7.33301 3.16699 -12 3.5s-9.16699 0.333008 -13.5 0s-7.5 -0.166016 -9.5 0.500977
c-36.667 0 -75.334 -4.5 -116.001 -13.5s-80.834 -22.333 -120.501 -40s-77.5 -39.334 -113.5 -65.001s-67.833 -55 -95.5 -88s-49.667 -69.5 -66 -109.5s-24.5 -83 -24.5 -129c0.666992 -37.333 7.5 -68.833 20.5 -94.5s29.667 -46.334 50 -62.001s43 -26.834 68 -33.501
s49.833 -10 74.5 -10c36.667 0 72.334 7.5 107.001 22.5s67 35.333 97 61s56.667 55.667 80 90s42 70.833 56 109.5l2 -312c-30.667 -16.667 -58.834 -32.667 -84.501 -48s-47.834 -31.333 -66.501 -48s-33.167 -34 -43.5 -52s-15.5 -38 -15.5 -60
c0 -14 2.83301 -28.667 8.5 -44s13.334 -29.5 23.001 -42.5s21 -23.833 34 -32.5s26.833 -13 41.5 -13h1zM558.002 386.003c-6 -46 -19.5 -90.334 -40.5 -133.001s-46.833 -80.5 -77.5 -113.5s-65 -59.333 -103 -79s-77.333 -29.5 -118 -29.5c-23.333 0 -46.333 3 -69 9
s-42.667 15.833 -60 29.5s-31.5 31.667 -42.5 54s-16.5 49.833 -16.5 82.5c0 43.333 7.66699 83.833 23 121.5s36 72 62 103s56.167 58.667 90.5 83s70.333 44.833 108 61.5s76 29.334 115 38.001s76.167 13 111.5 13h8c2.66699 0 5.66699 -0.666992 9 -2v-234v-4z
M459.002 -338.998c-10 0 -20 3.3291 -30 9.99609s-19 15.334 -27 26.001s-14.333 22.334 -19 35.001s-7 25 -7 37c0 18.667 5 36 15 52s23.333 31.167 40 45.5s36.167 28.166 58.5 41.499l71.5 41v-169c0 -13.333 -2 -27.166 -6 -41.499s-10 -27.166 -18 -38.499
s-18.5 -20.666 -31.5 -27.999s-28.5 -11 -46.5 -11z" />
    <glyph glyph-name="H" unicode="H" horiz-adv-x="803" 
d="M261 -11l0.998047 0.00195312c16 0 31.5 4.33301 46.5 13s28.5 19.667 40.5 33s21.667 28.166 29 44.499s11 32.166 11 47.499c0 14.667 -0.666992 29.5 -2 44.5l-4 45.5l-7 103l39 16l46 15v-55c0.666992 -105.333 19.834 -182.5 57.501 -231.5
s88.834 -73.5 153.501 -73.5c16 0 31.167 4.83301 45.5 14.5s27.666 21.667 39.999 36s23.333 29.5 33 45.5s17.167 30.333 22.5 43c1.33301 0.666992 2 2 2 4c0 3.33301 -1.33301 6.33301 -4 9s-5.66699 4 -9 4c-2 0 -4 -0.833008 -6 -2.5s-3.66699 -3.16699 -5 -4.5
c-6 -12.667 -13.333 -26.167 -22 -40.5s-18.167 -27.666 -28.5 -39.999s-21.333 -22.666 -33 -30.999s-23.5 -12.5 -35.5 -12.5c-27.333 0 -52.333 5.16699 -75 15.5s-42.334 26.666 -59.001 48.999s-29.667 51.166 -39 86.499s-14 78.333 -14 129l1 64
c48 16.667 89.833 32.5 125.5 47.5s65 30.333 88 46s40.167 32.334 51.5 50.001s17 37.5 17 59.5c-0.666992 13.333 -4.33398 26.833 -11.001 40.5s-15.5 26.167 -26.5 37.5s-23.167 20.5 -36.5 27.5s-27 10.5 -41 10.5c-29.333 -0.666992 -55.333 -6.66699 -78 -18
s-42 -29 -58 -53s-28.667 -54.833 -38 -92.5s-15 -82.834 -17 -135.501l-32 -11.5c-12 -4.33301 -30.333 -11.833 -55 -22.5c0 30 0.166992 51.667 0.5 65s1.16602 25 2.49902 35c2.66699 25.333 7.33398 50.666 14.001 75.999l21 78l7.5 23l7.5 23v3
c0 2.66699 -1.33301 5.33398 -4 8.00098s-5.66699 4 -9 4h-3c-23.333 -7.33301 -43.5 -12.5 -60.5 -15.5s-32.167 -4.5 -45.5 -4.5s-25.5 1 -36.5 3s-22.167 4.33301 -33.5 7c-12 3.33301 -24.5 6.16602 -37.5 8.49902s-28.167 3.5 -45.5 3.5s-34.666 -3.66699 -51.999 -11
s-33.166 -17 -47.499 -29s-26 -26 -35 -42s-13.5 -33 -13.5 -51c0 -16.667 4.66699 -31.667 14 -45s20.666 -24.5 33.999 -33.5s28.166 -16 44.499 -21s31.5 -7.5 45.5 -7.5c8 0 13.333 1.33301 16 4s4 5.66699 4 9c0 7.33301 -7 11 -21 11
c-12.667 0 -25.5 2.16699 -38.5 6.5s-24.833 10.166 -35.5 17.499s-19.5 16 -26.5 26s-10.5 21 -10.5 33c0 14 3.5 27.5 10.5 40.5s16.333 24.667 28 35s24.667 18.5 39 24.5s29.166 9 44.499 9c13.333 0 25.833 -1.16699 37.5 -3.5s23.5 -5.16602 35.5 -8.49902
c12.667 -3.33301 25.334 -6 38.001 -8s27.334 -3 44.001 -3c12.667 0 26.167 1 40.5 3s30.166 5.66699 47.499 11l-23 -79c-5.33301 -17.333 -9.66602 -34.5 -12.999 -51.5s-5.66602 -34.5 -6.99902 -52.5c0 -5.33301 -0.166992 -10.666 -0.5 -15.999s-0.5 -12 -0.5 -20v-30
v-44c-26 -12 -50.5 -25.5 -73.5 -40.5s-43 -32 -60 -51s-30.5 -40.5 -40.5 -64.5s-15 -51.333 -15 -82c0.666992 -12 3.66699 -24.5 9 -37.5s12.333 -24.833 21 -35.5s18.834 -19.5 30.501 -26.5s24.167 -10.5 37.5 -10.5zM652.998 654.002
c10.667 0 21.3359 -2.66797 32.0029 -8.00098s20.167 -12.333 28.5 -21s15.166 -18.5 20.499 -29.5s8 -21.833 8 -32.5c0 -20.667 -6 -38.834 -18 -54.501s-29 -30.167 -51 -43.5s-48.667 -26.166 -80 -38.499l-105 -39.5c2 48.667 7.16699 89.834 15.5 123.501
s19.666 61.167 33.999 82.5s31.166 36.833 50.499 46.5s41 14.5 65 14.5zM261 13.001c-9.33301 0 -18.166 2.66797 -26.499 8.00098s-16 12.166 -23 20.499s-12.5 17.5 -16.5 27.5s-6 20 -6 30c0 47.333 11.5 86 34.5 116s53.5 55 91.5 75l37 19c2 -26 3.66699 -46 5 -60
s2.66602 -26.667 3.99902 -38c1.33301 -15.333 2.33301 -29.833 3 -43.5s1 -26.5 1 -38.5c0 -13.333 -3 -26.833 -9 -40.5s-14 -26.167 -24 -37.5s-21.167 -20.5 -33.5 -27.5s-24.833 -10.5 -37.5 -10.5z" />
    <glyph glyph-name="I" unicode="I" horiz-adv-x="562" 
d="M273 -11c32.667 0 63.3262 6.50488 91.9932 19.5049s53.334 30.333 74.001 52s36.834 46.167 48.501 73.5s17.5 55 17.5 83v3c0 19.333 -0.666992 39.333 -2 60l-4 63c-1.33301 23.333 -2.83301 46.833 -4.5 70.5s-2.5 47.167 -2.5 70.5c0 25.333 1.33301 50 4 74
s7.66699 46.667 15 68v4c0 3.33301 -1.16699 6.33301 -3.5 9s-5.16602 4 -8.49902 4c-2.66699 0 -5 -1 -7 -3v1c-15.333 -10 -30 -17 -44 -21s-27.333 -6 -40 -6c-18 0 -35.667 2.66699 -53 8s-34.666 11.666 -51.999 18.999s-35.166 14 -53.499 20s-37.5 9 -57.5 9
c-20.667 0 -42 -3 -64 -9s-42 -15.5 -60 -28.5s-32.833 -29.833 -44.5 -50.5s-17.5 -46 -17.5 -76v-3c0 -14 3 -29.167 9 -45.5s14.333 -31.5 25 -45.5s23.5 -25.5 38.5 -34.5s31.5 -13.5 49.5 -13.5c6.66699 0 13 0.666992 19 2s12.333 3 19 5c6 2.66699 9 7 9 13v5
c-3.33301 4.66699 -7.66602 7 -12.999 7h-3c-5.33301 -2.66699 -10.5 -4.33398 -15.5 -5.00098s-9.83301 -1 -14.5 -1c-14 0 -27 3.5 -39 10.5s-22.333 16 -31 27s-15.5 23.167 -20.5 36.5s-7.5 26.333 -7.5 39c0 26 4.83301 47.833 14.5 65.5s22.167 32.167 37.5 43.5
s32.5 19.666 51.5 24.999s38.167 8.33301 57.5 9c17.333 0 34.5 -3 51.5 -9s34.167 -12.667 51.5 -20c18 -8 36.5 -15 55.5 -21s38.5 -9 58.5 -9c11.333 0 22.833 1 34.5 3s23.167 5.66699 34.5 11c-5.33301 -18.667 -8.83301 -38.5 -10.5 -59.5s-2.5 -42.5 -2.5 -64.5
c0 -24 0.833008 -48.333 2.5 -73s3.5 -49 5.5 -73c1.33301 -20 3 -39.333 5 -58s3 -36.334 3 -53.001c0 -24.667 -5.16699 -49.334 -15.5 -74.001s-24.833 -46.834 -43.5 -66.501s-40.667 -35.667 -66 -48s-53 -18.5 -83 -18.5c-25.333 0 -49.5 2.83301 -72.5 8.5
s-44.333 14.334 -64 26.001s-36.667 26 -51 43s-25.166 36.833 -32.499 59.5c-1.33301 2 -3 4 -5 6s-4 3 -6 3c-8.66699 -2.66699 -13 -6.66699 -13 -12c7.33301 -24.667 18.666 -46.667 33.999 -66s33 -35.833 53 -49.5s41.333 -24.167 64 -31.5s45.334 -11 68.001 -11h25z
" />
    <glyph glyph-name="J" unicode="J" horiz-adv-x="715" 
d="M399 -383c15.333 0.666992 30.334 5.66602 45.001 14.999s27.5 21 38.5 35s19.833 29.5 26.5 46.5s10 33.5 10 49.5v3l-4 190l20 11c36 21.333 70.5 44.666 103.5 69.999s62.167 56 87.5 92c0 0.666992 0.333008 1.5 1 2.5s1 1.83301 1 2.5
c0 4.66699 -2.33301 8.66699 -7 12c-2 0.666992 -4 1 -6 1s-4 -0.5 -6 -1.5s-3.33301 -1.83301 -4 -2.5c-22 -33.333 -49.667 -62.333 -83 -87s-68 -47.667 -104 -69h1l-4 -1v3l-4 157c-1.33301 52.667 -2 105 -2 157c0 58.667 1.16699 117 3.5 175s6.5 116.333 12.5 175
c0 3.33301 -1.33301 6.33301 -4 9s-5.66699 4 -9 4c-0.666992 0 -1.83398 -0.333008 -3.50098 -1s-2.83398 -1 -3.50098 -1c-18.667 -11.333 -36.667 -19.166 -54 -23.499s-34 -6.5 -50 -6.5c-19.333 0 -39 2 -59 6s-39.667 8.66699 -59 14c-20 5.33301 -39.5 10 -58.5 14
s-38.833 6 -59.5 6h-14c-19.333 -1.33301 -37.666 -6.5 -54.999 -15.5s-32.666 -20.667 -45.999 -35s-24 -31.333 -32 -51s-12 -40.5 -12 -62.5v-3c0 -20 4.83301 -37.333 14.5 -52s21.5 -27 35.5 -37s29 -17.333 45 -22s30.667 -7 44 -7h3c7.33301 0 11 4 11 12
c0 3.33301 -1.33301 6.33301 -4 9s-5.66699 4 -9 4h-5c-11.333 0 -23.333 2 -36 6s-24.5 10 -35.5 18s-20.167 17.667 -27.5 29s-11 24.666 -11 39.999c0 18.667 3.33301 36.5 10 53.5s15.5 32 26.5 45s23.833 23.333 38.5 31s29.667 12.167 45 13.5h12
c16.667 0 34 -2 52 -6s36.667 -8.66699 56 -14l63 -15.5c21.333 -5 43 -7.5 65 -7.5c16.667 0 32.667 1.66699 48 5s30.666 9 45.999 17l5 2l-7 -88c-6 -67.333 -9 -135 -9 -203c0 -40 0.666992 -79.833 2 -119.5l4 -119.5c0.666992 -19.333 1 -38.333 1 -57
s0.666992 -37.667 2 -57v-14l-43 -26c-23.333 -13.333 -45 -27.166 -65 -41.499s-37.333 -29.833 -52 -46.5s-26.334 -35 -35.001 -55s-13 -42.667 -13 -68c0.666992 -14 4.33398 -28 11.001 -42s15.5 -26.667 26.5 -38s23.333 -20.666 37 -27.999s27.5 -11 41.5 -11z
M399.001 -357.001c-10.667 0 -21.3301 2.66895 -31.9971 8.00195s-20.334 12.5 -29.001 21.5s-15.667 19 -21 30s-8 22.167 -8 33.5v3c0 22 4.16699 41.667 12.5 59s19.833 33.5 34.5 48.5s31.667 29 51 42s39.666 25.833 60.999 38.5l23 14l4 -175c0 -14 -3 -28.333 -9 -43
s-13.5 -27.834 -22.5 -39.501s-19.333 -21.334 -31 -29.001s-22.834 -11.5 -33.501 -11.5z" />
    <glyph glyph-name="K" unicode="K" horiz-adv-x="885" 
d="M715 -4c18.667 0 37.0107 3.83203 55.0107 11.499s34.667 17.834 50 30.501s29.333 27 42 43s23.667 32.333 33 49v4c0 4 -2.33301 8.33301 -7 13h-5c-2 0 -4.16699 -0.333008 -6.5 -1s-3.83301 -2.66699 -4.5 -6c-8 -15.333 -17.667 -30.166 -29 -44.499
s-23.833 -27 -37.5 -38s-28.167 -20 -43.5 -27s-31 -10.5 -47 -10.5c-24.667 0 -44.334 4 -59.001 12s-26.334 18.667 -35.001 32s-15.334 29.166 -20.001 47.499s-9 37.833 -13 58.5l-10.5 47c-3.66699 16 -8.5 31.833 -14.5 47.5s-13.5 30.834 -22.5 45.501
s-20.5 28 -34.5 40l5 6c13.333 15.333 26 32.666 38 51.999s23.333 38.666 34 57.999l9 17v-2l40 65c13.333 20.667 26.666 39 39.999 55s26.833 28.667 40.5 38s28.167 14 43.5 14h3c8 0 12 4.33301 12 13v1c0 2 -1.16699 4.16699 -3.5 6.5s-5.16602 3.5 -8.49902 3.5h-3
c-19.333 0 -37.5 -5.5 -54.5 -16.5s-33 -25.167 -48 -42.5s-29.333 -37 -43 -59l-39.5 -66v1c-2.66699 -3.33301 -5 -7 -7 -11l-6 -12l-35.5 -58c-11 -18 -21.167 -32 -30.5 -42l-7 -7c-8 6 -17 11.167 -27 15.5s-20 8.16602 -30 11.499
c-4.66699 1.33301 -9.16699 2.16602 -13.5 2.49902s-9.83301 0.5 -16.5 0.5c-3.33301 0 -6.83301 -0.166992 -10.5 -0.5s-6.83398 -0.5 -9.50098 -0.5v17c0 38.667 3.5 78.834 10.5 120.501s21.5 84.834 43.5 129.501c0.666992 0.666992 1 2.66699 1 6s-1.33301 6 -4 8
s-5.33398 3 -8.00098 3c-3.33301 0 -6 -1 -8 -3v2c-15.333 -9.33301 -30.333 -15.833 -45 -19.5s-29 -5.5 -43 -5.5c-14.667 0 -29 1.33301 -43 4s-28.667 5.66699 -44 9c-16.667 3.33301 -33.334 6.33301 -50.001 9s-34 4 -52 4c-14.667 0 -29.667 -3.33301 -45 -10
s-29.333 -15.667 -42 -27s-23.167 -24.166 -31.5 -38.499s-12.5 -29.5 -12.5 -45.5c0 -16.667 4.33301 -32 13 -46s19.667 -26.167 33 -36.5s27.833 -18.333 43.5 -24s30.5 -8.5 44.5 -8.5h12c6.66699 2.66699 10 8 10 16c-2 6.66699 -7 10 -15 10h-8
c-12 0 -24.167 2.33301 -36.5 7s-23.833 11 -34.5 19s-19.334 17.333 -26.001 28s-10 22.334 -10 35.001v1c0 12 3.16699 23.667 9.5 35s14.666 21.5 24.999 30.5s21.666 16.333 33.999 22s24.5 8.5 36.5 8.5c14.667 0 29.5 -1.33301 44.5 -4s30.167 -5.66699 45.5 -9
l47.5 -9.5c15.667 -3 31.834 -4.5 48.501 -4.5c11.333 0 22.333 0.833008 33 2.5s21.667 4.5 33 8.5l7 3l-3 -9c-17.333 -38 -29 -75 -35 -111s-9 -71.667 -9 -107v-27c-12.667 -4.66699 -23 -10.667 -31 -18s-12 -17 -12 -29v-2c0 -13.333 5 -23 15 -29s21.667 -10 35 -12
v-5l4 -52.5c1.33301 -17.667 2 -34.167 2 -49.5c0 -10 -0.5 -19.5 -1.5 -28.5s-2.16699 -17.833 -3.5 -26.5v2c-2.66699 -14 -6.83398 -27.667 -12.501 -41s-12.5 -25.166 -20.5 -35.499s-17 -18.666 -27 -24.999s-20.333 -9.83301 -31 -10.5c-10 0 -19.833 2.5 -29.5 7.5
s-18.167 11.5 -25.5 19.5s-13.666 17.333 -18.999 28s-8.33301 22 -9 34c0 7.33301 -3.66699 11 -11 11h-2c-7.33301 0 -11 -3.66699 -11 -11v-2c0.666992 -14.667 4.16699 -28.667 10.5 -42s14.333 -25.166 24 -35.499s20.5 -18.5 32.5 -24.5s24.667 -9 38 -9h2
c15.333 0 29.333 4 42 12s24 18.333 34 31s18.333 26.5 25 41.5s11.667 30.167 15 45.5c2 11.333 3.33301 23.166 4 35.499s1 25.166 1 38.499s-0.333008 27.5 -1 42.5s-1.66699 30.5 -3 46.5h20h11c27.333 0 52.666 12.667 75.999 38
c24.667 -20.667 41.667 -45.834 51 -75.501s17 -60.167 23 -91.5c4.66699 -21.333 9.5 -42 14.5 -62s12.667 -37.833 23 -53.5s24.166 -28.334 41.499 -38.001s40.666 -14.5 69.999 -14.5h3zM413.011 316.999l-32.0029 -0.00292969c-2 16.667 -3 34 -3 52
c2.66699 0.666992 5.33398 1 8.00098 1h9c4 0 8.16699 -0.166992 12.5 -0.5s8.83301 -1.16602 13.5 -2.49902l25 -10c8 -3.33301 15.667 -7 23 -11c-9.33301 -9.33301 -18.666 -16.166 -27.999 -20.499s-18.666 -7.16602 -27.999 -8.49902zM352.008 320.996
c-15.333 3.33301 -23 9.33301 -23 18v1c0 10 6.66699 17 20 21c0 -6 0.333008 -12.5 1 -19.5z" />
    <glyph glyph-name="L" unicode="L" horiz-adv-x="655" 
d="M92 -3c25.333 1.33301 49.4951 10.3369 72.4951 27.0039s40.833 37.334 53.5 62.001l7 14l13 -6l32 -15.5c10.667 -5 21 -10.167 31 -15.5c29.333 -16 58.5 -30.5 87.5 -43.5s59.833 -19.5 92.5 -19.5c40 0 75.333 12.667 106 38s56.667 57.333 78 96
c0.666992 1.33301 1 3.33301 1 6c0 3.33301 -0.666992 5.5 -2 6.5s-3 2.16699 -5 3.5l2 -1c-2 1.33301 -4.66699 2 -8 2c-2 0 -4.16699 -0.333008 -6.5 -1s-3.83301 -2.66699 -4.5 -6c-18.667 -36 -41.667 -64.667 -69 -86s-58 -32.666 -92 -33.999
c-28 0 -55.667 6.16699 -83 18.5s-55.666 26.166 -84.999 41.499l-34 18c-11.333 6 -23.333 11.667 -36 17l-8 4l6 20c0.666992 3.33301 1.16699 6.66602 1.5 9.99902s0.5 6.66602 0.5 9.99902c0 1.33301 0.333008 3 1 5s1 3.66699 1 5v10c0 25.333 -1.83301 50.5 -5.5 75.5
s-8.16699 49.833 -13.5 74.5l-11.5 70c-3.66699 23.333 -5.5 46.666 -5.5 69.999c0 20.667 5.5 41.5 16.5 62.5s25.167 40 42.5 57s36.833 30.667 58.5 41s43.167 15.5 64.5 15.5c14.667 0 30.334 -2.5 47.001 -7.5s32.334 -11.333 47.001 -19s26.834 -16.5 36.501 -26.5
s14.5 -20 14.5 -30v-3c0 -8 4 -12 12 -12c2.66699 0 5.5 1.16699 8.5 3.5s4.5 5.16602 4.5 8.49902v3c0 14.667 -5.83301 28.5 -17.5 41.5s-26 24.333 -43 34s-35.167 17.334 -54.5 23.001s-37 8.5 -53 8.5h-2c-24 0 -48.167 -5.83301 -72.5 -17.5
s-46.5 -26.834 -66.5 -45.501s-36.167 -40 -48.5 -64s-18.5 -48 -18.5 -72v-1c0 -26 1.66699 -51 5 -75s7.33301 -47.667 12 -71s8.66699 -47.166 12 -71.499s5 -48.5 5 -72.5v-10c0 -8.66699 -1 -17.334 -3 -26.001v2l-4 -16l-17 8c-31.333 14.667 -65.666 22 -102.999 22
c-10 -0.666992 -20.167 -3.5 -30.5 -8.5s-19.5 -11.5 -27.5 -19.5s-14.667 -16.833 -20 -26.5s-8 -19.5 -8 -29.5v-2c0 -10 2.66699 -19.833 8 -29.5s12 -18.334 20 -26.001s17 -13.667 27 -18s20 -6.5 30 -6.5h1zM91.9951 21.0039l-0.998047 -0.000976562
c-7.33301 0 -14.5 1.66699 -21.5 5s-13.333 7.66602 -19 12.999s-10.334 11.333 -14.001 18s-5.5 13.334 -5.5 20.001c0 7.33301 1.83301 14.5 5.5 21.5s8.5 13.333 14.5 19s12.667 10.334 20 14.001s14.666 5.5 21.999 5.5c16 0 32.333 -1.5 49 -4.5s33 -8.16699 49 -15.5
l11 -7l-7 -14c-10 -21.333 -24.667 -38.833 -44 -52.5s-39 -21.167 -59 -22.5z" />
    <glyph glyph-name="M" unicode="M" horiz-adv-x="1081" 
d="M565 13c3.33301 0 6.33203 1.00391 8.99902 3.00391s4 5.33301 4 10l-5 341l2 2c0 0.666992 0.333008 1.33398 1 2.00098c10 30.667 21.667 62.834 35 96.501s29.333 64.5 48 92.5s39.667 51 63 69s50 27 80 27c8.66699 0 17 -3.16699 25 -9.5s15 -14.333 21 -24
s10.833 -20.334 14.5 -32.001s5.5 -22.834 5.5 -33.501v-466c0 -10 2.33301 -20.5 7 -31.5s10.834 -20.833 18.501 -29.5s16.5 -16 26.5 -22s20.667 -9 32 -9h3c16.667 0 32.5 4.33301 47.5 13s28.5 19.5 40.5 32.5s22.333 27.167 31 42.5s14.667 30 18 44v5
c0 4 -3 7.66699 -9 11h-4c-2 0 -4.16699 -0.833008 -6.5 -2.5s-3.83301 -3.5 -4.5 -5.5c-4 -12.667 -9.66699 -25.834 -17 -39.501s-16 -26.167 -26 -37.5s-21 -20.666 -33 -27.999s-24.333 -11 -37 -11h-3c-7.33301 0 -14.666 2.16699 -21.999 6.5
s-13.833 9.66602 -19.5 15.999s-10.167 13.5 -13.5 21.5s-5 16 -5 24v469c0 12 -2 25 -6 39s-9.83301 27 -17.5 39s-17 22 -28 30s-23.5 12 -37.5 12h-1c-29.333 0 -55.666 -7 -78.999 -21s-44.333 -32.167 -63 -54.5s-35 -47.333 -49 -75s-26 -55.5 -36 -83.5
c0 5.33301 0.166992 10.666 0.5 15.999s0.5 11 0.5 17c0 13.333 -0.333008 26.666 -1 39.999s-1.66699 26.666 -3 39.999c-1.33301 16 -3.83301 31.5 -7.5 46.5s-8.83398 28.333 -15.501 40s-15.167 20.834 -25.5 27.501s-23.166 10 -38.499 10
c-25.333 -0.666992 -48.5 -8 -69.5 -22s-40.5 -32.333 -58.5 -55s-34.333 -48.334 -49 -77.001s-28 -57.334 -40 -86.001v11c0 15.333 -0.166992 31.333 -0.5 48s-1.83301 33 -4.5 49c-1.33301 16 -3.5 31.333 -6.5 46s-7.5 27.667 -13.5 39s-13.5 20.5 -22.5 27.5
s-19.833 10.5 -32.5 10.5c-18 0 -36.5 -6.16699 -55.5 -18.5s-36.833 -29 -53.5 -50s-31.5 -45.5 -44.5 -73.5s-22.833 -57.333 -29.5 -88c0 -8.66699 3.33301 -13.667 10 -15h4c1.33301 0 3.16602 0.5 5.49902 1.5s3.83301 3.16699 4.5 6.5c6.66699 30 16 58 28 84
s25.333 48.5 40 67.5s30 34 46 45s31 16.5 45 16.5c15.333 0 26.833 -9.16699 34.5 -27.5s13.167 -42.5 16.5 -72.5c2 -15.333 3.16699 -31 3.5 -47s0.5 -31.667 0.5 -47v-437c0 -8 4.33301 -12 13 -12c8 0 12 4 12 12v352c0 1.33301 0.333008 2.33301 1 3
c12 32.667 25.333 65.834 40 99.501s30.834 64.167 48.501 91.5s37.167 49.5 58.5 66.5s44.333 25.5 69 25.5h1c19.333 0 33.666 -9.16699 42.999 -27.5s15.666 -42.5 18.999 -72.5l2 -30.5c0.666992 -10.333 1 -20.5 1 -30.5c0 -11.333 -0.333008 -22 -1 -32s-1 -20 -1 -30
v-67l4 -343c0 -7.33301 4 -11 12 -11z" />
    <glyph glyph-name="N" unicode="N" horiz-adv-x="783" 
d="M652 1c11.333 0 23.667 3.66895 37 11.002s26.333 17.166 39 29.499s24.667 26.5 36 42.5s21 32.667 29 50v5c0 4.66699 -2.33301 8.33398 -7 11.001h-4c-2 0 -4.33301 -0.333008 -7 -1s-4.66699 -2.66699 -6 -6c-7.33301 -16.667 -15.833 -32.167 -25.5 -46.5
s-20 -26.666 -31 -36.999s-21.833 -18.5 -32.5 -24.5s-20 -9 -28 -9c-8.66699 0 -17.334 2 -26.001 6s-16.5 9.16699 -23.5 15.5s-12.833 13.666 -17.5 21.999s-7 16.5 -7 24.5v482c0 10 -2 21 -6 33s-9.83301 23.167 -17.5 33.5s-16.5 19 -26.5 26s-21 10.5 -33 10.5
c-26.667 -0.666992 -51.167 -7.16699 -73.5 -19.5s-42.666 -28.833 -60.999 -49.5s-34.666 -44.834 -48.999 -72.501s-26.5 -56.834 -36.5 -87.501v19c0 18.667 -1.5 39.5 -4.5 62.5s-7.16699 44.833 -12.5 65.5c-2.66699 10 -5.83398 19.833 -9.50098 29.5
s-8 18.5 -13 26.5s-10.833 14.333 -17.5 19s-14 7 -22 7c-22.667 -0.666992 -43.834 -8.66699 -63.501 -24s-37.5 -34.166 -53.5 -56.499s-30.167 -46.5 -42.5 -72.5s-22.5 -50 -30.5 -72l2 2c-2 -2 -3 -4 -3 -6s0.833008 -4.16699 2.5 -6.5s3.5 -3.83301 5.5 -4.5h5
c4.66699 0 8.33398 2.33301 11.001 7c8.66699 22 18.834 45.167 30.501 69.5s24.834 46.666 39.501 66.999s30.167 37.166 46.5 50.499s33.166 20 50.499 20c13.333 0 25.666 -21 36.999 -63c6 -20 10.5 -41.167 13.5 -63.5s4.5 -41.5 4.5 -57.5l-2 -113v-5l-3 -331
c0 -7.33301 4 -11 12 -11c2.66699 0 5.5 1 8.5 3s4.5 4.66699 4.5 8l2 331c8.66699 40 19.834 78.167 33.501 114.5s29.667 68.333 48 96s39.166 49.834 62.499 66.501s49.333 25 78 25h1c7.33301 0 14.333 -2.5 21 -7.5s12.667 -11.167 18 -18.5
s9.66602 -15.5 12.999 -24.5s5 -17.833 5 -26.5l-1 -482c0 -12 3.16699 -23.5 9.5 -34.5s14.333 -20.833 24 -29.5s20.334 -15.667 32.001 -21s23.167 -8 34.5 -8z" />
    <glyph glyph-name="O" unicode="O" horiz-adv-x="711" 
d="M321 -1c42.667 0 82.667 8.99805 120 26.998s70 42.167 98 72.5s50 66 66 107s24 84.833 24 131.5v3c-0.666992 34.667 -5.5 67.334 -14.5 98.001s-21.833 60 -38.5 88c26 9.33301 51.167 22 75.5 38s46.833 36.667 67.5 62c2 2 3 4.33301 3 7c0 2 -0.5 3.83301 -1.5 5.5
s-1.83301 3.16699 -2.5 4.5c-1.33301 1.33301 -2.83301 2.16602 -4.5 2.49902s-3.16699 0.5 -4.5 0.5c-2 0 -3.83301 -0.166992 -5.5 -0.5s-3.16699 -2.16602 -4.5 -5.49902l2 1c-21.333 -23.333 -43.666 -42.666 -66.999 -57.999s-47.333 -27.333 -72 -36
c-25.333 36 -56.166 65.167 -92.499 87.5s-76.5 35.5 -120.5 39.5c-0.666992 1.33301 -1.33398 2 -2.00098 2h-1h-1c-4.66699 0 -9 0.166992 -13 0.5s-8.33301 0.5 -13 0.5h-3c-42.667 0 -82.834 -9 -120.501 -27s-70.5 -42.333 -98.5 -73s-50.167 -66.5 -66.5 -107.5
s-24.5 -84.5 -24.5 -130.5v-3c0.666992 -46.667 9.16699 -90.5 25.5 -131.5s38.5 -76.667 66.5 -107s60.833 -54.333 98.5 -72s78.167 -26.5 121.5 -26.5h3zM462 505.998l4.00586 0.000976562c13.333 0 27.166 0.833008 41.499 2.5s29.166 4.5 44.499 8.5
c15.333 -25.333 27.666 -52.833 36.999 -82.5s14.666 -61.167 15.999 -94.5v-3c0 -43.333 -7.5 -84 -22.5 -122s-35.5 -71.167 -61.5 -99.5s-56.167 -50.833 -90.5 -67.5s-70.833 -25 -109.5 -25h-3c-39.333 0 -76.333 8.16699 -111 24.5s-65 38.666 -91 66.999
s-46.5 61.5 -61.5 99.5s-22.5 78.667 -22.5 122v3c0 42.667 7.5 83 22.5 121s35.5 71.167 61.5 99.5s56.167 50.833 90.5 67.5s70.833 25.334 109.5 26.001h9c-4.66699 -8.66699 -7.83398 -16.834 -9.50098 -24.501s-2.5 -15.167 -2.5 -22.5
c0 -8.66699 1.33301 -16.5 4 -23.5s6.33398 -14.167 11.001 -21.5c10 -14 23.5 -25.333 40.5 -34s36.833 -14.667 59.5 -18h-2c3.33301 -1.33301 6.33301 -2 9 -2h10c3.33301 0 6.16602 -0.166992 8.49902 -0.5s5.16602 -0.5 8.49902 -0.5zM536.006 539.999
c-23.333 -6 -46.0029 -9.00098 -68.0029 -9.00098c-6.66699 0 -13.167 0.333008 -19.5 1s-12.166 1.33398 -17.499 2.00098c-39.333 6 -65.333 18 -78 36c-9.33301 12 -14 24.333 -14 37c0 6 0.833008 12.667 2.5 20s4.83398 15 9.50098 23
c37.333 -5.33301 71.833 -17.5 103.5 -36.5s58.834 -43.5 81.501 -73.5z" />
    <glyph glyph-name="P" unicode="P" horiz-adv-x="550" 
d="M156 184c46.667 0 94.0039 5 142.004 15s91.5 27 130.5 51s70.833 55.833 95.5 95.5s37 89.167 37 148.5v3c-0.666992 24 -7.33398 47 -20.001 69s-29.334 41.333 -50.001 58s-43.834 30 -69.501 40s-51.834 15 -78.501 15h-2c-36 0 -69 -6.16699 -99 -18.5
s-57.167 -28 -81.5 -47s-46 -40 -65 -63s-35.5 -45.5 -49.5 -67.5l2 180c0 3.33301 -1.33301 6.33301 -4 9s-5.66699 4 -9 4s-6.33301 -1.33301 -9 -4s-4 -5.66699 -4 -9l-3 -656c0 -7.33301 4.33301 -11 13 -11c7.33301 0 11 3.66699 11 11l3 424
c14 22.667 30.167 47 48.5 73s39.5 50 63.5 72s51.167 40.5 81.5 55.5s64.166 22.5 101.499 22.5h2c24 0 47.5 -4.5 70.5 -13.5s43.5 -20.833 61.5 -35.5s32.667 -31.5 44 -50.5s17 -38.5 17 -58.5v-3c0 -54 -11.333 -99.167 -34 -135.5s-52 -65.5 -88 -87.5
s-76.667 -37.667 -122 -47s-90.666 -14 -135.999 -14c-3.33301 0 -6.33301 -1.5 -9 -4.5s-4 -5.83301 -4 -8.5c0 -8 4.33301 -12 13 -12z" />
    <glyph glyph-name="Q" unicode="Q" horiz-adv-x="807" 
d="M628 16l3.99707 0.00195312c38.667 0 73.5 9 104.5 27s58.167 47 81.5 87c0.666992 0.666992 1 2.66699 1 6c0 4 -2.33301 7.66699 -7 11l1 -1c-1.33301 2 -3.66602 3 -6.99902 3c-2 0 -4.16699 -0.5 -6.5 -1.5s-3.83301 -3.16699 -4.5 -6.5v2
c-41.333 -68.667 -93.666 -103 -156.999 -103c-6.66699 0 -13.5 0.166992 -20.5 0.5s-14.167 1.16602 -21.5 2.49902l3 603c0 6.66699 -3.33301 10.334 -10 11.001l-3 3c-12.667 3.33301 -25.834 5.83301 -39.501 7.5s-27.5 2.5 -41.5 2.5
c-37.333 0 -75.5 -5.66699 -114.5 -17s-77 -27.166 -114 -47.499s-72 -44.5 -105 -72.5s-61.667 -58.667 -86 -92s-43.666 -68.5 -57.999 -105.5s-21.5 -74.5 -21.5 -112.5v-3c0 -37.333 5.83301 -69.833 17.5 -97.5s27.167 -50.667 46.5 -69s41 -32 65 -41
s48.667 -13.5 74 -13.5c38.667 0 76.834 7.33301 114.501 22s72.5 34.667 104.5 60s60.667 55.166 86 89.499s45 71.166 59 110.499l-1 -245v-7l-1 -398c0 -8 3.66699 -12 11 -12c3.33301 0 6.33301 1.16699 9 3.5s4 5.16602 4 8.49902l1 386
c5.33301 -0.666992 10.333 -1 15 -1h17zM570.997 376.002c-5.33301 -46.667 -19.332 -91.334 -41.999 -134.001s-50.5 -80.167 -83.5 -112.5s-70 -58.166 -111 -77.499s-82.833 -29 -125.5 -29c-22 0 -43.667 3.83301 -65 11.5s-40.333 19.667 -57 36
s-30.167 36.833 -40.5 61.5s-15.5 54 -15.5 88v1c0 36 6.66699 71.5 20 106.5s31.666 68.167 54.999 99.5s50.5 60.5 81.5 87.5s64 50.167 99 69.5s71 34.5 108 45.5s73.167 16.5 108.5 16.5c24.667 0 48.667 -3 72 -9l-2 -254c-1.33301 -2.66699 -2 -5 -2 -7z" />
    <glyph glyph-name="R" unicode="R" horiz-adv-x="735" 
d="M568 -6c19.333 0.666992 37.666 4.83594 54.999 12.5029s33.166 17.667 47.499 30s27.666 26.5 39.999 42.5s23.166 32.667 32.499 50v5c0 1.33301 -0.5 3.5 -1.5 6.5s-2.16699 5.16699 -3.5 6.5h-6c-2 0 -4.33301 -0.833008 -7 -2.5s-4.66699 -3.16699 -6 -4.5
c-9.33301 -16 -19.5 -31.167 -30.5 -45.5s-22.833 -27 -35.5 -38s-26 -19.833 -40 -26.5s-29 -10 -45 -10h-2c-14 0 -25.667 3.66699 -35 11s-17.5 17.166 -24.5 29.499s-13 26.666 -18 42.999s-9.5 33.166 -13.5 50.499c-7.33301 26.667 -15.666 53.834 -24.999 81.501
s-23.333 52.5 -42 74.5l-16 14l19 22c18.667 21.333 32 45.833 40 73.5s12 53.5 12 77.5v6c0 24 -6.16699 46.667 -18.5 68s-28.166 40.166 -47.499 56.499s-40.5 29.166 -63.5 38.499s-45.5 14 -67.5 14h-3c-26 0 -50.333 -4.83301 -73 -14.5s-43.5 -22.834 -62.5 -39.501
s-36.5 -36.334 -52.5 -59.001s-30.667 -47 -44 -73v172c0 4 -1.5 7.16699 -4.5 9.5s-5.83301 3.5 -8.5 3.5c-3.33301 0 -6.33301 -1.5 -9 -4.5s-4 -5.83301 -4 -8.5l1 -653c0 -8.66699 4 -13 12 -13c8.66699 0 13 4.33301 13 13v423c14 30.667 29.167 59.334 45.5 86.001
s34 49.834 53 69.501s39.5 35.167 61.5 46.5s46 17.333 72 18h3c20 0 40.167 -4.33301 60.5 -13s38.833 -20.167 55.5 -34.5s30.334 -30.666 41.001 -48.999s16 -37.166 16 -56.499c0 -23.333 -4 -48 -12 -74s-19.667 -48.667 -35 -68l-19 -22l-4 2v-1
c-10.667 8 -23 13.5 -37 16.5s-29.667 4.5 -47 4.5h-12c-23.333 -0.666992 -42.5 -5.5 -57.5 -14.5s-22.833 -20.833 -23.5 -35.5v-2c0 -14 7.16699 -25.167 21.5 -33.5s34.166 -12.5 59.499 -12.5c36.667 1.33301 68.334 13.666 95.001 36.999l7 7
c21.333 -18.667 37.333 -42.5 48 -71.5s20 -58.833 28 -89.5c4.66699 -20 9.83398 -39.167 15.501 -57.5s12.667 -34.5 21 -48.5s18.833 -25.167 31.5 -33.5s29 -12.5 49 -12.5zM273 289.002l-5 0.000976562c-21.333 0 -35.333 2.66699 -42 8s-10 9.66602 -10 12.999
c1.33301 5.33301 6 11 14 17s22.333 9.33301 43 10c14.667 0 28 -0.833008 40 -2.5s23 -5.16699 33 -10.5l7 -4l-1 -1c-22 -20 -48.333 -30 -79 -30z" />
    <glyph glyph-name="S" unicode="S" horiz-adv-x="461" 
d="M196 1c24 0 50.002 3.66895 78.002 11.002s54.333 18.166 79 32.499s45.167 32 61.5 53s24.5 45.167 24.5 72.5c-0.666992 32 -8.83398 62 -24.501 90s-33.167 57 -52.5 87v-1c-1.33301 2.66699 -3.5 6 -6.5 10s-5.16699 7.66699 -6.5 11l-24 37l14 17
c25.333 29.333 45 58.333 59 87s21 53 21 73c0 10 -2.5 20 -7.5 30s-11.333 19.333 -19 28s-16.334 15.667 -26.001 21s-19.834 8.33301 -30.501 9h-1c-10.667 0 -21.667 -2.66699 -33 -8s-21.5 -12.333 -30.5 -21s-16.333 -18.334 -22 -29.001s-8.5 -21.334 -8.5 -32.001
c0.666992 -28 4.66699 -54.333 12 -79s17 -48 29 -70l11 -23l-14 -16c-24 -25.333 -50.667 -46.5 -80 -63.5s-58 -26.167 -86 -27.5c-3.33301 0 -6 -1.33301 -8 -4s-3 -5.66699 -3 -9c0 -8.66699 4.33301 -13 13 -13c30.667 1.33301 61.667 11.333 93 30
s60.666 42 87.999 70l12 12l20 -35v2c2.66699 -5.33301 5.66699 -10.333 9 -15s6.33301 -9.33398 9 -14.001h-1c18 -27.333 33.833 -53.666 47.5 -78.999s20.5 -50.333 20.5 -75v-1c0 -22 -7.16699 -41.833 -21.5 -59.5s-32.166 -32.667 -53.499 -45
s-44.666 -21.833 -69.999 -28.5s-49.333 -10 -72 -10c-22 0 -43 2.66699 -63 8s-37.833 12.666 -53.5 21.999s-28 20.333 -37 33s-13.5 26.334 -13.5 41.001c0 3.33301 -1 6.33301 -3 9s-5.33301 4 -10 4c-3.33301 0 -6 -1.33301 -8 -4s-3 -5.66699 -3 -9
c0 -19.333 5.33301 -36.833 16 -52.5s24.667 -29.167 42 -40.5s37.333 -20.166 60 -26.499s45.667 -9.5 69 -9.5h4zM266.002 579.002c0 8 2.16504 15.8311 6.49805 23.498s9.83301 14.5 16.5 20.5s14.167 11 22.5 15s16.5 6 24.5 6c6.66699 0 13.334 -2 20.001 -6
s12.834 -9 18.501 -15s10.167 -12.667 13.5 -20s5 -14.666 5 -21.999c0 -17.333 -6.5 -39.166 -19.5 -65.499s-30.5 -52.5 -52.5 -78.5l-10 -11l-5 10c-12 22 -21.667 44.833 -29 68.5s-11 48.5 -11 74.5z" />
    <glyph glyph-name="T" unicode="T" horiz-adv-x="777" 
d="M185 241c4 0 7.66992 2.66309 11.0029 7.99609c13.333 22 28 36.167 44 42.5s33.333 9.5 52 9.5h10c-1.33301 -9.33301 -2.33301 -18.666 -3 -27.999s-1 -18.333 -1 -27v-19c1.33301 -27.333 6.33301 -54.666 15 -81.999s22.5 -51.833 41.5 -73.5
s43.833 -39.167 74.5 -52.5s68.334 -20 113.001 -20h3c22.667 0 45.667 2.5 69 7.5s45.666 12.833 66.999 23.5s41.166 24.167 59.499 40.5s34.166 36.166 47.499 59.499v4c0 4.66699 -2.33301 8.66699 -7 12l1 -2c-2 2 -4.33301 3 -7 3c-2 0 -4 -0.333008 -6 -1
s-3.33301 -2.66699 -4 -6c-11.333 -20.667 -25 -38.334 -41 -53.001s-33.667 -26.667 -53 -36s-39.833 -16.166 -61.5 -20.499s-43.167 -6.5 -64.5 -6.5h-3c-40 0 -73.833 5.83301 -101.5 17.5s-50 27.167 -67 46.5s-29.5 41.333 -37.5 66s-12.667 49.667 -14 75v15
c0 8.66699 0.333008 17.834 1 27.501s2.33398 19.167 5.00098 28.5c0.666992 0 1.66699 -0.166992 3 -0.5s2.66602 -0.5 3.99902 -0.5h-2c14.667 -2.66699 31.334 -4.66699 50.001 -6h15c10 0 19.667 0.5 29 1.5s18.666 3.83301 27.999 8.5
c3.33301 0.666992 5.33301 2.16699 6 4.5s1 4.5 1 6.5v5c-4.66699 4.66699 -9 7 -13 7h-4c-7.33301 -3.33301 -15.166 -5.66602 -23.499 -6.99902s-16.166 -2 -23.499 -2c-8.66699 0 -17.667 0.333008 -27 1s-18.666 1.66699 -27.999 3c-4.66699 0 -8 0.666992 -10 2
c7.33301 28 18.5 55.333 33.5 82s32.667 51.334 53 74.001s42.833 42.5 67.5 59.5s51 29.5 79 37.5l19 5h-2l48 8c2.66699 1.33301 4.5 3.16602 5.5 5.49902s1.5 4.5 1.5 6.5c0 3.33301 -1.16699 6.33301 -3.5 9s-5.5 4 -9.5 4
c-6.66699 -0.666992 -12.667 -1.33398 -18 -2.00098s-10.666 -1.66699 -15.999 -3l-12 -3h2l-39 -5c-10 -1.33301 -19.333 -2.33301 -28 -3s-17.334 -1 -26.001 -1c-34.667 0 -64.5 4 -89.5 12s-48.5 16.333 -70.5 25c-21.333 7.33301 -41.833 14 -61.5 20
s-42.167 9 -67.5 9h-7c-20.667 -0.666992 -42 -5 -64 -13s-42.167 -19.167 -60.5 -33.5s-33.333 -32.166 -45 -53.499s-17.5 -45.333 -17.5 -72c0 -18 3.5 -35 10.5 -51s16 -30 27 -42s23.5 -21.5 37.5 -28.5s28 -10.5 42 -10.5c11.333 0 21.666 2.33301 30.999 7
c3.33301 0.666992 5.5 2.16699 6.5 4.5s1.5 4.5 1.5 6.5s-0.666992 4 -2 6s-2.5 3.66699 -3.5 5s-3.16699 2 -6.5 2c-2.66699 0 -4.66699 -0.333008 -6 -1c-8 -3.33301 -14.667 -5 -20 -5c-10 0 -20.5 2.83301 -31.5 8.5s-21 13.167 -30 22.5s-16.333 20.5 -22 33.5
s-8.5 27.167 -8.5 42.5v3c0 22.667 5 42.834 15 60.501s22.667 32.667 38 45s32.666 21.833 51.999 28.5s38.333 10.334 57 11.001h6c21.333 0 41.166 -3 59.499 -9s37.5 -12.667 57.5 -20c23.333 -8.66699 48.166 -16.834 74.499 -24.501s58.166 -11.5 95.499 -11.5h16
l-4 -3c-24 -12 -46.167 -27 -66.5 -45s-38.666 -37.667 -54.999 -59s-30.333 -44 -42 -68s-20.5 -48.333 -26.5 -73c-3.33301 0 -6.5 0.166992 -9.5 0.5s-6.16699 0.5 -9.5 0.5c-21.333 0 -41.833 -4.33301 -61.5 -13s-37.167 -26.667 -52.5 -54c-1.33301 -2 -2 -4 -2 -6
s0.5 -4.16699 1.5 -6.5s3.16699 -3.83301 6.5 -4.5c0.666992 -1.33301 2 -2 4 -2z" />
    <glyph glyph-name="U" unicode="U" horiz-adv-x="788" 
d="M646 1l6.99707 0.00195312c16.667 0.666992 32.167 5.5 46.5 14.5s27.666 19.833 39.999 32.5s23.333 26.5 33 41.5s18.167 28.833 25.5 41.5c0.666992 1.33301 1 3.33301 1 6c0 3.33301 -0.666992 5.5 -2 6.5s-3 2.16699 -5 3.5s-4 2 -6 2
c-4.66699 0 -8 -2.66699 -10 -8v2c-7.33301 -12.667 -15.666 -25.667 -24.999 -39s-19.166 -25.666 -29.499 -36.999s-21.333 -20.833 -33 -28.5s-23.834 -11.834 -36.501 -12.501h-3c-6.66699 0 -13.5 1.16699 -20.5 3.5s-13.5 5.33301 -19.5 9
s-10.833 7.83398 -14.5 12.501s-5.5 9.66699 -5.5 15l-1 200c0 5.33301 0.333008 9.66602 1 12.999c0 3.33301 -0.333008 5.66602 -1 6.99902l-3 371c0 8 -4.33301 12 -13 12c-7.33301 0 -11 -4.33301 -11 -13l2 -386c-10.667 -70.667 -31.667 -127.667 -63 -171
s-71 -68.333 -119 -75l-20 -3l-19 2c-20.667 0.666992 -38.5 7.33398 -53.5 20.001s-22.5 31.667 -22.5 57l6 489c0 8 -1.83301 16.667 -5.5 26s-8.66699 18 -15 26s-13.5 15 -21.5 21s-16 10 -24 12h-15l-15 -3c-21.333 -4 -41.333 -14.667 -60 -32
s-35.667 -37.166 -51 -59.499s-28.166 -45.166 -38.499 -68.499s-17.5 -43.333 -21.5 -60c0 -8.66699 3.33301 -13.667 10 -15h4c1.33301 0 3.16602 0.666992 5.49902 2s3.83301 3.33301 4.5 6c4 17.333 11.333 37.666 22 60.999s23.5 45.666 38.5 66.999
s31.333 39.5 49 54.5s35.834 22.5 54.501 22.5c3.33301 0 5.33301 0.333008 6 1c4.66699 0 9.83398 -2.16699 15.501 -6.5s11 -9.5 16 -15.5s9.16699 -12.5 12.5 -19.5s5 -13.5 5 -19.5l-6 -489v-3c0 -19.333 3.5 -35.333 10.5 -48s16.167 -22.834 27.5 -30.501
s24 -13.167 38 -16.5s28.333 -5 43 -5h1c46 4.66699 86.333 22 121 52s61.334 70.333 80.001 121l2 -104c0 -9.33301 2.66699 -17.833 8 -25.5s12 -14.334 20 -20.001s16.833 -10.167 26.5 -13.5s18.5 -5.33301 26.5 -6z" />
    <glyph glyph-name="V" unicode="V" horiz-adv-x="854" 
d="M436 -1c28 0 53.5 5.83691 76.5 17.5039s43.5 27.167 61.5 46.5s33.667 41.666 47 66.999s24.166 51.666 32.499 78.999s14.666 55 18.999 83s6.5 54 6.5 78v33c0 7.33301 0.333008 14.833 1 22.5s1 15.834 1 24.501s-0.333008 17.834 -1 27.501l-2 28.5l-2 8l17 2
c32.667 1.33301 63.834 9.5 93.501 24.5s54.834 31.833 75.501 50.5c2 2 3 5 3 9c0 0.666992 -0.166992 2 -0.5 4s-1.16602 3.66699 -2.49902 5s-3 2 -5 2h-4c-3.33301 0 -6 -0.666992 -8 -2c-19.333 -17.333 -42.5 -32.833 -69.5 -46.5s-54.833 -21.167 -83.5 -22.5l-20 -1
v12c-3.33301 34 -12.5 62.833 -27.5 86.5s-36.167 35.5 -63.5 35.5c-7.33301 -0.666992 -15.5 -2.16699 -24.5 -4.5s-17.5 -5.83301 -25.5 -10.5s-14.833 -10.5 -20.5 -17.5s-8.5 -14.833 -8.5 -23.5c0 -18.667 4.5 -34.167 13.5 -46.5s20.167 -22.333 33.5 -30
s27.5 -13.334 42.5 -17.001s28.5 -5.83398 40.5 -6.50098l19 -3l1 -3v2c1.33301 -10 2.16602 -20.333 2.49902 -31s0.5 -21.334 0.5 -32.001v-80c0 -36 -4.5 -74.333 -13.5 -115s-22.667 -78 -41 -112s-41.166 -62.333 -68.499 -85s-59.333 -34 -96 -34h-1
c-19.333 0 -39.166 4.33301 -59.499 13s-38.833 20 -55.5 34s-30.334 29.833 -41.001 47.5s-16 35.834 -16 54.501l2 407c0 30 -7.66699 51.833 -23 65.5s-33 20.5 -53 20.5c-16 0 -33.333 -6.66699 -52 -20s-36.667 -30.5 -54 -51.5s-33 -44.833 -47 -71.5
s-24.333 -53.334 -31 -80.001c0 -3.33301 0.5 -6.5 1.5 -9.5s3.83301 -5.16699 8.5 -6.5h4c1.33301 0 3.16602 0.666992 5.49902 2s3.83301 3.66602 4.5 6.99902c6.66699 26 16.334 51.333 29.001 76s26.667 46.5 42 65.5s31 34.333 47 46s30.667 17.5 44 17.5
c12 0 23.333 -4.33301 34 -13s16 -24.667 16 -48l-2 -407c0 -22.667 6.16699 -44.5 18.5 -65.5s28.166 -39.5 47.499 -55.5s40.5 -28.833 63.5 -38.5s45.5 -14.5 67.5 -14.5zM528 617.004c0 7.33301 5.66699 14.167 17 20.5s23.333 9.5 36 9.5c20 0 35 -8.5 45 -25.5
s16.667 -38.833 20 -65.5l2 -16l-13 1c-12.667 1.33301 -25.334 3.5 -38.001 6.5s-24.167 7.5 -34.5 13.5s-18.666 13.5 -24.999 22.5s-9.5 20.167 -9.5 33.5z" />
    <glyph glyph-name="W" unicode="W" horiz-adv-x="1097" 
d="M703 3c24.667 0 47.3291 5.83008 67.9961 17.4971s39.334 27 56.001 46s31.167 40.833 43.5 65.5s22.666 50.5 30.999 77.5s14.5 54 18.5 81s6 52.5 6 76.5v34c0 13.333 -0.166992 27.666 -0.5 42.999s-1.5 31 -3.5 47l-4 33c34 1.33301 66.833 8.5 98.5 21.5
s60.167 27.833 85.5 44.5h-1c2.66699 0.666992 4.5 2.16699 5.5 4.5s1.5 4.5 1.5 6.5c0 3.33301 -1 6 -3 8l1 -2c-3.33301 4.66699 -7 7 -11 7c-1.33301 0 -2.66602 -0.166992 -3.99902 -0.5s-2.33301 -0.5 -3 -0.5c-26 -16.667 -53.833 -31 -83.5 -43
s-60.167 -18.667 -91.5 -20l-2 16c-5.33301 28 -15 52.667 -29 74s-33.667 33.666 -59 36.999h2c-3.33301 1.33301 -6.66602 2 -9.99902 2h-7c-22.667 0 -39.5 -6 -50.5 -18s-16.5 -26 -16.5 -42c0 -14.667 4.66699 -29 14 -43s24 -25.667 44 -35
c11.333 -5.33301 23.5 -9.5 36.5 -12.5s26.167 -4.5 39.5 -4.5h17l4 -30c2.66699 -20 4.16699 -39.667 4.5 -59s0.5 -36.666 0.5 -51.999v-22c0 -23.333 -2 -47.666 -6 -72.999s-9.83301 -50.166 -17.5 -74.499s-17.167 -47.833 -28.5 -70.5s-24.333 -42.5 -39 -59.5
s-31 -30.667 -49 -41s-37.333 -15.5 -58 -15.5c-17.333 0 -34.666 2.5 -51.999 7.5s-33 13 -47 24s-25.5 25.333 -34.5 43s-13.5 39.5 -13.5 65.5v6l5 211c0 4.66699 -1.5 8 -4.5 10s-5.83301 3 -8.5 3c-7.33301 0 -11.666 -3.33301 -12.999 -10l-3 -198v-22
c0 -9.33301 0.333008 -18.333 1 -27s2.33398 -16.667 5.00098 -24c8 20 14 43.333 18 70c0 2.66699 -1 5.5 -3 8.5s-4.66699 4.5 -8 4.5c-8.66699 0 -13 -4 -13 -12c-3.33301 -28.667 -10 -53.334 -20 -74.001s-21.667 -37.667 -35 -51s-27.5 -23.166 -42.5 -29.499
s-29.167 -9.5 -42.5 -9.5c-16.667 0 -32.834 2.5 -48.501 7.5s-29.5 13 -41.5 24s-21.833 25.5 -29.5 43.5s-11.5 40 -11.5 66l-8 436c0 20.667 -3.83301 36.834 -11.5 48.501s-22.167 17.5 -43.5 17.5c-20.667 0 -41 -6.16699 -61 -18.5s-38.5 -28.5 -55.5 -48.5
s-32.167 -42.5 -45.5 -67.5s-23.333 -50.167 -30 -75.5v-5c0 -6.66699 3.33301 -10 10 -10h3c2 0 4.16699 1 6.5 3s4.16602 4 5.49902 6c6.66699 24 16 47.333 28 70s25.5 43 40.5 61s31 32.5 48 43.5s33.833 16.5 50.5 16.5c12 0 20.167 -3.16699 24.5 -9.5
s6.5 -17.166 6.5 -32.499l7 -435c0.666992 -30 5.33398 -55.5 14.001 -76.5s20 -38 34 -51s30 -22.5 48 -28.5s36.667 -9 56 -9h4c26.667 0 53.667 9.5 81 28.5s49 48.5 65 88.5c6 -20.667 14.667 -38.167 26 -52.5s24.5 -26 39.5 -35s31.167 -15.5 48.5 -19.5
s34.333 -6 51 -6zM875.995 548.997c-11.333 0 -22.498 1.50195 -33.498 4.50195s-22.167 6.5 -33.5 10.5c-15.333 6.66699 -26.5 15.167 -33.5 25.5s-10.5 20.166 -10.5 29.499s3.5 17.5 10.5 24.5s17.833 10.5 32.5 10.5c2 0 4 -0.166992 6 -0.5s4.33301 -0.5 7 -0.5
c17.333 -3.33301 31.166 -13.333 41.499 -30s18.166 -37.334 23.499 -62.001l3 -12h-13z" />
    <glyph glyph-name="X" unicode="X" horiz-adv-x="948" 
d="M712 -3c22.667 0 46.499 3.00195 71.499 9.00195s48.833 14.833 71.5 26.5s43.167 25.667 61.5 42s32.5 35.166 42.5 56.499c1.33301 1.33301 2 3.33301 2 6c0 2 -1 4.16699 -3 6.5s-3.66699 4.16602 -5 5.49902h-4c-2 0 -4.33301 -0.5 -7 -1.5
s-4.66699 -3.16699 -6 -6.5c-8.66699 -18.667 -21.167 -35.334 -37.5 -50.001s-34.833 -27.167 -55.5 -37.5s-42.334 -18.333 -65.001 -24s-45 -8.5 -67 -8.5h-3c-35.333 0 -66.833 7.33301 -94.5 22s-51.167 34 -70.5 58s-34 51.667 -44 83s-15.333 63.666 -16 96.999v22
l50 6c42 4.66699 82.667 11.5 122 20.5s74 21.5 104 37.5s54.167 36.667 72.5 62s27.5 57 27.5 95v2c0 17.333 -3.16699 34.5 -9.5 51.5s-15.833 32.167 -28.5 45.5s-28.667 24 -48 32s-41.666 12 -66.999 12c-36.667 0 -68.167 -7.33301 -94.5 -22
s-48.5 -33.334 -66.5 -56.001s-32.5 -48 -43.5 -76s-19.5 -56 -25.5 -84v-2c-3.33301 28.667 -10.166 57.667 -20.499 87s-24.5 55.833 -42.5 79.5s-39.833 42.834 -65.5 57.501s-55.167 22 -88.5 22h-1c-46.667 0 -91.834 -11.667 -135.501 -35s-81.5 -52.333 -113.5 -87
c-1.33301 -1.33301 -2.33301 -2.83301 -3 -4.5s-1 -2.83398 -1 -3.50098c0 -4 1.33301 -7 4 -9c2 -2.66699 5 -4 9 -4c2.66699 0 5.33398 1.33301 8.00098 4c32 33.333 68 60.833 108 82.5s81.333 32.5 124 32.5h1c34.667 0 64.5 -9.5 89.5 -28.5s45.333 -42.667 61 -71
s27.167 -59.5 34.5 -93.5s11 -66 11 -96v-4v-15c0 -4 -0.666992 -8 -2 -12l-1 -6l-61 -6c-42 -4.66699 -82.833 -10.334 -122.5 -17.001s-74.667 -16.5 -105 -29.5s-54.833 -30.167 -73.5 -51.5s-28 -49 -28 -83v-2c0 -18 4.83301 -35.167 14.5 -51.5s22 -30.833 37 -43.5
s31.5 -22.834 49.5 -30.501s35.333 -11.5 52 -11.5c32.667 0.666992 62.5 7.83398 89.5 21.501s51 31.834 72 54.501s38.667 48.334 53 77.001s25.166 58.334 32.499 89.001v1c3.33301 -32.667 11.333 -63.667 24 -93s29.334 -55.166 50.001 -77.499s45.5 -40 74.5 -53
s61.833 -19.5 98.5 -19.5h3zM485.999 347.002c0 3.33301 0.334961 6.66504 1.00195 9.99805l2 10c0 1.33301 0.333008 3 1 5s1 3.66699 1 5c5.33301 29.333 12.666 59.5 21.999 90.5s22.166 59.333 38.499 85s37 46.834 62 63.501s55.833 25 92.5 25h3
c20.667 0 38.834 -3.33301 54.501 -10s28.667 -15.334 39 -26.001s18.166 -23 23.499 -37s8.33301 -28 9 -42c0 -34 -8 -62.167 -24 -84.5s-37.667 -40.666 -65 -54.999s-59.333 -25.666 -96 -33.999s-75.667 -14.833 -117 -19.5l-50 -6zM215.001 21.001
c-14.667 0 -29.5 3.33301 -44.5 10s-28.667 15.334 -41 26.001s-22.5 22.667 -30.5 36s-12.333 27 -13 41c0 28 7.83301 51 23.5 69s37.167 32.833 64.5 44.5s59.333 20.667 96 27s76 11.833 118 16.5l63 8c-4 -33.333 -12.167 -66.333 -24.5 -99s-28.5 -62.167 -48.5 -88.5
s-43.667 -47.833 -71 -64.5s-58 -25.334 -92 -26.001z" />
    <glyph glyph-name="Y" unicode="Y" horiz-adv-x="740" 
d="M409 -393c22.667 0 41.667 7.33691 57 22.0039s27.666 32.834 36.999 54.501s16 44.5 20 68.5s6 45.667 6 65v123l33 20c35.333 22 69.833 46.5 103.5 73.5s61.5 58.167 83.5 93.5h-1c2 2 3 4.33301 3 7s-0.5 4.5 -1.5 5.5l-3.5 3.5
c-1.33301 1.33301 -2.83301 2.16602 -4.5 2.49902s-2.83398 0.5 -3.50098 0.5c-2.66699 0 -5 -1 -7 -3l-6 -6c-20 -32 -46.333 -60.833 -79 -86.5s-67 -49.167 -103 -70.5l-12 -9l4 686c0 3.33301 -1.33301 6.33301 -4 9s-5.66699 4 -9 4s-6 -1.33301 -8 -4
s-3 -5.66699 -3 -9l-3 -274c-10.667 -26.667 -23.167 -54 -37.5 -82s-30.166 -53.333 -47.499 -76s-35.666 -41.334 -54.999 -56.001s-39 -22 -59 -22h-3c-17.333 0 -32.333 3.5 -45 10.5s-23 16 -31 27s-14 23.5 -18 37.5s-6 27.667 -6 41v304c0 10 -2 21 -6 33
s-9.5 23.333 -16.5 34s-15.333 19.5 -25 26.5s-20.5 10.5 -32.5 10.5c-20 0 -37.667 -5.5 -53 -16.5s-28 -24.167 -38 -39.5s-17.5 -31.166 -22.5 -47.499s-7.5 -29.833 -7.5 -40.5c0 -8.66699 3.66699 -13 11 -13c3.33301 0 6.33301 1.16699 9 3.5s4 5.16602 4 8.49902
c0.666992 10 3.16699 22 7.5 36s10.666 27.167 18.999 39.5s18.333 23 30 32s25.167 13.5 40.5 13.5c7.33301 0 14.333 -2.5 21 -7.5s12.667 -11.5 18 -19.5s9.5 -16.667 12.5 -26s4.5 -18.333 4.5 -27v-304c0 -15.333 2.33301 -31.333 7 -48s12.167 -32 22.5 -46
s23.5 -25.5 39.5 -34.5s35.333 -13.5 58 -13.5c20 0.666992 39.5 6.66699 58.5 18s37 26.166 54 44.499s32.833 39.166 47.5 62.499s27.667 47 39 71l-3 -360l-32 -21c-23.333 -14.667 -45.333 -29.334 -66 -44.001s-38.667 -30 -54 -46s-27.666 -33 -36.999 -51
s-14 -37.667 -14 -59v-3c0 -13.333 2.83301 -27.5 8.5 -42.5s13.5 -28.667 23.5 -41s21.5 -22.5 34.5 -30.5s26.5 -12 40.5 -12zM409 -368.996c-10 0 -19.999 3.16602 -29.999 9.49902s-19 14.5 -27 24.5s-14.333 21 -19 33s-7 23.667 -7 35c0 18 4.5 35 13.5 51
s21 31.5 36 46.5s32.5 29.5 52.5 43.5s41.333 28 64 42l13 8v-107c-0.666992 -19.333 -2.83398 -39.833 -6.50098 -61.5s-9.16699 -41.667 -16.5 -60s-17 -33.666 -29 -45.999s-26.667 -18.5 -44 -18.5z" />
    <glyph glyph-name="Z" unicode="Z" horiz-adv-x="725" 
d="M225 286l0.996094 1l-1 -1l4 4c15.333 20 29.666 33.833 42.999 41.5s26.666 11.5 39.999 11.5c5.33301 0 11.166 -0.666992 17.499 -2s12.833 -3 19.5 -5c-10.667 -42 -21.834 -82 -33.501 -120s-25.167 -71.333 -40.5 -100l-4 -6l-6 3
c-25.333 9.33301 -54.333 14 -87 14c-23.333 0 -42.666 -6.5 -57.999 -19.5s-24.666 -27.5 -27.999 -43.5c-0.666992 -2 -1 -4.33301 -1 -7v-7c0 -15.333 5.33301 -28.5 16 -39.5s27 -16.5 49 -16.5c26.667 0 50.5 7.5 71.5 22.5s39.167 35.833 54.5 62.5l17 -6
c11.333 -4.66699 22 -9.33398 32 -14.001s20 -9.66699 30 -15c21.333 -10.667 43.5 -20.667 66.5 -30s48.167 -15.333 75.5 -18c1.33301 0 3 -0.333008 5 -1s3.66699 -1 5 -1c4 0 7 -0.333008 9 -1h7c24.667 0 47.334 4.16699 68.001 12.5s39.334 19 56.001 32
s31.667 27.5 45 43.5s25 32 35 48h-1c2 1.33301 3 3.66602 3 6.99902c0 2 -0.5 3.83301 -1.5 5.5s-1.83301 3.16699 -2.5 4.5c-1.33301 1.33301 -3 2.16602 -5 2.49902s-3.33301 0.5 -4 0.5c-2 0 -4.16699 -1 -6.5 -3s-4.5 -4 -6.5 -6c-10 -15.333 -21 -30.166 -33 -44.499
s-25.333 -27.166 -40 -38.499s-30.834 -20.5 -48.501 -27.5s-37.167 -10.5 -58.5 -10.5h-12c-4 0 -8 0.333008 -12 1c-22 3.33301 -44.167 9.33301 -66.5 18s-44.166 18.334 -65.499 29.001l-33 16c-11.333 5.33301 -22.666 10 -33.999 14l-11 4l3 5
c16.667 29.333 30.5 62.666 41.5 99.999s21.5 75 31.5 113c0 1.33301 0.166992 2.66602 0.5 3.99902s0.5 2.66602 0.5 3.99902c0.666992 -0.666992 2.66699 -1 6 -1c10.667 -5.33301 21.834 -9.83301 33.501 -13.5s24.167 -5.5 37.5 -5.5s26.166 2.83301 38.499 8.5
s25.166 16.167 38.499 31.5c2 2 3 5 3 9c0 0.666992 -0.166992 1.83398 -0.5 3.50098s-1.16602 3.16699 -2.49902 4.5s-2.83301 2.16602 -4.5 2.49902s-2.83398 0.5 -3.50098 0.5c-2.66699 0 -4.66699 -0.166992 -6 -0.5s-2.66602 -2.16602 -3.99902 -5.49902l1 2
c-10.667 -11.333 -21 -19.5 -31 -24.5s-19.667 -7.5 -29 -7.5s-18.833 1.66699 -28.5 5l-31.5 11c-1.33301 1.33301 -3 2 -5 2c-1.33301 0 -3 0.333008 -5 1c2 5.33301 3.33301 10.666 4 15.999c10 38.667 20 74.5 30 107.5s20.667 62.167 32 87.5l6 13l25 -4
c8 -1.33301 16.333 -2.16602 25 -2.49902s17.667 -0.5 27 -0.5c22.667 0 40.167 6.5 52.5 19.5s18.5 26.5 18.5 40.5c0 13.333 -5.16699 25 -15.5 35s-26.5 15 -48.5 15c-19.333 0 -36.833 -6.16699 -52.5 -18.5s-29.167 -28.833 -40.5 -49.5l-4 -8l-7 2
c-15.333 3.33301 -32.166 7.33301 -50.499 12s-36.5 9.66699 -54.5 15c-28.667 9.33301 -58.167 17.666 -88.5 24.999s-62.166 11 -95.499 11h-7c-16.667 0 -32.834 -3.66699 -48.501 -11s-29.5 -17 -41.5 -29s-21.667 -25.5 -29 -40.5s-11 -29.833 -11 -44.5
c0 -15.333 2.33301 -30.166 7 -44.499s11.167 -27.333 19.5 -39s18.666 -21.167 30.999 -28.5s26.5 -11.333 42.5 -12c3.33301 0 6.33301 1.33301 9 4s4 5.66699 4 9c0 7.33301 -4 11 -12 11c-11.333 0.666992 -21.666 3.83398 -30.999 9.50098s-17.166 13 -23.499 22
s-11.333 19.5 -15 31.5s-5.5 24.333 -5.5 37v2c0 12 3 23.833 9 35.5s13.833 22.167 23.5 31.5s20.667 16.833 33 22.5s25.166 8.5 38.499 8.5h7c32 0 63 -3.5 93 -10.5s60 -15.167 90 -24.5c16.667 -5.33301 33.334 -10.333 50.001 -15s33.334 -8.66699 50.001 -12l-6 -15
c-10.667 -24 -20.167 -50.167 -28.5 -78.5l-24.5 -86.5c-2 -6.66699 -3.83301 -13.167 -5.5 -19.5s-3.16699 -12.833 -4.5 -19.5c-7.33301 2 -14.5 3.66699 -21.5 5s-14.5 2 -22.5 2c-16.667 0 -33.5 -4.33301 -50.5 -13s-34.5 -25.667 -52.5 -51
c0 -1.33301 -0.166992 -2.33301 -0.5 -3s-0.5 -1.66699 -0.5 -3c0 -5.33301 1.66699 -8.66602 5 -9.99902l4 -2c1.33301 -0.666992 3 -1 5 -1zM155.996 19c-15.333 0 -26.001 3.16699 -32.001 9.5s-9 13.5 -9 21.5c0 2.66699 0.333008 5 1 7
c2.66699 11.333 9.33398 21.833 20.001 31.5s24.667 14.5 42 14.5c13.333 0 26.833 -1 40.5 -3s27.167 -5.66699 40.5 -11l-10 -13c-24 -37.333 -55 -56.333 -93 -57zM527.995 591c-8 0 -16 0.167969 -24 0.500977s-15.667 1.16602 -23 2.49902l-18 3l2 2
c9.33301 17.333 20 30.333 32 39s24.667 13.667 38 15c13.333 0 23.333 -2.66699 30 -8s10 -11.333 10 -18c0 -8.66699 -4 -16.5 -12 -23.5s-19.667 -11.167 -35 -12.5z" />
    <glyph glyph-name="underscore" unicode="_" horiz-adv-x="351" 
d="M3 -441h348c4 0 7.16699 1.16699 9.5 3.5s3.5 5.16602 3.5 8.49902c0 2.66699 -1.16699 5.33398 -3.5 8.00098s-5.5 4 -9.5 4h-348c-4 0 -7.16699 -1.33301 -9.5 -4s-3.5 -5.33398 -3.5 -8.00098c0 -3.33301 1.16699 -6.16602 3.5 -8.49902s5.5 -3.5 9.5 -3.5z" />
    <glyph glyph-name="grave" unicode="`" horiz-adv-x="550" 
d="M197 734l88 -47c2 -2 4 -3 6 -3c4 0 7.5 1.5 10.5 4.5s4.5 6.5 4.5 10.5c0 4.66699 -2.66699 8.66699 -8 12l-88 47c-2.66699 1.33301 -4.66699 2 -6 2c-4 0 -7.5 -1.33301 -10.5 -4s-4.5 -6 -4.5 -10c0 -5.33301 2.66699 -9.33301 8 -12z" />
    <glyph glyph-name="a" unicode="a" horiz-adv-x="484" 
d="M339 -4c13.333 0 27 5 41 15s27.667 21 41 33c13.333 13.333 26.166 27.666 38.499 42.999s22.833 29.666 31.5 42.999c2 2 3 4.33301 3 7c0 4.66699 -2.33301 8.66699 -7 12l1 -2c-2 2 -4.33301 3 -7 3c-2 0 -4.16699 -0.333008 -6.5 -1s-4.16602 -2.66699 -5.49902 -6
v1c-8.66699 -13.333 -18.834 -27.666 -30.501 -42.999s-23.167 -28.666 -34.5 -39.999c-13.333 -12 -25.666 -21.833 -36.999 -29.5s-20.666 -11.5 -27.999 -11.5c-6 0 -12.167 2 -18.5 6s-12 9 -17 15s-9 12.667 -12 20s-4.5 14.666 -4.5 21.999l-2 36h1
c0.666992 0 1 0.333008 1 1v4v1c0 0.666992 -0.666992 1.33398 -2 2.00098l-1 164v3c-1.33301 1.33301 -2 2.33301 -2 3c0 1.33301 -0.333008 2.33301 -1 3c-1.33301 0.666992 -2.33301 1 -3 1s-1.66699 0.666992 -3 2h-3h-3h-7c-23.333 0 -50.833 -3.66699 -82.5 -11
s-62 -18.833 -91 -34.5s-53.5 -36 -73.5 -61s-30 -54.833 -30 -89.5v-1c0 -14.667 3.66699 -28.667 11 -42s16.666 -25 27.999 -35s24 -18 38 -24s28 -9 42 -9c32 0 62 8.16699 90 24.5s50.667 35.166 68 56.499c0.666992 -9.33301 3.16699 -18.666 7.5 -27.999
s10 -18 17 -26s15 -14.5 24 -19.5s18.5 -7.5 28.5 -7.5zM104 20c-11.333 0 -22.668 2.5 -34.001 7.5s-21.5 11.5 -30.5 19.5s-16.333 17.167 -22 27.5s-8.5 21.166 -8.5 32.499v2c0 29.333 9 54.5 27 75.5s39.833 38.5 65.5 52.5s52.834 24.333 81.501 31
s54 10.334 76 11.001l2 -153c-4 -11.333 -11 -23.166 -21 -35.499s-22 -23.833 -36 -34.5s-29.5 -19.334 -46.5 -26.001s-34.833 -10 -53.5 -10z" />
    <glyph glyph-name="b" unicode="b" horiz-adv-x="489" 
d="M207 -4c22.667 0 43.1641 6.83594 61.4971 20.5029s32.833 31.167 43.5 52.5l9 20l11 -6c8 -4.66699 16.5 -7.83398 25.5 -9.50098s17.833 -2.5 26.5 -2.5c22 0 42.833 5.33301 62.5 16s36.5 25 50.5 43c1.33301 2 2 4.33301 2 7s-1.33301 6 -4 10
c-1.33301 1.33301 -2.83301 2.16602 -4.5 2.49902s-2.83398 0.5 -3.50098 0.5c-2.66699 0 -4.66699 -0.166992 -6 -0.5s-2.66602 -2.16602 -3.99902 -5.49902l1 2c-13.333 -15.333 -28 -27.333 -44 -36s-32.667 -13 -50 -13c-14.667 0 -29 3 -43 9h1l-11 7l7 20
c3.33301 10.667 5.66602 21.5 6.99902 32.5s2 21.5 2 31.5c0 25.333 -4 46.666 -12 63.999s-22.667 26 -44 26c-13.333 0 -23.666 -2.66699 -30.999 -8s-12.833 -12 -16.5 -20s-6 -16.333 -7 -25s-1.5 -16.334 -1.5 -23.001c0 -19.333 4.16699 -37.5 12.5 -54.5
s20.5 -31.5 36.5 -43.5l15 -12l-10 -21c-8.66699 -18 -20.167 -32.5 -34.5 -43.5s-30.166 -16.5 -47.499 -16.5c-15.333 0 -29.833 4.16699 -43.5 12.5s-25.834 19.166 -36.501 32.499s-19.167 28.833 -25.5 46.5s-9.5 35.834 -9.5 54.501v105l13 23
c14 26 27.333 52.167 40 78.5s23.834 51.666 33.501 75.999s17.167 47.333 22.5 69s8 40.5 8 56.5c0 12.667 -1 27.167 -3 43.5s-5.66699 31.5 -11 45.5s-13.166 25.833 -23.499 35.5s-23.833 14.5 -40.5 14.5c-10 0 -18.833 -2.5 -26.5 -7.5s-14.167 -11.333 -19.5 -19
s-9.5 -16 -12.5 -25s-4.5 -17.5 -4.5 -25.5v-357l-19 -33c-10 -18 -19.333 -33.667 -28 -47l-26 -40l-4 -8l-4 -8c-1.33301 -2 -2 -4 -2 -6c0 -4 1.33301 -7.33301 4 -10c2 -2 4.66699 -3 8 -3c4 0 7.66699 2.33301 11 7l-1 -1l29 44l32 50v-58
c0 -21.333 3.5 -42.166 10.5 -62.499s16.833 -38.5 29.5 -54.5s27.334 -28.833 44.001 -38.5s35 -14.5 55 -14.5zM91.9971 636.003c0 12 4 23.499 12 34.499s17 16.5 27 16.5s18.5 -3.33301 25.5 -10s12.667 -15.5 17 -26.5s7.33301 -23.167 9 -36.5
s2.5 -26.666 2.5 -39.999c0 -22.667 -6.5 -52.5 -19.5 -89.5s-30.167 -76.167 -51.5 -117.5l-22 -43v312zM258.997 211.002c0 13.333 1.66602 25.334 4.99902 36.001s12.333 16 27 16c10 0 17.667 -5.16699 23 -15.5s8 -27.166 8 -50.499c0 -16 -2.66699 -35.333 -8 -58
l-6 -13l-7 5c-13.333 9.33301 -23.666 21.166 -30.999 35.499s-11 29.166 -11 44.499z" />
    <glyph glyph-name="c" unicode="c" horiz-adv-x="354" 
d="M162 -4c22 0 43.001 3.5 63.001 10.5s38.5 16.667 55.5 29s32.5 26.666 46.5 42.999s25.667 33.833 35 52.5c1.33301 1.33301 2 3.33301 2 6c0 4.66699 -2.33301 8.66699 -7 12h-5c-2 0 -4.33301 -0.5 -7 -1.5s-4.66699 -3.16699 -6 -6.5
c-8.66699 -17.333 -19.167 -33.333 -31.5 -48s-26.166 -27.334 -41.499 -38.001s-31.833 -19.167 -49.5 -25.5s-35.834 -9.5 -54.501 -9.5c-17.333 0 -35 3.33301 -53 10s-34.333 15.834 -49 27.501s-26.834 24.834 -36.501 39.501s-14.5 30 -14.5 46v3
c1.33301 20.667 6.83301 39.167 16.5 55.5s21.5 30 35.5 41s29.5 19.5 46.5 25.5s34.167 9 51.5 9c20.667 0 39.334 -4.33301 56.001 -13h4c4.66699 0 8.66699 2.33301 12 7c0.666992 1.33301 1 3.33301 1 6c0 3.33301 -0.666992 5.5 -2 6.5s-3 2.16699 -5 3.5
c-9.33301 5.33301 -19.5 9 -30.5 11s-22.833 3 -35.5 3c-20 0 -40 -3.33301 -60 -10s-38.167 -16.5 -54.5 -29.5s-30 -29.167 -41 -48.5s-17.167 -41.333 -18.5 -66v-6c0 -20 5.66699 -38.833 17 -56.5s25.666 -33 42.999 -46s36.333 -23.333 57 -31s40.667 -11.5 60 -11.5z
" />
    <glyph glyph-name="d" unicode="d" horiz-adv-x="484" 
d="M104 -4l0.995117 -0.00292969c32 2 60.833 13 86.5 33s48.167 42.333 67.5 67c2 -17.333 5 -32.666 9 -45.999c5.33301 -15.333 13.5 -28.166 24.5 -38.499s27.167 -15.5 48.5 -15.5c18 0 34 3.83301 48 11.5s26.667 17.334 38 29.001s21.5 24.334 30.5 38.001
s17.167 26.834 24.5 39.501c1.33301 3.33301 3 6.33301 5 9s3.66699 5.33398 5 8.00098c0 1.33301 0.333008 2.5 1 3.5s1 1.83301 1 2.5c0 4.66699 -2.33301 8.66699 -7 12h-5c-2 0 -4.16699 -0.5 -6.5 -1.5s-3.83301 -2.16699 -4.5 -3.5
c-1.33301 -2 -2.83301 -3.83301 -4.5 -5.5s-3.16699 -3.5 -4.5 -5.5l-26 -41.5c-8.66699 -13.667 -17.667 -25.834 -27 -36.501s-19.666 -19.167 -30.999 -25.5s-23.666 -9.5 -36.999 -9.5s-23.666 3.66699 -30.999 11s-13.333 16.666 -18 27.999
c-4 10.667 -6.33301 22.5 -7 35.5s-1 25.167 -1 36.5c0.666992 1.33301 1 3.33301 1 6c0 1.33301 -0.166992 2.16602 -0.5 2.49902s-0.5 0.833008 -0.5 1.5v132c0.666992 0.666992 1 2.66699 1 6c0 1.33301 -0.333008 2.66602 -1 3.99902l1 334c0 3.33301 -1 6.33301 -3 9
s-5.33301 4 -10 4c-3.33301 0 -6 -1.33301 -8 -4s-3 -5.66699 -3 -9l-2 -326c-21.333 -0.666992 -47.166 -3.5 -77.499 -8.5s-59.833 -13.333 -88.5 -25s-53.167 -27.167 -73.5 -46.5s-31.166 -43.333 -32.499 -72v-10l-2 -10v-10c0 -13.333 2.66699 -26.666 8 -39.999
s13 -25.5 23 -36.5s22.333 -19.833 37 -26.5s31.667 -10 51 -10zM116.995 20.9971l-13.002 -1.00195l-13 1c-13.333 0.666992 -25.166 3.83398 -35.499 9.50098s-19 12.667 -26 21s-12.167 17.833 -15.5 28.5s-5 21 -5 31c0 6 0.666992 10.333 2 13v3
c0 24.667 8.83301 45.834 26.5 63.501s39.334 32 65.001 43s52.667 19.167 81 24.5s53.5 8.33301 75.5 9v-130c-9.33301 -13.333 -19.333 -26.5 -30 -39.5s-22 -24.833 -34 -35.5s-24.5 -19.667 -37.5 -27s-26.5 -12 -40.5 -14z" />
    <glyph glyph-name="e" unicode="e" horiz-adv-x="289" 
d="M116 -4c25.333 0 47.6699 4.33008 67.0029 12.9971s36.166 19.834 50.499 33.501s26.666 28.5 36.999 44.5s19.5 31.667 27.5 47c0.666992 1.33301 1 3.33301 1 6c0 4.66699 -2.33301 8.33398 -7 11.001h-4c-4.66699 0 -8.66699 -1.66699 -12 -5
c-8 -14.667 -16.667 -29.5 -26 -44.5s-20.333 -28.5 -33 -40.5s-27.334 -21.833 -44.001 -29.5s-35.667 -11.5 -57 -11.5c-20 0 -36.667 2.83301 -50 8.5s-24 13.334 -32 23.001s-13.833 20.5 -17.5 32.5s-5.83398 24.333 -6.50098 37v6h13
c30.667 0 61.334 5.33301 92.001 16c18.667 8 34.5 18.5 47.5 31.5s19.5 31.167 19.5 54.5c0 18.667 -6.33301 34.667 -19 48s-27.334 20.666 -44.001 21.999h-27c-16 -3.33301 -30.5 -10.666 -43.5 -21.999s-24.333 -24.833 -34 -40.5s-17 -32.667 -22 -51
s-7.5 -35.5 -7.5 -51.5c0 -2 0.166992 -4.33301 0.5 -7s0.5 -5 0.5 -7c1.33301 -14 4.33301 -28.333 9 -43s11.834 -28 21.501 -40s22.5 -21.833 38.5 -29.5s36.333 -11.5 61 -11.5zM28.0039 150.997l-17.999 -0.000976562l2 9c2 14 5.83301 27.833 11.5 41.5
s12.667 25.834 21 36.501s18 19.334 29 26.001s22.5 10 34.5 10h5c11.333 0 21.666 -4.33301 30.999 -13s14 -19.334 14 -32.001c0 -16 -4.83301 -28.833 -14.5 -38.5s-22.167 -17.5 -37.5 -23.5c-25.333 -10.667 -51.333 -16 -78 -16z" />
    <glyph glyph-name="f" unicode="f" horiz-adv-x="275" 
d="M4 -373c11.333 0 22.332 3.00195 32.999 9.00195s20 13.5 28 22.5s14.5 19 19.5 30s7.5 21.833 7.5 32.5v198l7 5l12 12c32 30 63.667 61.333 95 94s58.333 67.334 81 104.001h-2c2 2 3 4.33301 3 7c0 4.66699 -2.33301 8.66699 -7 12h-4
c-2.66699 0 -5.5 -0.833008 -8.5 -2.5s-5.16699 -3.16699 -6.5 -4.5c-20 -34 -43.5 -65.833 -70.5 -95.5s-54.833 -57.834 -83.5 -84.501l-16 -15v319l17 29c14 25.333 27.167 50.5 39.5 75.5s23.333 49.167 33 72.5s17.167 45.166 22.5 65.499s8 38.5 8 54.5v2
c-0.666992 12 -2.5 25.667 -5.5 41s-7.66699 30.166 -14 44.499s-14.5 26.666 -24.5 36.999s-22.333 16.166 -37 17.499h-3c-9.33301 0 -17.666 -2.66699 -24.999 -8s-13.5 -12 -18.5 -20s-9 -16.5 -12 -25.5s-4.5 -17.167 -4.5 -24.5v-351l-16 -27
c-7.33301 -15.333 -15.5 -29.666 -24.5 -42.999s-17.5 -26.666 -25.5 -39.999h2c-3.33301 -4.66699 -6 -9 -8 -13s-4.66699 -8.33301 -8 -13c-2 -2 -3 -4.33301 -3 -7c0 -2 0.5 -4.16699 1.5 -6.5s2.83301 -3.83301 5.5 -4.5c2 -1.33301 4 -2 6 -2
c3.33301 0 5.5 0.666992 6.5 2s2.16699 3 3.5 5v-1l60 96v-297l-17 -16c-18 -16.667 -35 -33.167 -51 -49.5s-30.167 -32.5 -42.5 -48.5s-22 -32 -29 -48s-10.5 -32 -10.5 -48v-3c0 -10 2.33301 -20.333 7 -31s11 -20.167 19 -28.5s17 -15.333 27 -21s20.333 -8.5 31 -8.5h2
zM91.999 631.002c0 12.667 3.66699 24.666 11 35.999s15.666 17 24.999 17h1c8 -0.666992 15.333 -4 22 -10s12.334 -13.667 17.001 -23s8.5 -19.666 11.5 -30.999s4.83301 -22.333 5.5 -33l3 -20l-1 -17c-2.66699 -28 -13 -62.333 -31 -103s-39.333 -82.667 -64 -126v310z
M3.99902 -348.999c-7.33301 0 -14.666 2 -21.999 6s-14 9.16699 -20 15.5s-10.833 13.333 -14.5 21s-5.5 15.167 -5.5 22.5v1c0 14 3.33301 28.333 10 43s15.667 29.5 27 44.5s24.666 30.167 39.999 45.5l49 47v-176c0 -8 -1.83301 -16.167 -5.5 -24.5
s-8.5 -15.833 -14.5 -22.5s-12.833 -12.167 -20.5 -16.5s-15.5 -6.5 -23.5 -6.5z" />
    <glyph glyph-name="g" unicode="g" horiz-adv-x="469" 
d="M98 -4c34 0 64.3359 9.16797 91.0029 27.501s50 41.833 70 70.5v-167l-10 -8c-37.333 -31.333 -68.5 -61.833 -93.5 -91.5s-38.167 -63.167 -39.5 -100.5c0 -10 2 -21 6 -33s9.5 -23 16.5 -33s15.333 -18.333 25 -25s20.167 -10 31.5 -10h1c14.667 0 27.5 3.5 38.5 10.5
s20 15.667 27 26s12.333 21.333 16 33s5.5 22.167 5.5 31.5l2 190l10 9c32 27.333 64.667 57.5 98 90.5s61.666 71.167 84.999 114.5c0.666992 1.33301 1 3.33301 1 6c0 4.66699 -2.33301 8.66699 -7 12h-4c-2.66699 0 -5.33398 -0.5 -8.00098 -1.5
s-4.33398 -3.16699 -5.00098 -6.5c-19.333 -36 -42.5 -68.167 -69.5 -96.5s-54.5 -54.5 -82.5 -78.5l-18 -16l1 336v1c0 3.33301 -1.33301 6.16602 -4 8.49902s-5.66699 3.5 -9 3.5c-34 0 -68 -4.33301 -102 -13s-64.833 -21.167 -92.5 -37.5s-50.167 -36 -67.5 -59
s-26 -48.5 -26 -76.5c0 -14 3.16699 -28 9.5 -42s14.666 -26.5 24.999 -37.5s22.333 -20 36 -27s27.834 -10.5 42.501 -10.5zM256.003 140.001c-21.333 -35.333 -44.667 -64.1631 -70 -86.4961s-54.666 -33.5 -87.999 -33.5c-11.333 0 -22.333 2.66699 -33 8
s-20.167 12.333 -28.5 21s-15 18.667 -20 30s-7.5 22.666 -7.5 33.999c0 22.667 7.16699 43.5 21.5 62.5s33.166 35.667 56.499 50s50 25.666 80 33.999s61 13.166 93 14.499l-1 -131c-0.666992 0 -1 -0.333008 -1 -1s-0.666992 -1.33398 -2 -2.00098zM195.002 -349.996
c-6.66699 0 -13.166 2.33301 -19.499 7s-12 10.5 -17 17.5s-9 14.833 -12 23.5s-4.5 17.334 -4.5 26.001v3c0 28.667 9.5 55.167 28.5 79.5s42.833 49.166 71.5 74.499l17 15v-169c0 -7.33301 -1.33301 -15.5 -4 -24.5s-6.83398 -17.333 -12.501 -25
s-12.5 -14.167 -20.5 -19.5s-17 -8 -27 -8z" />
    <glyph glyph-name="h" unicode="h" horiz-adv-x="534" 
d="M386 -4c16.667 0 32.3301 4 46.9971 12s28 18 40 30s23 25 33 39s19 27.333 27 40h-2c4 4.66699 6.66699 8.16699 8 10.5s2.66602 5.16602 3.99902 8.49902c0.666992 0.666992 1 2.33398 1 5.00098c0 5.33301 -1.66699 8.66602 -5 9.99902c-2 1.33301 -4.66699 2 -8 2
c-2 0 -3.83301 -0.166992 -5.5 -0.5s-3.16699 -2.16602 -4.5 -5.49902l2 2l-10 -13c-8.66699 -14.667 -17.5 -28.5 -26.5 -41.5s-17.5 -24.167 -25.5 -33.5c-11.333 -12 -23.166 -21.833 -35.499 -29.5s-25.5 -11.5 -39.5 -11.5c-11.333 0 -21.666 5.5 -30.999 16.5
s-14 22.5 -14 34.5v145c0 6.66699 -0.666992 14.834 -2 24.501s-3.66602 19 -6.99902 28s-8.33301 16.667 -15 23s-15.334 9.5 -26.001 9.5c-18.667 0 -36.167 -3.33301 -52.5 -10s-32 -15.5 -47 -26.5s-29.167 -23.333 -42.5 -37l-39 -40.5
c-3.33301 -3.33301 -6.5 -6.66602 -9.5 -9.99902s-6.16699 -6.66602 -9.5 -9.99902v90l19 32c28 44 51.167 90 69.5 138s27.5 98 27.5 150c0 12 -1.66699 26.167 -5 42.5s-8.16602 31.833 -14.499 46.5s-14 27.167 -23 37.5s-19.5 15.5 -31.5 15.5
c-13.333 0 -24 -3.5 -32 -10.5s-14.667 -15.5 -20 -25.5c-9.33301 -18.667 -14 -42.667 -14 -72v-347l-11 -14l-19.5 -32c-6.33301 -10.667 -13.166 -21.334 -20.499 -32.001l-14 -21c-4.66699 -6.66699 -9 -13.667 -13 -21h1c-2 -2 -3 -4.33301 -3 -7
c0 -2 0.5 -4.16699 1.5 -6.5s2.83301 -3.83301 5.5 -4.5c2 -1.33301 4 -2 6 -2c3.33301 0 5.5 0.666992 6.5 2s2.16699 3 3.5 5l-1 -1l34 51l24 38v-78c-0.666992 -0.666992 -1 -1.66699 -1 -3v-1c0 -4 0.333008 -6.33301 1 -7v-121c0 -8.66699 4 -13 12 -13
c2.66699 0 5.33398 1 8.00098 3s4 5.33301 4 10v124l19 19.5l19 20.5l25.5 27c8.33301 8.66699 17.166 17.334 26.499 26.001c16.667 15.333 34 27.666 52 36.999s37.333 14 58 14c9.33301 0 15.833 -6.66699 19.5 -20s5.5 -27 5.5 -41v-145c0 -8 1.83301 -16.333 5.5 -25
s8.5 -16.834 14.5 -24.501s13.333 -13.834 22 -18.501s18 -7 28 -7zM90.9961 611c0 11.333 1.33203 22.332 3.99902 32.999s5.66699 20.334 9 29.001c6.66699 14 16.334 21 29.001 21c5.33301 0 10.833 -3.16699 16.5 -9.5s11.167 -15.833 16.5 -28.5
c5.33301 -13.333 9.5 -27 12.5 -41s4.5 -26.667 4.5 -38c0 -46.667 -8.66699 -92.5 -26 -137.5s-39.333 -89.167 -66 -132.5v304z" />
    <glyph glyph-name="i" unicode="i" horiz-adv-x="223" 
d="M75 -4c18 0 33.6699 3 47.0029 9s25.666 14 36.999 24s21.666 21.667 30.999 35l29 43l11 23c2 2 3 4.33301 3 7c0 2 -0.5 3.66699 -1.5 5s-1.83301 2.66602 -2.5 3.99902c-2 2 -4.33301 3 -7 3c-5.33301 0 -8.66602 -1.66699 -9.99902 -5
c-3.33301 -3.33301 -5.83301 -6.5 -7.5 -9.5s-3.16699 -5.5 -4.5 -7.5l2 2c-11.333 -17.333 -21.833 -32.666 -31.5 -45.999s-19.334 -24.666 -29.001 -33.999s-19.834 -16.5 -30.501 -21.5s-22.667 -7.5 -36 -7.5c-5.33301 0 -11 1.66699 -17 5s-11.5 7.66602 -16.5 12.999
s-9 11.333 -12 18s-4.5 13.667 -4.5 21v207c0 8.66699 -4.33301 13 -13 13c-8 0 -12 -4.33301 -12 -13v-207c-0 -10 2.33301 -20 7 -30s10.5 -18.667 17.5 -26s15 -13.333 24 -18s17.833 -7 26.5 -7zM13.0029 431c4.66699 0 9 1.99805 13 5.99805s6 8.33301 6 13s-2 9 -6 13
s-8.33301 6 -13 6c-4 0 -8.33301 -2 -13 -6c-3.33301 -3.33301 -5 -7.66602 -5 -12.999s1.66699 -9.66602 5 -12.999c4.66699 -4 9 -6 13 -6z" />
    <glyph glyph-name="j" unicode="j" horiz-adv-x="273" 
d="M-2 -376l1.99707 -0.000976562c12 0 23.333 3.16699 34 9.5s20 14.333 28 24s14.333 20.334 19 32.001s7 22.834 7 33.501v203l7 5l102 97c34 33.333 62 68.333 84 105h-1c2 2 3 4.33301 3 7c0 5.33301 -2.66699 9 -8 11c-1.33301 1.33301 -3 2 -5 2
c-6 0 -10 -2.33301 -12 -7v1c-20 -34 -43.5 -65.333 -70.5 -94s-54.833 -56 -83.5 -82l-16 -12l3 338c0 4.66699 -1.33301 8 -4 10s-5.66699 3 -9 3c-8.66699 0 -13 -3.66699 -13 -11s-2.5 -17.333 -7.5 -30s-11.167 -26.5 -18.5 -41.5s-15.666 -29.833 -24.999 -44.5
s-18.333 -27.667 -27 -39c-1.33301 -1.33301 -2.16602 -2.83301 -2.49902 -4.5s-0.5 -2.83398 -0.5 -3.50098c0 -2.66699 0.166992 -4.66699 0.5 -6s2.16602 -2.66602 5.49902 -3.99902c2 -1.33301 3.66699 -2 5 -2c2.66699 0 4.5 0.5 5.5 1.5l3.5 3.5
c10.667 12 21.334 26.833 32.001 44.5s20.334 35.167 29.001 52.5l-1 -290l-17 -16c-18.667 -16.667 -36.167 -33.167 -52.5 -49.5s-30.5 -32.333 -42.5 -48s-21.5 -31.334 -28.5 -47.001s-10.5 -31.167 -10.5 -46.5c0 -10.667 2.16699 -22 6.5 -34s10.333 -23.167 18 -33.5
s16.667 -19 27 -26s21.5 -10.833 33.5 -11.5zM-2.00293 -351.001c-8 0 -15.667 2.50098 -23 7.50098s-13.833 11.333 -19.5 19s-10.167 16.167 -13.5 25.5s-5 18.666 -5 27.999c0 13.333 3.33301 27 10 41s15.667 28.167 27 42.5s24.833 29 40.5 44l49.5 46.5l-1 -180
c0 -8 -1.83301 -16.5 -5.5 -25.5s-8.66699 -17 -15 -24s-13.333 -12.833 -21 -17.5s-15.5 -7 -23.5 -7zM73.9971 431c4.66699 0 9 2 13 6s6 8.33301 6 13s-2 9 -6 13s-8.33301 6 -13 6c-3.33301 0 -6.33301 -0.5 -9 -1.5s-4.33398 -3.16699 -5.00098 -6.5l1 2
c-4 -4 -6 -8.33301 -6 -13c0 -6 1.66699 -9.66699 5 -11c0.666992 -3.33301 2.33398 -5.5 5.00098 -6.5s5.66699 -1.5 9 -1.5z" />
    <glyph glyph-name="k" unicode="k" horiz-adv-x="452" 
d="M137 146l9.99707 -0.00488281h1c14.667 -9.33301 27.334 -21.166 38.001 -35.499l31 -41.5c13.333 -19.333 26.333 -36.166 39 -50.499s29.667 -21.833 51 -22.5h1c14 0 28.5 4.5 43.5 13.5s29.333 20.5 43 34.5s26.334 29.167 38.001 45.5s21.5 31.833 29.5 46.5v4
c0 4.66699 -2.33301 8.33398 -7 11.001l2 -1c-2 2 -4.66699 3 -8 3c-4.66699 0 -8 -2.33301 -10 -7c-7.33301 -14.667 -16.5 -29.667 -27.5 -45s-22.5 -28.666 -34.5 -39.999c-12.667 -12.667 -25.167 -22.667 -37.5 -30s-23.166 -11 -32.499 -11
c-14.667 0.666992 -27.5 7 -38.5 19s-22.167 26.667 -33.5 44l-25.5 35c-8.33301 12 -17.833 23.667 -28.5 35c25.333 7.33301 48.166 18.833 68.499 34.5s32.833 34.5 37.5 56.5v5c0 8 -2.33301 15.333 -7 22s-10.5 12.5 -17.5 17.5s-14.833 8.83301 -23.5 11.5
s-16.667 4 -24 4c-15.333 0 -31.5 -4.16699 -48.5 -12.5s-32.167 -17.5 -45.5 -27.5c-6 -3.33301 -11.5 -6.83301 -16.5 -10.5s-9.16699 -7.83398 -12.5 -12.501v10l5 8c32 50 59.5 102.5 82.5 157.5s34.5 111.5 34.5 169.5c0 12 -1.66699 25.333 -5 40
s-8.16602 28.167 -14.499 40.5s-14.333 22.833 -24 31.5s-20.834 13 -33.501 13c-11.333 0 -21.333 -3.16699 -30 -9.5s-16 -14.166 -22 -23.499s-10.5 -19.833 -13.5 -31.5s-4.5 -22.834 -4.5 -33.501v-352l-10 -15l-28 -43.5c-7.33301 -11.667 -14.333 -21.5 -21 -29.5
c-3.33301 -5.33301 -6.66602 -10.166 -9.99902 -14.499s-6.66602 -9.16602 -9.99902 -14.499c-1.33301 -1.33301 -2.16602 -2.83301 -2.49902 -4.5s-0.5 -2.83398 -0.5 -3.50098c0 -2.66699 0.166992 -4.66699 0.5 -6s2.16602 -2.66602 5.49902 -3.99902
c2 -1.33301 4 -2 6 -2c3.33301 0 6.66602 1.66699 9.99902 5c2 2.66699 3.83301 5.33398 5.5 8.00098l5.5 9c10 12.667 18.5 24.167 25.5 34.5s12.833 18.166 17.5 23.499h-2l8 10v-14v-1v-25v-1v-164c0 -8.66699 4 -13 12 -13c3.33301 0 6.33301 1 9 3s4 5.33301 4 10v142
c6.66699 -2 13.5 -3.33301 20.5 -4s15.167 -1 24.5 -1zM91.9971 612.995c0 18.667 4.33203 35.666 12.999 50.999s19.334 23 32.001 23c7.33301 0 14.166 -3 20.499 -9s11.833 -13.833 16.5 -23.5s8.33398 -20.5 11.001 -32.5s4 -24 4 -36
c0 -48.667 -9.16699 -97.167 -27.5 -145.5s-41.5 -95.166 -69.5 -140.499v313zM134.996 245.994c13.333 9.33301 26.666 17.1689 39.999 23.502s26.666 9.5 39.999 9.5c11.333 0 21.833 -3.16699 31.5 -9.5s14.5 -13.166 14.5 -20.499v-3
c-1.33301 -9.33301 -5.33301 -18 -12 -26s-15 -15.333 -25 -22s-21 -12.334 -33 -17.001s-24 -8 -36 -10c-0.666992 1.33301 -1.66699 2 -3 2h-1c-1.33301 0 -2.83301 -0.333008 -4.5 -1s-3.16699 -1.33398 -4.5 -2.00098h-11c-14.667 0 -27.667 2.33301 -39 7v23
c2.66699 5.33301 7.83398 12.166 15.501 20.499s16.834 16.833 27.501 25.5z" />
    <glyph glyph-name="l" unicode="l" horiz-adv-x="292" 
d="M144 -4c16.667 0 32.1592 3.83203 46.4922 11.499s27.333 17.334 39 29.001s22.334 24.667 32.001 39l27.5 41.5h-1l5.5 9c1.66699 2.66699 3.5 5.33398 5.5 8.00098c2 2 3 4.33301 3 7c0 4.66699 -2.33301 8.66699 -7 12c-2 0.666992 -4 1 -6 1
s-4.16699 -0.333008 -6.5 -1s-3.83301 -2.66699 -4.5 -6l1 2l-13 -18c-8.66699 -14.667 -17.5 -28.667 -26.5 -42s-18.333 -25.166 -28 -35.499s-20.167 -18.5 -31.5 -24.5s-23.333 -9 -36 -9c-9.33301 0 -17.166 3.5 -23.499 10.5s-11.5 15.833 -15.5 26.5
s-6.83301 22.5 -8.5 35.5s-2.5 25.5 -2.5 37.5v130l7 11c14.667 24.667 28.834 51 42.501 79s25.834 55.667 36.501 83s19 53.666 25 78.999s9 48 9 68c0 12 -1.5 26 -4.5 42s-7.66699 31.167 -14 45.5s-14.666 26.5 -24.999 36.5s-22.5 15 -36.5 15
c-9.33301 0 -17.666 -2.5 -24.999 -7.5s-13.5 -11.333 -18.5 -19s-9 -15.834 -12 -24.501s-4.5 -16.667 -4.5 -24l-5 -375l-7 -15v2c-15.333 -26 -29.666 -48.667 -42.999 -68s-24.666 -34 -33.999 -44c-2 -2 -3 -4.33301 -3 -7c0 -4 1.33301 -6.66699 4 -8
c2 -3.33301 5 -5 9 -5c2.66699 0 5.66699 1.66699 9 5l31 39c10.667 14 21 29 31 45l3 4l-1 -80c0 -12 1 -26 3 -42s5.83301 -31.333 11.5 -46s13.5 -27.167 23.5 -37.5s22.667 -15.5 38 -15.5zM97.9922 643.999c0 11.333 3.66504 22.4961 10.998 33.4961
s15.666 16.5 24.999 16.5c8.66699 0 16.334 -3.66699 23.001 -11s12.334 -16.666 17.001 -27.999s8.33398 -23.666 11.001 -36.999s4 -26 4 -38c0 -16.667 -2.5 -35.5 -7.5 -56.5s-11.833 -43.167 -20.5 -66.5s-18.5 -47.166 -29.5 -71.499s-22.833 -48.166 -35.5 -71.499v2
l-1 -3z" />
    <glyph glyph-name="m" unicode="m" horiz-adv-x="744" 
d="M142 -4c8 0 11.9951 4.33301 11.9951 13v155l14 20c18 28 36.5 49.833 55.5 65.5s39.5 23.5 61.5 23.5c10 0 19.167 -6 27.5 -18s12.5 -24 12.5 -36v-210c0 -8.66699 4.33301 -13 13 -13c3.33301 0 6.33301 1 9 3s4 5.33301 4 10v144l13 18c16 23.333 34 45 54 65
c12 12.667 23.167 22.667 33.5 30s18.833 11 25.5 11c13.333 0 24.5 -6.33301 33.5 -19s13.5 -26.334 13.5 -41.001v-153c2 -13.333 5.33301 -24.5 10 -33.5s10.334 -16 17.001 -21s14 -8.5 22 -10.5s16 -3 24 -3h1c18 0 34.833 4.66699 50.5 14s30 21 43 35
s24.667 29 35 45s18.833 30.667 25.5 44c1.33301 1.33301 2 3.33301 2 6c0 2 -0.833008 4 -2.5 6s-3.16699 3.66699 -4.5 5h-5c-2 0 -4.33301 -0.333008 -7 -1s-4.66699 -2.66699 -6 -6c-7.33301 -13.333 -15.5 -27.333 -24.5 -42s-19.167 -28 -30.5 -40
s-23.5 -22 -36.5 -30s-26.5 -12 -40.5 -12c-10 0 -19.5 2.5 -28.5 7.5s-15.5 16.167 -19.5 33.5l-1 8v148c0 8.66699 -1.66699 18.167 -5 28.5s-8 19.666 -14 27.999s-13.333 15.333 -22 21s-18.667 8.5 -30 8.5s-23.833 -5 -37.5 -15s-26.5 -21.667 -38.5 -35
c-8 -8 -16.333 -17 -25 -27s-17 -20.667 -25 -32v25c0 8 -1.66699 16.5 -5 25.5s-8 17.333 -14 25s-13 14.167 -21 19.5s-16.667 8 -26 8c-27.333 0 -52.166 -8.16699 -74.499 -24.5s-41.166 -36.833 -56.499 -61.5v33c0 11.333 -4 23 -12 35s-19 18 -33 18
c-11.333 0 -22.666 -6.16699 -33.999 -18.5s-21.333 -25.5 -30 -39.5h2c-8 -11.333 -15.167 -22.166 -21.5 -32.499l-17.5 -29.5l-12 -19.5l-8 -13.5c-2 -2 -3 -4.33301 -3 -7c0 -2 0.5 -4.16699 1.5 -6.5s2.83301 -3.83301 5.5 -4.5c2 -1.33301 4 -2 6 -2
c4.66699 0 8.33398 2.33301 11.001 7l8 14.5c2 3.66699 4.33301 7.16699 7 10.5l20 34.5c6.66699 11.667 13.667 22.834 21 33.501c23.333 32.667 38 49 44 49c5.33301 0 10 -3 14 -9s6 -12.667 6 -20v-235c0 -8.66699 4.33301 -13 13 -13z" />
    <glyph glyph-name="n" unicode="n" horiz-adv-x="544" 
d="M398 -4c18 0 34.832 4.16504 50.499 12.498s30 19.166 43 32.499s24.667 27.833 35 43.5s19.5 31.167 27.5 46.5v5c0 2.66699 -2.33301 7 -7 13h-5c-2 0 -4.16699 -0.5 -6.5 -1.5s-3.83301 -3.16699 -4.5 -6.5c-8 -14.667 -16.833 -29.167 -26.5 -43.5
s-20 -27.333 -31 -39s-22.833 -21 -35.5 -28s-26 -10.5 -40 -10.5c-11.333 0 -22 3.83301 -32 11.5s-15 18.167 -15 31.5v147c0 8.66699 -1.66699 18.334 -5 29.001s-8 20.667 -14 30s-13.5 17 -22.5 23s-19.167 9 -30.5 9c-13.333 0 -25.833 -2.66699 -37.5 -8
s-22.5 -12.5 -32.5 -21.5s-19.5 -19.167 -28.5 -30.5s-17.5 -23 -25.5 -35l-8 -13v71c0 2.66699 -0.166992 5.66699 -0.5 9s-2.16602 6.66602 -5.49902 9.99902c-6 6.66699 -15.667 10 -29 10c-12 0 -23.5 -6.16699 -34.5 -18.5s-21.167 -25.833 -30.5 -40.5l-18 -25
l-25 -40c-7.33301 -12 -12.666 -20.333 -15.999 -25c-1.33301 -1.33301 -2.16602 -2.83301 -2.49902 -4.5s-0.5 -2.83398 -0.5 -3.50098c0 -2.66699 0.166992 -4.66699 0.5 -6s2.16602 -2.66602 5.49902 -3.99902c2 -1.33301 4 -2 6 -2c3.33301 0 6.66602 1.66699 9.99902 5
l25 35.5c6 8.33301 10.333 14.5 13 18.5l5 7.5c0.666992 1 0.666992 1.5 0 1.5l0.5 1c0.333008 0.666992 1.5 2.66699 3.5 6l13 21h-2c11.333 15.333 21 27.666 29 36.999c8 8 14 12 18 12h8c0.666992 0 1.33398 -0.666992 2.00098 -2v-107v-1v-150
c0 -8.66699 4.33301 -13 13 -13c8 0 12 4.33301 12 13v144c3.33301 4 7 9 11 15s8.33301 12 13 18l23 31c8 10.667 16.5 20.334 25.5 29.001s18.333 15.834 28 21.501s20.167 8.5 31.5 8.5c6.66699 0 13 -2 19 -6s11.167 -9.16699 15.5 -15.5s7.66602 -13.5 9.99902 -21.5
s3.5 -15.667 3.5 -23v-147c0 -11.333 2.16699 -21.166 6.5 -29.499s10 -15.166 17 -20.499s14.667 -9.5 23 -12.5s16.5 -4.5 24.5 -4.5z" />
    <glyph glyph-name="o" unicode="o" horiz-adv-x="448" 
d="M342 74c20.667 0 40.666 4.33203 59.999 12.999s37 23.334 53 44.001c1.33301 1.33301 2.16602 3 2.49902 5s0.5 3.33301 0.5 4c0 2 -0.166992 3.83301 -0.5 5.5s-2.16602 3.16699 -5.49902 4.5l1 -1c-2 1.33301 -4.33301 2 -7 2c-4 0 -7.33301 -1.33301 -10 -4
c-12 -17.333 -26.5 -29.666 -43.5 -36.999s-34.5 -11 -52.5 -11c-7.33301 0 -14.5 0.333008 -21.5 1s-14.5 2 -22.5 4c4 12.667 6 26 6 40c0 21.333 -4.16699 41.166 -12.5 59.499s-19.666 34.333 -33.999 48s-31.166 24.5 -50.499 32.5s-40 12 -62 12s-42.5 -4 -61.5 -12
s-35.667 -18.833 -50 -32.5s-25.666 -29.667 -33.999 -48s-12.5 -38.166 -12.5 -59.499s4.16699 -41 12.5 -59s19.666 -33.833 33.999 -47.5s31 -24.334 50 -32.001s39.5 -11.5 61.5 -11.5c32.667 0 61.667 8 87 24s44.666 37 57.999 63c16 -4.66699 34 -7 54 -7z
M142.999 18.999c-18.667 0 -36.168 3.33496 -52.501 10.002s-30.5 15.667 -42.5 27s-21.5 24.5 -28.5 39.5s-10.5 31.167 -10.5 48.5s3.5 33.666 10.5 48.999s16.5 28.666 28.5 39.999s26.167 20.333 42.5 27s33.833 10 52.5 10c6.66699 0 13 -0.333008 19 -1
s12 -2.33398 18 -5.00098c-9.33301 -7.33301 -15.666 -16.166 -18.999 -26.499s-5 -20.833 -5 -31.5s2.83301 -21.5 8.5 -32.5s13.5 -21.5 23.5 -31.5s21.5 -19.5 34.5 -28.5s26.5 -16.833 40.5 -23.5c-10.667 -20.667 -26.667 -37.667 -48 -51s-45.333 -20 -72 -20z
M277.998 144.001c0 -9.33301 -1.66699 -19.666 -5 -30.999c-27.333 11.333 -49.333 26 -66 44s-25 34.333 -25 49c0 9.33301 1.83301 18.333 5.5 27s10.5 15.667 20.5 21c20.667 -10.667 37.5 -25.834 50.5 -45.501s19.5 -41.167 19.5 -64.5z" />
    <glyph glyph-name="p" unicode="p" horiz-adv-x="519" 
d="M367 -3c16.667 0 32.1631 3.8291 46.4961 11.4961s27.333 17.334 39 29.001s22.334 24.334 32.001 38.001l26.5 38.5c1.33301 2.66699 3.5 6.16699 6.5 10.5s5.5 8.16602 7.5 11.499s3.16699 5.33301 3.5 6s-1.16699 -1 -4.5 -5v3c0 2 -0.5 3.83301 -1.5 5.5
s-2.16699 3.16699 -3.5 4.5c-1.33301 2 -3.66602 3 -6.99902 3c-2 0 -4.16699 -0.5 -6.5 -1.5s-3.83301 -2.83301 -4.5 -5.5l1 1c-2.66699 -4 -5.83398 -8.33301 -9.50098 -13s-7.16699 -9.66699 -10.5 -15c-6.66699 -9.33301 -12.834 -18.833 -18.501 -28.5
s-12.834 -18.834 -21.501 -27.501c-11.333 -12 -23.166 -22 -35.499 -30s-25.5 -12 -39.5 -12c-5.33301 0 -10.833 1.66699 -16.5 5s-10.667 7.5 -15 12.5s-7.83301 10.5 -10.5 16.5s-4 12 -4 18v158c0 8.66699 -2 18 -6 28s-9.33301 19 -16 27s-14.334 14.667 -23.001 20
s-18 8 -28 8s-20.167 -2.66699 -30.5 -8s-20.166 -12.333 -29.499 -21s-18.5 -18.667 -27.5 -30s-17.5 -22.666 -25.5 -33.999c-10 -15.333 -19.167 -30.166 -27.5 -44.499l-22.5 -39.5v169c0 7.33301 -3.66699 11 -11 11c-2.66699 0 -5.16699 -0.5 -7.5 -1.5
s-4.16602 -3.16699 -5.49902 -6.5c-6.66699 -34 -15.5 -65 -26.5 -93s-26.167 -51.333 -45.5 -70l2 1c-3.33301 -1.33301 -5.16602 -3 -5.49902 -5s-0.5 -3.66699 -0.5 -5s0.166992 -3 0.5 -5s2.16602 -3.66699 5.49902 -5c2 -2 4.33301 -3 7 -3l2.5 1
c1.66699 0.666992 3.16699 1.33398 4.5 2.00098c11.333 12 21.833 25.167 31.5 39.5s17.834 29.833 24.501 46.5v-609c0 -8.66699 4.33301 -13 13 -13c7.33301 0 11 4.33301 11 13v479l12.5 24.5l17 31.5l19.5 34.5c6.66699 11.667 13.667 22.834 21 33.501
c16 23.333 31.833 42.833 47.5 58.5s30.834 23.5 45.501 23.5c11.333 0 22 -6.16699 32 -18.5s15 -25.5 15 -39.5v-158c0 -8.66699 2 -17.5 6 -26.5s9.33301 -17.167 16 -24.5s14.334 -13.333 23.001 -18s17.667 -7 27 -7z" />
    <glyph glyph-name="q" unicode="q" horiz-adv-x="416" 
d="M99 -4c34.667 0 65.165 7.83203 91.498 23.499s51.166 40.5 74.499 74.5v-484c0 -8.66699 4.33301 -13 13 -13c7.33301 0 11 4.33301 11 13v399c27.333 7.33301 52.333 20.833 75 40.5s43 48.5 61 86.5c0.666992 0.666992 1 2.33398 1 5.00098
c0 3.33301 -0.666992 5.5 -2 6.5s-2.66602 1.83301 -3.99902 2.5c-1.33301 2 -3.66602 3 -6.99902 3c-2 0 -4 -0.833008 -6 -2.5s-3.66699 -3.16699 -5 -4.5c-16 -33.333 -33.5 -58.666 -52.5 -75.999s-39.167 -29.333 -60.5 -36v105v1v149v4v3
c-0.666992 6.66699 -4.33398 10 -11.001 10c-27.333 0 -58 -3.33301 -92 -10s-65.833 -17.167 -95.5 -31.5s-54.667 -33.166 -75 -56.499s-30.5 -51.666 -30.5 -84.999c0 -20.667 3.16699 -38.834 9.5 -54.501s14.833 -28.834 25.5 -39.501s22.834 -18.834 36.501 -24.501
s27.834 -8.5 42.501 -8.5zM98.998 20.999l-2.99902 -0.00292969c-10.667 0 -21.167 2.16699 -31.5 6.5s-19.666 10.833 -27.999 19.5s-15 19.334 -20 32.001s-7.5 27.334 -7.5 44.001c0 26.667 8.33301 49.834 25 69.501s37.667 35.834 63 48.501s53 22.167 83 28.5
s58.333 10.166 85 11.499v-141c-24.667 -43.333 -49.834 -74 -75.501 -92s-55.834 -27 -90.501 -27z" />
    <glyph glyph-name="r" unicode="r" horiz-adv-x="358" 
d="M205 -3c19.333 0 36.8369 4.33301 52.5039 13s30 19.667 43 33s24.833 27.833 35.5 43.5l30 43.5c0 0.666992 0.333008 1.83398 1 3.50098s1 2.83398 1 3.50098c0 4.66699 -2.66699 8.66699 -8 12c-1.33301 0.666992 -3 1 -5 1c-6.66699 0 -10.667 -2.33301 -12 -7v1
l-29 -42.5c-10 -14.333 -20.667 -27.5 -32 -39.5s-23.333 -21.833 -36 -29.5s-26.334 -11.5 -41.001 -11.5c-6.66699 0 -13.667 1.66699 -21 5s-14 7.66602 -20 12.999s-11 11.333 -15 18s-6 13.334 -6 20.001c0 18.667 2.33301 36.5 7 53.5l13 46.5l9 31.5
c2.66699 9.66699 4 19.167 4 28.5v3c-0.666992 5.33301 -3.33398 10 -8.00098 14s-9 7.33301 -13 10c-1.33301 1.33301 -2.66602 2.5 -3.99902 3.5s-2.33301 1.83301 -3 2.5c-4 2 -8 4.16699 -12 6.5s-8.33301 4.5 -13 6.5l2 -2c-2.66699 1.33301 -5 2.66602 -7 3.99902
l-6 4l-7 4l1 1c6 16.667 9 32 9 46c0 12 -4.5 21 -13.5 27s-17.5 9 -25.5 9h-3c-10.667 -1.33301 -19.167 -6.5 -25.5 -15.5s-9.5 -18.167 -9.5 -27.5c0 -14 7 -26.333 21 -37l16 -13l-2 -7c-8.66699 -22.667 -20.334 -45.667 -35.001 -69s-31 -43.666 -49 -60.999
c-2.66699 -2.66699 -4 -5.66699 -4 -9c0 -4.66699 1.33301 -7.33398 4 -8.00098c1.33301 -3.33301 4.33301 -5 9 -5c2 0 4.66699 1.66699 8 5c19.333 19.333 36.833 41.333 52.5 66s28.167 48.667 37.5 72v2h3c3.33301 -1.33301 6 -2.83301 8 -4.5s4.66699 -3.16699 8 -4.5
s7.33301 -3.5 12 -6.5s8.66699 -6.16699 12 -9.5c7.33301 -3.33301 11 -5.66602 11 -6.99902l2 -1l-2 -13c-0.666992 -5.33301 -2.16699 -11.833 -4.5 -19.5l-7.5 -24.5c-5.33301 -14.667 -10 -30.334 -14 -47.001s-6 -35 -6 -55c0 -10 2.83301 -19.833 8.5 -29.5
s12.667 -18.334 21 -26.001s17.666 -13.667 27.999 -18s20.166 -6.5 29.499 -6.5zM62.0039 333c0 3.33301 1.33398 6.83301 4.00098 10.5s5.66699 6.16699 9 7.5c3.33301 0 6.66602 -1 9.99902 -3s5 -4.66699 5 -8s-0.333008 -7.33301 -1 -12s-2 -9.66699 -4 -15l-2 -6l-8 7
c-8.66699 4.66699 -13 11 -13 19z" />
    <glyph glyph-name="s" unicode="s" horiz-adv-x="351" 
d="M135 -3c17.333 0 34.333 6.33203 51 18.999s29.334 28.667 38.001 48l7 13h3c24 1.33301 47.333 5.33301 70 12s41 20.667 55 42c0 1.33301 0.333008 2.5 1 3.5s1 1.83301 1 2.5c0 4.66699 -2.33301 8.66699 -7 12l1 -2c-2 2 -4.33301 3 -7 3
c-4.66699 0 -9.33398 -3 -14.001 -9c-9.33301 -14 -22.5 -23.833 -39.5 -29.5s-35.5 -8.5 -55.5 -8.5l2 4l2 10.5c0.666992 3.66699 1 7.83398 1 12.501c0 10 -3 19.333 -9 28s-13.5 16.834 -22.5 24.501s-19.167 14.834 -30.5 21.501l-33 19l-11 6l1 -2l-7 4.5l-7 4.5
c-5.33301 2.66699 -12 6.5 -20 11.5s-13.667 8.83301 -17 11.5c7.33301 12 13 23.833 17 35.5s6 22.167 6 31.5c-1.33301 12.667 -7.33301 22.5 -18 29.5s-21 10.5 -31 10.5h-3c-10.667 -1.33301 -19.5 -7.16602 -26.5 -17.499s-10.5 -19.833 -10.5 -28.5
c0 -14.667 3.33301 -26.834 10 -36.501s15 -18.834 25 -27.501l-8 -12l-11 -17.5l-11 -17.5l-8.5 -14l-7.5 -12.5l-9.5 -15.5l-14.5 -24l1 1c-2 -2 -3 -4.33301 -3 -7c0 -2 0.5 -4.16699 1.5 -6.5s2.83301 -3.83301 5.5 -4.5h5c3.33301 0 7.33301 2.33301 12 7
c10 18 20.667 35 32 51l16.5 24.5l16.5 24.5l3 6c8.66699 -6.66699 17 -12.5 25 -17.5s16.667 -9.83301 26 -14.5h-1c28 -16.667 50.167 -30.834 66.5 -42.501s24.5 -23.167 24.5 -34.5v-9c0 -2 -0.333008 -4.66699 -1 -8l-5 -10l-23 -2h-15
c-13.333 0 -25.5 -0.166992 -36.5 -0.5s-20.833 -1.5 -29.5 -3.5c-12 -3.33301 -21.833 -8.83301 -29.5 -16.5s-11.5 -19.167 -11.5 -34.5c0 -8 2.33301 -15 7 -21s10.5 -11.167 17.5 -15.5s14.5 -7.5 22.5 -9.5s15 -3 21 -3zM135 20.999c-10 0 -19.834 2.5 -29.501 7.5
s-14.5 10.833 -14.5 17.5c0 14 8 23 24 27c8 2 17 3.16699 27 3.5s20.667 0.5 32 0.5h28l-1 -3c-7.33301 -15.333 -17.166 -28 -29.499 -38s-24.5 -15 -36.5 -15zM47.999 319.999c0 4.66699 1.5 9.00098 4.5 13.001s6.16699 6.33301 9.5 7h5c4 0 8 -1.5 12 -4.5
s6 -6.16699 6 -9.5v-5c0 -5.33301 -1.33301 -11.5 -4 -18.5s-6 -14.833 -10 -23.5v1l-3 -3l-6 6c-5.33301 5.33301 -9 11.166 -11 17.499s-3 12.833 -3 19.5zM86.999 260v-1c-1.33301 0.666992 -1.33301 1 0 1z" />
    <glyph glyph-name="t" unicode="t" horiz-adv-x="286" 
d="M-7 353l70.998 0.000976562v-102c-10.667 -20.667 -22.334 -39.5 -35.001 -56.5s-25.667 -33.167 -39 -48.5c-2 -2 -3 -4.33301 -3 -7c0 -5.33301 1.33301 -8.66602 4 -9.99902c1.33301 -1.33301 3 -2.16602 5 -2.49902s3.33301 -0.5 4 -0.5
c3.33301 0 6.33301 1.33301 9 4c19.333 22.667 37.666 47 54.999 73v-133c0 -12.667 2.66699 -23.5 8 -32.5s12 -16.5 20 -22.5s16.833 -10.5 26.5 -13.5s18.834 -4.5 27.501 -4.5c18 0 33.667 3.66699 47 11s25.833 17 37.5 29s22.5 26.167 32.5 42.5l31 51.5
c0 1.33301 0.333008 2.66602 1 3.99902s1 2.66602 1 3.99902c0 3.33301 -2.33301 6.66602 -7 9.99902l1 -2c-2 2 -4.33301 3 -7 3c-2 0 -4.16699 -0.333008 -6.5 -1s-4.16602 -2.66699 -5.49902 -6c-20.667 -37.333 -40 -67 -58 -89s-40.333 -33 -67 -33
c-13.333 0 -26.166 4.33301 -38.499 13s-18.5 20.667 -18.5 36v283h90c2.66699 0 5.33398 1 8.00098 3s4 4.66699 4 8s-1.33301 6.33301 -4 9s-5.33398 4 -8.00098 4h-90v197c0 3.33301 -1.16699 6.33301 -3.5 9s-5.16602 4 -8.49902 4s-6.33301 -1.33301 -9 -4
s-4 -5.66699 -4 -9v-197h-71c-3.33301 0 -6.33301 -1.33301 -9 -4s-4 -5.66699 -4 -9c0 -7.33301 4.33301 -11 13 -11z" />
    <glyph glyph-name="u" unicode="u" horiz-adv-x="460" 
d="M320 -3c19.333 0 36.0049 4.33496 50.0049 13.002s26.667 19.667 38 33c10.667 13.333 19.667 25.333 27 36l21 31c2 3.33301 4.16699 6.66602 6.5 9.99902s4.5 6.66602 6.5 9.99902h-1c1.33301 2 2 4.33301 2 7c0 5.33301 -2.33301 9.33301 -7 12
c-2 0.666992 -3.66699 1 -5 1c-2.66699 0 -4.83398 -0.5 -6.50098 -1.5s-2.83398 -1.83301 -3.50098 -2.5c-1.33301 -2.66699 -2.83301 -4.66699 -4.5 -6s-3.16699 -3.33301 -4.5 -6l-27 -43c-8.66699 -13.333 -16 -23.666 -22 -30.999
c-10 -11.333 -20.667 -20.666 -32 -27.999s-24 -11 -38 -11c-6 0 -12.333 1.33301 -19 4s-12.834 6.16699 -18.501 10.5s-10.334 9.16602 -14.001 14.499s-5.5 11 -5.5 17v103v4v120c0 8.66699 -3.66699 13 -11 13c-8.66699 0 -13 -4.33301 -13 -13v-118v-2v-3
c-1.33301 -6 -6.66602 -16.333 -15.999 -31h2c-6 -8.66699 -12.667 -17.5 -20 -26.5s-15.666 -18.167 -24.999 -27.5c-17.333 -17.333 -35.833 -32.5 -55.5 -45.5s-37.167 -19.5 -52.5 -19.5c-6.66699 0 -13.667 1.66699 -21 5s-14.166 8 -20.499 14
s-11.5 13.167 -15.5 21.5s-6 17.5 -6 27.5v207c0 2.66699 -1.33301 5.5 -4 8.5s-5.66699 4.5 -9 4.5s-6 -1.5 -8 -4.5s-3 -5.83301 -3 -8.5v-207c0 -14 2.66699 -26.667 8 -38s12.333 -21 21 -29s18 -14.167 28 -18.5s20 -6.5 30 -6.5c20.667 0 42 7.16699 64 21.5
s42.667 31.166 62 50.499c7.33301 7.33301 14.666 15.5 21.999 24.5s13.666 17.5 18.999 25.5v-52c0 -9.33301 2.66699 -18.333 8 -27s12.166 -16.167 20.499 -22.5s17.166 -11.333 26.499 -15s18 -5.5 26 -5.5z" />
    <glyph glyph-name="v" unicode="v" horiz-adv-x="553" 
d="M256 -3c32 0 58.5029 9.16406 79.5029 27.4971s36.5 40.166 46.5 65.499l1 3l3 -2c10 -5.33301 20.667 -9.16602 32 -11.499s22.666 -3.5 33.999 -3.5c30.667 0 53.834 5.66699 69.501 17s28.5 24.666 38.5 39.999c1.33301 1.33301 2.16602 2.83301 2.49902 4.5
s0.5 2.83398 0.5 3.50098c0 5.33301 -1.66699 8.66602 -5 9.99902l1 -1c-2 2 -4.33301 3 -7 3c-2 0 -4 -0.5 -6 -1.5s-3.33301 -1.83301 -4 -2.5c-8.66699 -13.333 -19.5 -24.833 -32.5 -34.5s-32.167 -14.5 -57.5 -14.5c-20 0 -37.333 4.33301 -52 13l-8 4l1 3
c2.66699 8.66699 5 17.834 7 27.501s3.66699 19.167 5 28.5v13c0 9.33301 -1.16699 19.833 -3.5 31.5s-5.83301 22.5 -10.5 32.5s-10.834 18.5 -18.501 25.5s-16.834 10.5 -27.501 10.5c-8 0 -15.333 -2.5 -22 -7.5s-12.334 -11.333 -17.001 -19s-8.16699 -15.667 -10.5 -24
s-3.5 -15.833 -3.5 -22.5c0 -19.333 6.33301 -39 19 -59s28.667 -36.667 48 -50l3 -1l-3 -7c-9.33301 -21.333 -22.333 -39.666 -39 -54.999s-38 -23 -64 -23c-27.333 0 -50.666 10.833 -69.999 32.5s-29.666 50.5 -30.999 86.5c0 13.333 -0.166992 27.833 -0.5 43.5
s-1.16602 30.167 -2.49902 43.5s-5 26.166 -11 38.499s-16.333 18.5 -31 18.5c-10.667 0 -21.334 -5.83301 -32.001 -17.5s-20.667 -24.167 -30 -37.5l-10.5 -14c-3.66699 -4.66699 -6.83398 -9.66699 -9.50098 -15l1 1c-7.33301 -10 -14 -19.833 -20 -29.5
s-12.667 -18.167 -20 -25.5c-2.66699 -2.66699 -4 -5.66699 -4 -9c0 -4.66699 1.33301 -7.33398 4 -8.00098c1.33301 -1.33301 2.83301 -2.16602 4.5 -2.49902s3.16699 -0.5 4.5 -0.5c2 0 3.83301 0.166992 5.5 0.5s3.16699 1.83301 4.5 4.5l22.5 30
c7.66699 10.667 15.167 21.667 22.5 33c2.66699 3.33301 5 6.83301 7 10.5s4 6.83398 6 9.50098c22.667 30.667 37.334 46 44.001 46c9.33301 0 15.333 -11.333 18 -34c0.666992 -8 1 -16.333 1 -25v-27c0 -5.33301 0.166992 -11.166 0.5 -17.499s0.5 -12.166 0.5 -17.499
c1.33301 -42 13.666 -76.167 36.999 -102.5s53 -39.5 89 -39.5zM316.003 215.997c0 10.667 2.99902 21.332 8.99902 31.999s12.667 16 20 16c10.667 0 19 -7.5 25 -22.5s9 -30.833 9 -47.5v-13c-0.666992 -9.33301 -1.5 -18.166 -2.5 -26.499s-3.16699 -16.833 -6.5 -25.5
c-15.333 10.667 -28.166 24 -38.499 40s-15.5 31.667 -15.5 47z" />
    <glyph glyph-name="w" unicode="w" horiz-adv-x="793" 
d="M252 -3c25.333 0 45.4951 7.50098 60.4951 22.501s28.167 33.833 39.5 56.5c3.33301 9.33301 7 19 11 29s7 20.667 9 32c3.33301 -19.333 8.5 -37.5 15.5 -54.5s15.833 -31.833 26.5 -44.5s23 -22.667 37 -30s29.667 -11 47 -11c25.333 0 48.5 8.16699 69.5 24.5
s37.833 37.166 50.5 62.499l4 9l3 -2c10.667 -7.33301 21.834 -12.5 33.501 -15.5s24.167 -4.5 37.5 -4.5c25.333 0 47 5.83301 65 17.5s31.667 26.5 41 44.5c0.666992 0.666992 1 2.66699 1 6s-2.33301 6.66602 -7 9.99902c-2 0.666992 -4 1 -6 1
s-4.16699 -0.333008 -6.5 -1s-3.83301 -2.66699 -4.5 -6c-7.33301 -13.333 -17.666 -24.5 -30.999 -33.5s-30.666 -13.5 -51.999 -13.5s-41.333 6 -60 18l-4 2l1 3c5.33301 14 9.33301 28 12 42s4 27.333 4 40c0 10 -1.33301 20.833 -4 32.5s-6.5 22.334 -11.5 32.001
s-11.667 17.834 -20 24.501s-17.833 10 -28.5 10c-7.33301 0 -14.333 -2.66699 -21 -8s-12.334 -11.666 -17.001 -18.999s-8.33398 -15.166 -11.001 -23.499s-4 -15.833 -4 -22.5c0 -22 6 -43.667 18 -65s28 -38.666 48 -51.999l2 -4l-5 -10
c-10 -21.333 -23.5 -39.166 -40.5 -53.499s-35.833 -21.5 -56.5 -21.5c-18 0 -33.833 5.83301 -47.5 17.5s-25.167 27 -34.5 46s-16.5 41 -21.5 66s-7.83301 51.167 -8.5 78.5c-1.33301 6.66699 -5.66602 10 -12.999 10c-8.66699 0 -13 -4 -13 -12
c-2.66699 -25.333 -6.5 -50.333 -11.5 -75s-11.667 -46.667 -20 -66s-18.666 -35 -30.999 -47s-27.5 -18 -45.5 -18c-14 0 -27.167 4 -39.5 12s-23 18.5 -32 31.5s-16 28.167 -21 45.5s-7.5 35 -7.5 53v31c0 12 -0.666992 23.667 -2 35s-4.16602 22.166 -8.49902 32.499
s-12.166 15.5 -23.499 15.5s-22.666 -5.5 -33.999 -16.5l-34 -34.5l-25 -35l-36 -45c-2.66699 -2.66699 -4 -5.66699 -4 -9c0 -4.66699 1.33301 -7.33398 4 -8.00098c1.33301 -1.33301 2.83301 -2.16602 4.5 -2.49902s3.16699 -0.5 4.5 -0.5c2 0 3.83301 0.166992 5.5 0.5
s3.16699 1.83301 4.5 4.5l20 25.5l22 29.5c4 4 7.33301 8.16699 10 12.5s5.66699 8.16602 9 11.499c10.667 13.333 20.167 23.833 28.5 31.5s15.166 11.5 20.499 11.5c1.33301 0 2.5 -1.83301 3.5 -5.5s2.16699 -10.5 3.5 -20.5c0.666992 -4 1 -8.33301 1 -13v-13v-38
c0 -20.667 3.16699 -40.834 9.5 -60.501s15 -37.334 26 -53.001s24.167 -28.334 39.5 -38.001s32.333 -14.5 51 -14.5zM557.995 227.001c0 11.333 2.99902 22 8.99902 32s12 15 18 15c11.333 0 20.5 -7.66699 27.5 -23s10.5 -32 10.5 -50c0 -10.667 -1 -22.167 -3 -34.5
s-5.33301 -24.5 -10 -36.5l-1 3c-15.333 10 -27.666 23.667 -36.999 41s-14 35 -14 53z" />
    <glyph glyph-name="x" unicode="x" horiz-adv-x="580" 
d="M158 -3l2 0.00195312c12 0 23.667 2.5 35 7.5s21.666 11.833 30.999 20.5s17.833 18.667 25.5 30s13.5 23 17.5 35c5.33301 -12.667 12.833 -24.667 22.5 -36s20.5 -21.166 32.5 -29.499s24.833 -15 38.5 -20s27.167 -7.5 40.5 -7.5c21.333 0 40.833 4.33301 58.5 13
s34 19.5 49 32.5s28.833 27.333 41.5 43l36 44.5c1.33301 1.33301 2 2.66602 2 3.99902v5c0 2 -0.166992 3.83301 -0.5 5.5s-1.83301 3.16699 -4.5 4.5l1 -2c-2 2 -4.33301 3 -7 3c-2 0 -4 -0.5 -6 -1.5s-3.33301 -1.83301 -4 -2.5c-11.333 -15.333 -23 -30.333 -35 -45
s-24.667 -28 -38 -40s-27.666 -21.667 -42.999 -29s-32 -11 -50 -11c-13.333 0 -27 3.33301 -41 10s-26.833 15.334 -38.5 26.001s-21.334 22.667 -29.001 36s-11.834 26.666 -12.501 39.999v6c3.33301 0.666992 6 1 8 1c2.66699 0 5.66699 0.333008 9 1h-1l59.5 10
c19 3.33301 36.167 8.33301 51.5 15c18.667 7.33301 34.334 17.166 47.001 29.499s19 29.166 19 50.499c0 12 -3.5 21.667 -10.5 29s-15.333 13.166 -25 17.499s-20 7.33301 -31 9s-20.5 2.5 -28.5 2.5c-28 0 -51.5 -9.33301 -70.5 -28s-32.5 -40.667 -40.5 -66v1
c-4 12.667 -9.66699 24.834 -17 36.501s-15.666 22 -24.999 31s-19.5 16.333 -30.5 22s-22.167 8.5 -33.5 8.5c-19.333 0 -37 -6 -53 -18s-30.667 -25.667 -44 -41c-9.33301 -10 -18.333 -20.833 -27 -32.5s-16.667 -23.167 -24 -34.5l-14.5 -20l-14.5 -19
c0 -0.666992 -0.166992 -1.5 -0.5 -2.5s-0.5 -1.83301 -0.5 -2.5c0 -6.66699 2.33301 -10.667 7 -12c2 -0.666992 4 -1 6 -1c4 0 7.33301 1.33301 10 4c2.66699 4.66699 5.5 9.33398 8.5 14.001s6.16699 9 9.5 13l28 39.5c9.33301 13 19 25.167 29 36.5
c13.333 15.333 26.666 27.666 39.999 36.999s26.666 14 39.999 14c10.667 0 21.167 -3.5 31.5 -10.5s19.833 -16 28.5 -27s15.834 -23.5 21.501 -37.5s9.5 -28 11.5 -42v-7l-13 -1l-51 -8c-16.667 -2.66699 -31.334 -6.66699 -44.001 -12
c-19.333 -7.33301 -35.166 -16.833 -47.499 -28.5s-18.5 -27.5 -18.5 -47.5c0 -9.33301 2.33301 -18 7 -26s10.834 -15 18.501 -21s16 -10.667 25 -14s17.5 -5 25.5 -5zM283 167.002c2 13.333 5.66797 26.832 11.001 40.499s12.166 25.834 20.499 36.501
s18 19.334 29 26.001s23.167 10 36.5 10c16 0 31.667 -2.66699 47 -8s23 -14 23 -26s-3.5 -22.333 -10.5 -31s-16.5 -16 -28.5 -22s-26.333 -10.833 -43 -14.5s-35 -6.83398 -55 -9.50098l-30 -5v3zM158.001 21.001c-6 0 -12.001 1.16992 -18.001 3.50293
s-11.5 5.5 -16.5 9.5s-9.16699 8.5 -12.5 13.5s-5 10.167 -5 15.5c0 11.333 3.5 21 10.5 29s16.667 14.667 29 20s26.833 9.66602 43.5 12.999s34.667 6.33301 54 9l13 2v-2c-1.33301 -13.333 -5.16602 -26.833 -11.499 -40.5s-14 -25.834 -23 -36.501
s-19 -19.334 -30 -26.001s-22.167 -10 -33.5 -10z" />
    <glyph glyph-name="y" unicode="y" horiz-adv-x="472" 
d="M198 -370c11.333 0 22.002 3.16895 32.002 9.50195s18.833 14.166 26.5 23.499s13.834 19.833 18.501 31.5s7 22.5 7 32.5v202l10 10c33.333 28 66.666 57.667 99.999 89s62.666 66.666 87.999 105.999c0 1.33301 0.333008 2.66602 1 3.99902s1 2.33301 1 3
c0 4.66699 -2.33301 8.66699 -7 12l1 -2c-2 2 -4.33301 3 -7 3c-2 0 -4.16699 -0.333008 -6.5 -1s-3.83301 -2.66699 -4.5 -6v2c-22.667 -36 -47.667 -67.5 -75 -94.5s-55 -52.833 -83 -77.5l-18 -16v178v1v160c0 3.33301 -1.33301 6.33301 -4 9s-5.66699 4 -9 4
s-6 -1.33301 -8 -4s-3 -5.66699 -3 -9v-156l-3 -3c-22.667 -35.333 -47 -64.166 -73 -86.499s-56 -33.5 -90 -33.5c-9.33301 0 -18.833 2.16699 -28.5 6.5s-18.5 10.5 -26.5 18.5s-14.5 17.5 -19.5 28.5s-7.5 23.167 -7.5 36.5v183c0 4.66699 -1.33301 8 -4 10
s-5.33398 3 -8.00098 3c-8.66699 0 -13 -4.33301 -13 -13v-183c0 -16.667 3.33301 -32 10 -46s15.334 -26 26.001 -36s22.167 -17.833 34.5 -23.5s24.5 -8.5 36.5 -8.5c35.333 0 66.5 9.5 93.5 28.5s51.167 42.833 72.5 71.5v-157l-12 -10
c-18 -15.333 -35 -30.833 -51 -46.5s-29.833 -32 -41.5 -49s-20.834 -34.833 -27.501 -53.5s-10 -38.667 -10 -60c0 -9.33301 2 -19.333 6 -30s9.66699 -20.5 17 -29.5s16 -16.5 26 -22.5s21 -9 33 -9zM198.002 -345.998c-7.33301 0 -14.334 2.00195 -21.001 6.00195
s-12.667 9.33301 -18 16s-9.5 14 -12.5 22s-4.5 15.667 -4.5 23c0 33.333 9 63.666 27 90.999s41.667 53.666 71 78.999l18 18v-182c0 -8 -1.66699 -16.333 -5 -25s-7.83301 -16.5 -13.5 -23.5s-12.167 -12.833 -19.5 -17.5s-14.666 -7 -21.999 -7z" />
    <glyph glyph-name="z" unicode="z" horiz-adv-x="388" 
d="M137 -400c9.33301 0 18.6748 3.16016 28.0078 9.49316s18.166 15 26.499 26s16.166 23.667 23.499 38s14 29.5 20 45.5c12 31.333 22 65 30 101s12 69 12 99c0 8.66699 -0.666992 17.167 -2 25.5s-3.66602 16.5 -6.99902 24.5l-4 8l43 46c16 18 31.333 36.167 46 54.5
s28.667 36.833 42 55.5c2 2 3 4.33301 3 7c0 2 -0.5 3.83301 -1.5 5.5s-1.83301 3.16699 -2.5 4.5c-2 2 -4.33301 3 -7 3c-6 0 -10 -2.33301 -12 -7l2 1l-42 -54.5c-14.667 -18.333 -30.334 -36.166 -47.001 -53.499l-36 -39l-11 19h1
c-9.33301 15.333 -21.833 27.833 -37.5 37.5s-32.167 14.5 -49.5 14.5c-8 0 -15.167 -0.5 -21.5 -1.5s-12.833 -2.16699 -19.5 -3.5l-5 -2c14 14.667 27.5 31.334 40.5 50.001s25 37.334 36 56.001s20.5 35.834 28.5 51.501s13.667 28.167 17 37.5
c0.666992 0.666992 1 2.33398 1 5.00098c0 6.66699 -3.66699 10 -11 10h1c-12 3.33301 -28 5 -48 5l-34.5 2c-11.667 0.666992 -23.167 1.66699 -34.5 3h-3l2 2c2 6.66699 3.33301 13.167 4 19.5s1 13.5 1 21.5c0 4 -0.5 8.83301 -1.5 14.5s-2.83301 11.167 -5.5 16.5
s-6.16699 9.83301 -10.5 13.5s-9.83301 5.5 -16.5 5.5c-13.333 0 -24.5 -5.66699 -33.5 -17s-13.5 -22.666 -13.5 -33.999c0 -28 12.333 -46.667 37 -56l3 -1l-6 -12c-5.33301 -10 -11 -19.333 -17 -28l-18 -26l-23 -30c-7.33301 -10 -13.666 -20 -18.999 -30v-4
c0 -4.66699 2 -9 6 -13h4c5.33301 0 9.66602 2.33301 12.999 7c5.33301 10.667 11.166 20 17.499 28l18.5 23c8.66699 11.333 16.667 22.5 24 33.5s13.666 21.5 18.999 31.5l5 12c11.333 -3.33301 23.5 -5.33301 36.5 -6s25.167 -1 36.5 -1h17
c5.33301 0 10.333 -0.333008 15 -1l4 -2l-2 -4c-6 -13.333 -14.167 -29 -24.5 -47s-21.5 -36 -33.5 -54s-24.667 -35.167 -38 -51.5s-26 -29.166 -38 -38.499c-2.66699 -2.66699 -4 -6 -4 -10c0 -8 3.66699 -12 11 -12c11.333 1.33301 20.666 2.5 27.999 3.5
s14.333 2.16699 21 3.5c5.33301 1.33301 11 2.66602 17 3.99902s11.667 2 17 2c15.333 -0.666992 30.166 -6.66699 44.499 -18s25.166 -25.666 32.499 -42.999l3 -5l-46 -51c-32.667 -36.667 -59.834 -74.167 -81.501 -112.5s-32.5 -78.5 -32.5 -120.5
c0 -8.66699 1.16699 -18.5 3.5 -29.5s6 -21.5 11 -31.5s11.5 -18.5 19.5 -25.5s17.333 -10.5 28 -10.5zM137.009 -376.007c-5.33301 0 -10.334 2.33203 -15.001 6.99902s-8.5 10.667 -11.5 18s-5.33301 15.166 -7 23.499s-2.5 16.5 -2.5 24.5
c0 38.667 10.333 76.167 31 112.5s46.334 71.833 77.001 106.5l36 40c2 -6.66699 3.66699 -13.167 5 -19.5s2 -12.166 2 -17.499c0 -28 -3.83301 -59.167 -11.5 -93.5s-17.167 -67.166 -28.5 -98.499c-12.667 -32 -25.5 -57.167 -38.5 -75.5s-25.167 -27.5 -36.5 -27.5z
M52.0078 325.992c0 6.66699 2.5 12.832 7.5 18.499s10.167 8.5 15.5 8.5c2 0 4.16699 -2.66699 6.5 -8s3.5 -11.333 3.5 -18c0 -5.33301 -0.333008 -11.166 -1 -17.499s-2.66699 -12.5 -6 -18.5c-8 4 -14.333 8.66699 -19 14s-7 12.333 -7 21z" />
    <glyph glyph-name="exclamdown" unicode="&#xa1;" horiz-adv-x="243" 
d="M110 9c12.667 40 22 80.667 28 122s10.167 83 12.5 125s3 84 2 126s-2.16699 83.667 -3.5 125c0 5.33301 -1.66699 9.16602 -5 11.499s-6.83301 3.33301 -10.5 3s-7 -1.83301 -10 -4.5s-4.5 -6.66699 -4.5 -12c2 -40.667 3.33301 -81.5 4 -122.5
s-0.166016 -82 -2.49902 -123s-6.5 -81.833 -12.5 -122.5s-14.667 -80.667 -26 -120c-1.33301 -5.33301 -0.833008 -9.66602 1.5 -12.999s5.16602 -5.5 8.49902 -6.5s6.83301 -0.666992 10.5 1s6.16699 5.16699 7.5 10.5zM167 630c0 9.33301 -3.16699 16.833 -9.5 22.5
s-14.166 8.5 -23.499 8.5s-17.166 -2.83301 -23.499 -8.5s-9.5 -13.167 -9.5 -22.5s3.16699 -17 9.5 -23s14.166 -9 23.499 -9s17.166 3 23.499 9s9.5 13.667 9.5 23z" />
    <glyph glyph-name="cent" unicode="&#xa2;" horiz-adv-x="357" 
d="M148 380l-0.000976562 -79.9971c-19.333 -2 -38.166 -6.66699 -56.499 -14s-34.833 -17.5 -49.5 -30.5s-26.834 -28.5 -36.501 -46.5s-15.167 -38.667 -16.5 -62v-6c0 -18.667 4.83301 -36.334 14.5 -53.001s22.167 -31.334 37.5 -44.001s32.333 -23.167 51 -31.5
s37.334 -13.5 56.001 -15.5v-81c0 -4 1.16699 -7.16699 3.5 -9.5s4.83301 -3.5 7.5 -3.5c3.33301 0 6.33301 1.16699 9 3.5s4 5.5 4 9.5v80c20.667 0.666992 40.834 4.66699 60.501 12s37.834 17 54.501 29s31.667 26.167 45 42.5s24.666 33.5 33.999 51.5
c1.33301 1.33301 2 3.33301 2 6c0 4.66699 -2.33301 8.66699 -7 12h-5c-2 0 -4.33301 -0.5 -7 -1.5s-4.66699 -3.16699 -6 -6.5c-8.66699 -16.667 -19 -32.167 -31 -46.5s-25.333 -26.833 -40 -37.5s-30.5 -19.334 -47.5 -26.001s-34.5 -10.334 -52.5 -11.001v257
c8 -0.666992 16 -2.16699 24 -4.5s15.667 -5.16602 23 -8.49902h4c4.66699 0 8.66699 2.33301 12 7c0.666992 1.33301 1 3.33301 1 6c0 3.33301 -0.666992 5.5 -2 6.5s-3 2.16699 -5 3.5c-8 4.66699 -16.833 8 -26.5 10s-19.834 3.33301 -30.501 4v79
c0 4 -1.33301 7.16699 -4 9.5s-5.66699 3.5 -9 3.5c-2.66699 0 -5.16699 -1.16699 -7.5 -3.5s-3.5 -5.5 -3.5 -9.5zM12.999 143.003l0.00195312 3c1.33301 19.333 6.16602 36.666 14.499 51.999s18.666 28.5 30.999 39.5s26.333 19.667 42 26s31.5 10.5 47.5 12.5v-255
c-16 2 -32 6.83301 -48 14.5s-30.5 17 -43.5 28s-23.5 23.333 -31.5 37s-12 27.834 -12 42.501z" />
    <glyph glyph-name="sterling" unicode="&#xa3;" horiz-adv-x="655" 
d="M116 348l81.9941 0.00878906c0.666992 -3.33301 1.16699 -6.83301 1.5 -10.5s1.16602 -7.16699 2.49902 -10.5c0.666992 -3.33301 1.33398 -6.5 2.00098 -9.5s1.33398 -6.16699 2.00098 -9.5h-86c-4 0 -7.16699 -1.33301 -9.5 -4s-3.5 -5.66699 -3.5 -9
c0 -2.66699 1.16699 -5.16699 3.5 -7.5s5.5 -3.5 9.5 -3.5h89c3.33301 -17.333 5.83301 -34.333 7.5 -51s2.5 -33.334 2.5 -50.001v-10c0 -8.66699 -1 -17.334 -3 -26.001v2l-4 -16l-17 8c-31.333 14.667 -65.666 22 -102.999 22c-10 -0.666992 -20.167 -3.5 -30.5 -8.5
s-19.5 -11.5 -27.5 -19.5s-14.667 -16.833 -20 -26.5s-8 -19.5 -8 -29.5v-2c0 -10 2.66699 -19.833 8 -29.5s12 -18.334 20 -26.001s17 -13.667 27 -18s20 -6.5 30 -6.5h1c25.333 1.33301 49.5 10.333 72.5 27s40.833 37.334 53.5 62.001l7 14l13 -6l32 -15.5
c10.667 -5 21 -10.167 31 -15.5c29.333 -16 58.5 -30.5 87.5 -43.5s59.833 -19.5 92.5 -19.5c40 0 75.333 12.667 106 38s56.667 57.333 78 96c0.666992 1.33301 1 3.33301 1 6c0 3.33301 -0.666992 5.5 -2 6.5s-3 2.16699 -5 3.5c-1.33301 0.666992 -3.33301 1 -6 1
c-2 0 -4.16699 -0.333008 -6.5 -1s-3.83301 -2.66699 -4.5 -6c-18.667 -36 -41.667 -64.667 -69 -86s-58 -32.666 -92 -33.999c-28 0 -55.667 6.16699 -83 18.5s-55.666 26.166 -84.999 41.499l-34 18c-11.333 6 -23.333 11.667 -36 17l-8 4l6 20
c0.666992 3.33301 1.16699 6.66602 1.5 9.99902s0.5 6.66602 0.5 9.99902c0 1.33301 0.333008 3 1 5s1 3.66699 1 5v10c0 17.333 -0.833008 34.166 -2.5 50.499s-4.16699 33.166 -7.5 50.499h102c4 0 7.16699 1.16699 9.5 3.5s3.5 4.83301 3.5 7.5
c0 3.33301 -1.16699 6.33301 -3.5 9s-5.5 4 -9.5 4h-106c-1.33301 4 -2.33301 8 -3 12s-1.33398 8.33301 -2.00098 13l-3 15h88c4 0 7.16699 1.16699 9.5 3.5s3.5 4.83301 3.5 7.5c0 3.33301 -1.16699 6.33301 -3.5 9s-5.5 4 -9.5 4h-92
c-2.66699 17.333 -5 34.166 -7 50.499s-3 33.166 -3 50.499c0 20.667 5.5 41.5 16.5 62.5s25.167 40 42.5 57s36.833 30.667 58.5 41s43.167 15.5 64.5 15.5c14.667 0 30.334 -2.5 47.001 -7.5s32.334 -11.333 47.001 -19s26.834 -16.5 36.501 -26.5s14.5 -20 14.5 -30v-3
c0 -8 4 -12 12 -12c2.66699 0 5.5 1.16699 8.5 3.5s4.5 5.16602 4.5 8.49902v3c0 14.667 -5.83301 28.5 -17.5 41.5s-26 24.333 -43 34s-35.167 17.334 -54.5 23.001s-37 8.5 -53 8.5h-2c-24 0 -48.167 -5.83301 -72.5 -17.5s-46.5 -26.834 -66.5 -45.501
s-36.167 -40 -48.5 -64s-18.5 -48 -18.5 -72v-1c0 -18 0.833008 -35.333 2.5 -52s3.83398 -33 6.50098 -49h-78c-4 0 -7.16699 -1.33301 -9.5 -4s-3.5 -5.66699 -3.5 -9c0 -2.66699 1.16699 -5.16699 3.5 -7.5s5.5 -3.5 9.5 -3.5zM91.9941 21.0088l-0.998047 -0.000976562
c-7.33301 0 -14.5 1.66699 -21.5 5s-13.333 7.66602 -19 12.999s-10.334 11.333 -14.001 18s-5.5 13.334 -5.5 20.001c0 7.33301 1.83301 14.5 5.5 21.5s8.5 13.333 14.5 19s12.667 10.334 20 14.001s14.666 5.5 21.999 5.5c16 0 32.333 -1.5 49 -4.5s33 -8.16699 49 -15.5
l11 -7l-7 -14c-10 -21.333 -24.667 -38.833 -44 -52.5s-39 -21.167 -59 -22.5z" />
    <glyph glyph-name="yen" unicode="&#xa5;" horiz-adv-x="407" 
d="M238 306l148.001 322.998c0.666992 1.33301 1 3.33301 1 6c0 3.33301 -1.16699 6 -3.5 8s-5.16602 3 -8.49902 3c-5.33301 0 -9 -2.33301 -11 -7l-140 -304l-186 303c-3.33301 4 -7 6 -11 6c-7.33301 0 -11 -3.66699 -11 -11c0 -3.33301 0.666992 -5.66602 2 -6.99902
l195 -317v-106h-57c-4.66699 0 -8 -1.16699 -10 -3.5s-3 -5.16602 -3 -8.49902s1 -6.16602 3 -8.49902s5.33301 -3.5 10 -3.5h57v-29h-57c-4.66699 0 -8 -1.16699 -10 -3.5s-3 -5.16602 -3 -8.49902s1 -6.16602 3 -8.49902s5.33301 -3.5 10 -3.5h57v-114
c0 -4.66699 1.16699 -8 3.5 -10s5.16602 -3 8.49902 -3s6.16602 1 8.49902 3s3.5 5.33301 3.5 10v114h63c4 0 7.16699 1.16699 9.5 3.5s3.5 5.16602 3.5 8.49902s-1.16699 6.16602 -3.5 8.49902s-5.5 3.5 -9.5 3.5h-63v29h63c4 0 7.16699 1.16699 9.5 3.5
s3.5 5.16602 3.5 8.49902s-1.16699 6.16602 -3.5 8.49902s-5.5 3.5 -9.5 3.5h-63v101v0c0 0.666992 0.333008 1.33398 1 2.00098z" />
    <glyph glyph-name="section" unicode="&#xa7;" 
d="M136 748c0 9.33301 3.16699 17 9.5 23s14.166 9 23.499 9s17.166 -3 23.499 -9s9.5 -13.667 9.5 -23s-3.16699 -16.833 -9.5 -22.5s-14.166 -8.5 -23.499 -8.5s-17.166 2.83301 -23.499 8.5s-9.5 13.167 -9.5 22.5zM251 746c0 9.33301 3.16699 17 9.5 23
s14.166 9 23.499 9s17.166 -3 23.499 -9s9.5 -13.667 9.5 -23s-3.16699 -16.833 -9.5 -22.5s-14.166 -8.5 -23.499 -8.5s-17.166 2.83301 -23.499 8.5s-9.5 13.167 -9.5 22.5z" />
    <glyph glyph-name="dieresis" unicode="&#xa8;" 
d="M136 741c0 7.33301 2.5 13.333 7.5 18s11.167 7 18.5 7s13.5 -2.33301 18.5 -7s7.5 -10.667 7.5 -18s-2.5 -13.166 -7.5 -17.499s-11.167 -6.5 -18.5 -6.5s-13.5 2.16699 -18.5 6.5s-7.5 10.166 -7.5 17.499zM239 739c0 7.33301 2.5 13.333 7.5 18s11.167 7 18.5 7
s13.5 -2.33301 18.5 -7s7.5 -10.667 7.5 -18s-2.5 -13.166 -7.5 -17.499s-11.167 -6.5 -18.5 -6.5s-13.5 2.16699 -18.5 6.5s-7.5 10.166 -7.5 17.499z" />
    <glyph glyph-name="guillemotleft" unicode="&#xab;" horiz-adv-x="392" 
d="M187 301l149.999 -128c4.66699 -4 9.33398 -6 14.001 -6s8.83398 1 12.501 3s5.5 4.66699 5.5 8s-1.33301 6.66602 -4 9.99902l-142 122l132 130c2 1.33301 3 3.66602 3 6.99902s-1.66699 6.33301 -5 9s-7.33301 4.33398 -12 5.00098c-6.66699 0 -12.334 -2 -17.001 -6
l-138 -136c-2 -1.33301 -3 -3.66602 -3 -6.99902v-2c0 -2 1.33301 -5 4 -9zM22.999 308l164 -136.998c4.66699 -3.33301 9 -5 13 -5c4.66699 -0.666992 9 0.166016 13 2.49902s6 5.16602 6 8.49902s-1.33301 6.33301 -4 9l-157 130l147 130c2 1.33301 3 3.66602 3 6.99902
s-1.66699 6.33301 -5 9s-7.33301 4 -12 4c-5.33301 0.666992 -11 -1 -17 -5l-153 -135c-2 -1.33301 -3 -3.66602 -3 -6.99902v-2c0 -2.66699 1.66699 -5.66699 5 -9z" />
    <glyph glyph-name="acute" unicode="&#xb4;" horiz-adv-x="550" 
d="M282 758c-9.33301 -13.333 -20.167 -24 -32.5 -32s-26.166 -12 -41.499 -12h-9c-5.33301 0 -9 -1.33301 -11 -4s-3 -5.66699 -3 -9c0 -8.66699 4.66699 -13 14 -13h8c19.333 0 37.333 5.33301 54 16s31 23.667 43 39c2 2 3 4.33301 3 7c0 4 -1.5 7.33301 -4.5 10
s-6.16699 4 -9.5 4c-4.66699 0 -8.33398 -2 -11.001 -6z" />
    <glyph glyph-name="mu" unicode="&#xb5;" horiz-adv-x="460" 
d="M-16 -367c0 -4 1.17285 -7.16504 3.50586 -9.49805s5.16602 -3.5 8.49902 -3.5c2.66699 0 5.33398 1.16699 8.00098 3.5s4 5.5 4 9.5v396c8.66699 -10 18.667 -17.833 30 -23.5s22.666 -8.5 33.999 -8.5c20.667 0 42 7.16699 64 21.5s42.667 31.166 62 50.499
c7.33301 7.33301 14.666 15.5 21.999 24.5s13.666 17.5 18.999 25.5v-52c0 -9.33301 2.66699 -18.333 8 -27s12.166 -16.167 20.499 -22.5s17.166 -11.333 26.499 -15s18 -5.5 26 -5.5c19.333 0 36 4.33301 50 13s26.667 19.667 38 33c10.667 13.333 19.667 25.333 27 36
l21 31c2 3.33301 4.16699 6.66602 6.5 9.99902s4.5 6.66602 6.5 9.99902h-1c1.33301 2 2 4.33301 2 7c0 5.33301 -2.33301 9.33301 -7 12c-2 0.666992 -3.66699 1 -5 1c-2.66699 0 -4.83398 -0.5 -6.50098 -1.5s-2.83398 -1.83301 -3.50098 -2.5
c-1.33301 -2.66699 -2.83301 -4.66699 -4.5 -6s-3.16699 -3.33301 -4.5 -6l-27 -43c-8.66699 -13.333 -16 -23.666 -22 -30.999c-10 -11.333 -20.667 -20.666 -32 -27.999s-24 -11 -38 -11c-6 0 -12.333 1.33301 -19 4s-12.834 6.16699 -18.501 10.5
s-10.334 9.16602 -14.001 14.499s-5.5 11 -5.5 17v227c0 8.66699 -3.66699 13 -11 13c-8.66699 0 -13 -4.33301 -13 -13v-123c-1.33301 -6 -6.66602 -16.333 -15.999 -31h2c-6 -8.66699 -12.667 -17.5 -20 -26.5s-15.666 -18.167 -24.999 -27.5
c-17.333 -17.333 -35.833 -32.5 -55.5 -45.5s-37.167 -19.5 -52.5 -19.5c-6.66699 0 -13.667 1.66699 -21 5s-14.166 8 -20.499 14s-11.5 13.167 -15.5 21.5s-6 17.5 -6 27.5v207c0 2.66699 -1.33301 5.5 -4 8.5s-5.66699 4.5 -9 4.5s-6 -1.5 -8 -4.5s-3 -5.83301 -3 -8.5z
" />
    <glyph glyph-name="cedilla" unicode="&#xb8;" horiz-adv-x="550" 
d="M243 1l-4.00195 -44.999c0 -8.66699 4 -13 12 -13h2c1.33301 0.666992 3.66602 1 6.99902 1c6.66699 0 12.334 -2.66699 17.001 -8s7 -11 7 -17c0 -8.66699 -3.66699 -13.834 -11 -15.501s-14.333 -2.5 -21 -2.5c-4 0 -7.66699 0.5 -11 1.5
s-6.66602 3.16699 -9.99902 6.5l2 -3l-4 7c-3.33301 4.66699 -7 7 -11 7c-3.33301 0 -6.33301 -1.5 -9 -4.5s-4 -6.5 -4 -10.5c0 -5.33301 1.66699 -10 5 -14s7.5 -7.33301 12.5 -10s10.333 -4.66699 16 -6s10.5 -2 14.5 -2c14.667 0 28.167 4.33301 40.5 13
s18.5 20 18.5 34c0 5.33301 -1.33301 10.833 -4 16.5s-6.16699 11 -10.5 16s-9 9.33301 -14 13s-9.83301 5.5 -14.5 5.5v27c0 8.66699 -4.33301 13 -13 13c-2.66699 0 -5.16699 -0.666992 -7.5 -2s-4.16602 -4 -5.49902 -8z" />
    <glyph glyph-name="guillemotright" unicode="&#xbb;" horiz-adv-x="392" 
d="M199 301l-149.999 -128c-5.33301 -4 -10 -6 -14 -6c-4.66699 0 -8.83398 1 -12.501 3s-5.5 4.66699 -5.5 8s1.33301 6.66602 4 9.99902l142 122l-132 130c-2 1.33301 -3 3.66602 -3 6.99902s1.66699 6.33301 5 9s7.33301 4.33398 12 5.00098c6 0 11.667 -2 17 -6
l138 -136c2 -1.33301 3 -3.66602 3 -6.99902v-2c0 -2 -1.33301 -5 -4 -9zM363.001 308l-164 -136.998c-4.66699 -3.33301 -9 -5 -13 -5c-4.66699 -0.666992 -9 0.166016 -13 2.49902s-6 5.16602 -6 8.49902s1.33301 6.33301 4 9l157 130l-147 130
c-2 1.33301 -3 3.66602 -3 6.99902s1.66699 6.33301 5 9s7.33301 4 12 4c5.33301 0.666992 11 -1 17 -5l153 -135c2 -1.33301 3 -3.66602 3 -6.99902v-2c0 -2.66699 -1.66699 -5.66699 -5 -9z" />
    <glyph glyph-name="questiondown" unicode="&#xbf;" horiz-adv-x="446" 
d="M314 642c0 -14 -7 -21 -21 -21c-14.667 0 -22 7 -22 21c0 14.667 7.33301 22 22 22c14 0 21 -7.33301 21 -22zM338 228c44 0 65.999 -20.6699 65.999 -62.0029c0 -50 -22 -91 -66 -123c-40.667 -29.333 -85.334 -44 -134.001 -44c-52.667 0 -95.334 15.667 -128.001 47
c-32.667 30.667 -49 72.667 -49 126c0 56.667 24 97.667 72 123l54 18c13.333 4.66699 26.5 9 39.5 13s26.167 8.33301 39.5 13c44 16.667 66 45 66 85v8c-1.33301 12.667 -2.33301 22.834 -3 30.501s-1 13.167 -1 16.5v3c0 10.667 5.33301 16 16 16s16 -5.33301 16 -16
c0 -4 0.333008 -9 1 -15s1.33398 -12.333 2.00098 -19c0.666992 -6 1.16699 -11.667 1.5 -17s0.5 -9.66602 0.5 -12.999c0 -14 -2.33301 -26.667 -7 -38c-14 -33.333 -44 -58 -90 -74c-19.333 -6.66699 -38.666 -13 -57.999 -19l-58 -18c-39.333 -20 -59 -52.333 -59 -97
c0 -43.333 13.167 -77.666 39.5 -102.999s61.5 -38 105.5 -38c43.333 0 81.333 12.333 114 37c36 26.667 54 59.334 54 98.001c0 20 -11.333 30 -34 30c-2.66699 0 -5.66699 -0.166992 -9 -0.5s-6.66602 -0.833008 -9.99902 -1.5c-1.33301 0 -2.33301 -0.166992 -3 -0.5
s-1.66699 -0.5 -3 -0.5c-8.66699 0 -13 5.66699 -13 17c0 9.33301 4.5 14.666 13.5 15.999s17.167 2 24.5 2z" />
    <glyph glyph-name="Agrave" unicode="&#xc0;" horiz-adv-x="797" 
d="M658 -4c14.667 0 29.001 3.83398 43.001 11.501s27.167 17.834 39.5 30.501s23.833 27.167 34.5 43.5s20.667 32.833 30 49.5v5c0 2.66699 -1.33301 5.5 -4 8.5s-5.66699 4.5 -9 4.5c-2 0 -4 -0.5 -6 -1.5s-3.33301 -3.16699 -4 -6.5
c-6.66699 -12.667 -14 -25.334 -22 -38.001s-16.5 -24.334 -25.5 -35.001s-18.333 -19.834 -28 -27.501s-19.167 -13.167 -28.5 -16.5c-3.33301 -0.666992 -6.33301 -1.33398 -9 -2.00098s-5 -1 -7 -1c-8 0 -16 1.5 -24 4.5s-15.333 7 -22 12s-12.167 11.167 -16.5 18.5
s-6.5 15 -6.5 23v560c0 2.66699 -0.666992 5.66699 -2 9s-4.66602 5.33301 -9.99902 6c-14.667 2.66699 -28.834 4.33398 -42.501 5.00098s-27.167 1 -40.5 1c-50 0 -96.833 -6.66699 -140.5 -20s-83.834 -31.333 -120.501 -54s-69.167 -49.167 -97.5 -79.5
s-52.5 -62.666 -72.5 -96.999s-35.167 -69.333 -45.5 -105s-15.5 -70.5 -15.5 -104.5c0 -25.333 5.33301 -50 16 -74s25.334 -45.667 44.001 -65s41 -34.833 67 -46.5s54.333 -17.5 85 -17.5h10c24.667 0.666992 53.167 7.5 85.5 20.5s64.5 31.667 96.5 56s62 54 90 89
s50.667 75.167 68 120.5v-206c0 -10 2.66699 -20 8 -30s12.166 -18.667 20.499 -26s17.5 -13.333 27.5 -18s19.667 -7 29 -7h5zM566.001 373.001c-10 -55.333 -28.332 -104.666 -54.999 -147.999s-56.834 -79.833 -90.501 -109.5s-68 -52.5 -103 -68.5
s-65.5 -24.667 -91.5 -26h-7c-26.667 0 -51.5 5.16699 -74.5 15.5s-42.833 23.833 -59.5 40.5s-29.834 35.5 -39.501 56.5s-14.5 42.167 -14.5 63.5c0 32 4.83301 65.167 14.5 99.5s24 67.666 43 99.999s42 63 69 92s57.833 54.5 92.5 76.5s72.834 39.333 114.501 52
s86.5 19 134.5 19c11.333 0 22.5 -0.5 33.5 -1.5s22.833 -2.16699 35.5 -3.5c-0.666992 -64 -1.16699 -113.5 -1.5 -148.5s-0.5 -60.833 -0.5 -77.5v-28v-4zM447.002 734.001l88 -47c2 -2 4 -3 6 -3c4 0 7.5 1.5 10.5 4.5s4.5 6.5 4.5 10.5
c0 4.66699 -2.66699 8.66699 -8 12l-88 47c-2.66699 1.33301 -4.66699 2 -6 2c-4 0 -7.5 -1.33301 -10.5 -4s-4.5 -6 -4.5 -10c0 -5.33301 2.66699 -9.33301 8 -12z" />
    <glyph glyph-name="Aacute" unicode="&#xc1;" horiz-adv-x="797" 
d="M658 -4c14.667 0 29.001 3.83398 43.001 11.501s27.167 17.834 39.5 30.501s23.833 27.167 34.5 43.5s20.667 32.833 30 49.5v5c0 2.66699 -1.33301 5.5 -4 8.5s-5.66699 4.5 -9 4.5c-2 0 -4 -0.5 -6 -1.5s-3.33301 -3.16699 -4 -6.5
c-6.66699 -12.667 -14 -25.334 -22 -38.001s-16.5 -24.334 -25.5 -35.001s-18.333 -19.834 -28 -27.501s-19.167 -13.167 -28.5 -16.5c-3.33301 -0.666992 -6.33301 -1.33398 -9 -2.00098s-5 -1 -7 -1c-8 0 -16 1.5 -24 4.5s-15.333 7 -22 12s-12.167 11.167 -16.5 18.5
s-6.5 15 -6.5 23v560c0 2.66699 -0.666992 5.66699 -2 9s-4.66602 5.33301 -9.99902 6c-14.667 2.66699 -28.834 4.33398 -42.501 5.00098s-27.167 1 -40.5 1c-50 0 -96.833 -6.66699 -140.5 -20s-83.834 -31.333 -120.501 -54s-69.167 -49.167 -97.5 -79.5
s-52.5 -62.666 -72.5 -96.999s-35.167 -69.333 -45.5 -105s-15.5 -70.5 -15.5 -104.5c0 -25.333 5.33301 -50 16 -74s25.334 -45.667 44.001 -65s41 -34.833 67 -46.5s54.333 -17.5 85 -17.5h10c24.667 0.666992 53.167 7.5 85.5 20.5s64.5 31.667 96.5 56s62 54 90 89
s50.667 75.167 68 120.5v-206c0 -10 2.66699 -20 8 -30s12.166 -18.667 20.499 -26s17.5 -13.333 27.5 -18s19.667 -7 29 -7h5zM566.001 373.001c-10 -55.333 -28.332 -104.666 -54.999 -147.999s-56.834 -79.833 -90.501 -109.5s-68 -52.5 -103 -68.5
s-65.5 -24.667 -91.5 -26h-7c-26.667 0 -51.5 5.16699 -74.5 15.5s-42.833 23.833 -59.5 40.5s-29.834 35.5 -39.501 56.5s-14.5 42.167 -14.5 63.5c0 32 4.83301 65.167 14.5 99.5s24 67.666 43 99.999s42 63 69 92s57.833 54.5 92.5 76.5s72.834 39.333 114.501 52
s86.5 19 134.5 19c11.333 0 22.5 -0.5 33.5 -1.5s22.833 -2.16699 35.5 -3.5c-0.666992 -64 -1.16699 -113.5 -1.5 -148.5s-0.5 -60.833 -0.5 -77.5v-28v-4zM534.002 758.001c-9.33301 -13.333 -20.167 -24 -32.5 -32s-26.166 -12 -41.499 -12h-9
c-5.33301 0 -9 -1.33301 -11 -4s-3 -5.66699 -3 -9c0 -8.66699 4.66699 -13 14 -13h8c19.333 0 37.333 5.33301 54 16s31 23.667 43 39c2 2 3 4.33301 3 7c0 4 -1.5 7.33301 -4.5 10s-6.16699 4 -9.5 4c-4.66699 0 -8.33398 -2 -11.001 -6z" />
    <glyph glyph-name="Acircumflex" unicode="&#xc2;" horiz-adv-x="797" 
d="M658 -4c14.667 0 29.001 3.83398 43.001 11.501s27.167 17.834 39.5 30.501s23.833 27.167 34.5 43.5s20.667 32.833 30 49.5v5c0 2.66699 -1.33301 5.5 -4 8.5s-5.66699 4.5 -9 4.5c-2 0 -4 -0.5 -6 -1.5s-3.33301 -3.16699 -4 -6.5
c-6.66699 -12.667 -14 -25.334 -22 -38.001s-16.5 -24.334 -25.5 -35.001s-18.333 -19.834 -28 -27.501s-19.167 -13.167 -28.5 -16.5c-3.33301 -0.666992 -6.33301 -1.33398 -9 -2.00098s-5 -1 -7 -1c-8 0 -16 1.5 -24 4.5s-15.333 7 -22 12s-12.167 11.167 -16.5 18.5
s-6.5 15 -6.5 23v560c0 2.66699 -0.666992 5.66699 -2 9s-4.66602 5.33301 -9.99902 6c-14.667 2.66699 -28.834 4.33398 -42.501 5.00098s-27.167 1 -40.5 1c-50 0 -96.833 -6.66699 -140.5 -20s-83.834 -31.333 -120.501 -54s-69.167 -49.167 -97.5 -79.5
s-52.5 -62.666 -72.5 -96.999s-35.167 -69.333 -45.5 -105s-15.5 -70.5 -15.5 -104.5c0 -25.333 5.33301 -50 16 -74s25.334 -45.667 44.001 -65s41 -34.833 67 -46.5s54.333 -17.5 85 -17.5h10c24.667 0.666992 53.167 7.5 85.5 20.5s64.5 31.667 96.5 56s62 54 90 89
s50.667 75.167 68 120.5v-206c0 -10 2.66699 -20 8 -30s12.166 -18.667 20.499 -26s17.5 -13.333 27.5 -18s19.667 -7 29 -7h5zM566.001 373.001c-10 -55.333 -28.332 -104.666 -54.999 -147.999s-56.834 -79.833 -90.501 -109.5s-68 -52.5 -103 -68.5
s-65.5 -24.667 -91.5 -26h-7c-26.667 0 -51.5 5.16699 -74.5 15.5s-42.833 23.833 -59.5 40.5s-29.834 35.5 -39.501 56.5s-14.5 42.167 -14.5 63.5c0 32 4.83301 65.167 14.5 99.5s24 67.666 43 99.999s42 63 69 92s57.833 54.5 92.5 76.5s72.834 39.333 114.501 52
s86.5 19 134.5 19c11.333 0 22.5 -0.5 33.5 -1.5s22.833 -2.16699 35.5 -3.5c-0.666992 -64 -1.16699 -113.5 -1.5 -148.5s-0.5 -60.833 -0.5 -77.5v-28v-4zM435.002 688.001l66.001 40.999l61 -45c2 -2 4.66699 -3 8 -3c4 0 7.16699 1.5 9.5 4.5s3.5 6.16699 3.5 9.5
c0 4.66699 -1.66699 8.33398 -5 11.001l-65 48c-2 2 -4.66699 3 -8 3c-1.33301 0 -2.33301 -0.166992 -3 -0.5s-1.33398 -0.5 -2.00098 -0.5h-1c-4 0 -6.66699 -0.666992 -8 -2l-70 -44c-4 -4 -6 -8 -6 -12c0 -8.66699 4 -13 12 -13c3.33301 0 6 1 8 3z" />
    <glyph glyph-name="Atilde" unicode="&#xc3;" horiz-adv-x="797" 
d="M658 -4c14.667 0 29.001 3.83398 43.001 11.501s27.167 17.834 39.5 30.501s23.833 27.167 34.5 43.5s20.667 32.833 30 49.5v5c0 2.66699 -1.33301 5.5 -4 8.5s-5.66699 4.5 -9 4.5c-2 0 -4 -0.5 -6 -1.5s-3.33301 -3.16699 -4 -6.5
c-6.66699 -12.667 -14 -25.334 -22 -38.001s-16.5 -24.334 -25.5 -35.001s-18.333 -19.834 -28 -27.501s-19.167 -13.167 -28.5 -16.5c-3.33301 -0.666992 -6.33301 -1.33398 -9 -2.00098s-5 -1 -7 -1c-8 0 -16 1.5 -24 4.5s-15.333 7 -22 12s-12.167 11.167 -16.5 18.5
s-6.5 15 -6.5 23v560c0 2.66699 -0.666992 5.66699 -2 9s-4.66602 5.33301 -9.99902 6c-14.667 2.66699 -28.834 4.33398 -42.501 5.00098s-27.167 1 -40.5 1c-50 0 -96.833 -6.66699 -140.5 -20s-83.834 -31.333 -120.501 -54s-69.167 -49.167 -97.5 -79.5
s-52.5 -62.666 -72.5 -96.999s-35.167 -69.333 -45.5 -105s-15.5 -70.5 -15.5 -104.5c0 -25.333 5.33301 -50 16 -74s25.334 -45.667 44.001 -65s41 -34.833 67 -46.5s54.333 -17.5 85 -17.5h10c24.667 0.666992 53.167 7.5 85.5 20.5s64.5 31.667 96.5 56s62 54 90 89
s50.667 75.167 68 120.5v-206c0 -10 2.66699 -20 8 -30s12.166 -18.667 20.499 -26s17.5 -13.333 27.5 -18s19.667 -7 29 -7h5zM566.001 373.001c-10 -55.333 -28.332 -104.666 -54.999 -147.999s-56.834 -79.833 -90.501 -109.5s-68 -52.5 -103 -68.5
s-65.5 -24.667 -91.5 -26h-7c-26.667 0 -51.5 5.16699 -74.5 15.5s-42.833 23.833 -59.5 40.5s-29.834 35.5 -39.501 56.5s-14.5 42.167 -14.5 63.5c0 32 4.83301 65.167 14.5 99.5s24 67.666 43 99.999s42 63 69 92s57.833 54.5 92.5 76.5s72.834 39.333 114.501 52
s86.5 19 134.5 19c11.333 0 22.5 -0.5 33.5 -1.5s22.833 -2.16699 35.5 -3.5c-0.666992 -64 -1.16699 -113.5 -1.5 -148.5s-0.5 -60.833 -0.5 -77.5v-28v-4zM424.002 691.001l0.00195312 6c0 2.66699 -0.666992 5.33398 -2 8.00098c1.33301 8 5.16602 13.833 11.499 17.5
s13.166 5.5 20.499 5.5c8 0 15.667 -2.33301 23 -7s11.666 -11.334 12.999 -20.001c5.33301 -9.33301 12.166 -15.833 20.499 -19.5s17.166 -5.5 26.499 -5.5c16 0 30.833 5 44.5 15s20.5 23.333 20.5 40c0 6 -1 12 -3 18s-6 9 -12 9c-3.33301 0 -6.5 -1.16699 -9.5 -3.5
s-4.5 -5.83301 -4.5 -10.5v-1c0.666992 -2 1.33398 -3.83301 2.00098 -5.5s1 -3.16699 1 -4.5c0 -9.33301 -4 -16.833 -12 -22.5s-16.667 -8.5 -26 -8.5c-6 0 -11.667 1.33301 -17 4s-9 7.66699 -11 15c-5.33301 11.333 -13.166 19.833 -23.499 25.5
s-21.166 8.5 -32.499 8.5c-15.333 0 -29 -4.33301 -41 -13s-18 -21 -18 -37c0 -7.33301 1.33301 -13.833 4 -19.5s6.66699 -8.5 12 -8.5c3.33301 0 6.33301 1 9 3s4 5.66699 4 11z" />
    <glyph glyph-name="Adieresis" unicode="&#xc4;" horiz-adv-x="797" 
d="M658 -4c14.667 0 29.001 3.83398 43.001 11.501s27.167 17.834 39.5 30.501s23.833 27.167 34.5 43.5s20.667 32.833 30 49.5v5c0 2.66699 -1.33301 5.5 -4 8.5s-5.66699 4.5 -9 4.5c-2 0 -4 -0.5 -6 -1.5s-3.33301 -3.16699 -4 -6.5
c-6.66699 -12.667 -14 -25.334 -22 -38.001s-16.5 -24.334 -25.5 -35.001s-18.333 -19.834 -28 -27.501s-19.167 -13.167 -28.5 -16.5c-3.33301 -0.666992 -6.33301 -1.33398 -9 -2.00098s-5 -1 -7 -1c-8 0 -16 1.5 -24 4.5s-15.333 7 -22 12s-12.167 11.167 -16.5 18.5
s-6.5 15 -6.5 23v560c0 2.66699 -0.666992 5.66699 -2 9s-4.66602 5.33301 -9.99902 6c-14.667 2.66699 -28.834 4.33398 -42.501 5.00098s-27.167 1 -40.5 1c-50 0 -96.833 -6.66699 -140.5 -20s-83.834 -31.333 -120.501 -54s-69.167 -49.167 -97.5 -79.5
s-52.5 -62.666 -72.5 -96.999s-35.167 -69.333 -45.5 -105s-15.5 -70.5 -15.5 -104.5c0 -25.333 5.33301 -50 16 -74s25.334 -45.667 44.001 -65s41 -34.833 67 -46.5s54.333 -17.5 85 -17.5h10c24.667 0.666992 53.167 7.5 85.5 20.5s64.5 31.667 96.5 56s62 54 90 89
s50.667 75.167 68 120.5v-206c0 -10 2.66699 -20 8 -30s12.166 -18.667 20.499 -26s17.5 -13.333 27.5 -18s19.667 -7 29 -7h5zM566.001 373.001c-10 -55.333 -28.332 -104.666 -54.999 -147.999s-56.834 -79.833 -90.501 -109.5s-68 -52.5 -103 -68.5
s-65.5 -24.667 -91.5 -26h-7c-26.667 0 -51.5 5.16699 -74.5 15.5s-42.833 23.833 -59.5 40.5s-29.834 35.5 -39.501 56.5s-14.5 42.167 -14.5 63.5c0 32 4.83301 65.167 14.5 99.5s24 67.666 43 99.999s42 63 69 92s57.833 54.5 92.5 76.5s72.834 39.333 114.501 52
s86.5 19 134.5 19c11.333 0 22.5 -0.5 33.5 -1.5s22.833 -2.16699 35.5 -3.5c-0.666992 -64 -1.16699 -113.5 -1.5 -148.5s-0.5 -60.833 -0.5 -77.5v-28v-4zM421.002 741.001c0 7.33301 2.5 13.333 7.5 18s11.167 7 18.5 7s13.5 -2.33301 18.5 -7s7.5 -10.667 7.5 -18
s-2.5 -13.166 -7.5 -17.499s-11.167 -6.5 -18.5 -6.5s-13.5 2.16699 -18.5 6.5s-7.5 10.166 -7.5 17.499zM524.002 739.001c0 7.33301 2.5 13.333 7.5 18s11.167 7 18.5 7s13.5 -2.33301 18.5 -7s7.5 -10.667 7.5 -18s-2.5 -13.166 -7.5 -17.499s-11.167 -6.5 -18.5 -6.5
s-13.5 2.16699 -18.5 6.5s-7.5 10.166 -7.5 17.499z" />
    <glyph glyph-name="Aring" unicode="&#xc5;" horiz-adv-x="797" 
d="M658 -4c14.667 0 29.001 3.83398 43.001 11.501s27.167 17.834 39.5 30.501s23.833 27.167 34.5 43.5s20.667 32.833 30 49.5v5c0 2.66699 -1.33301 5.5 -4 8.5s-5.66699 4.5 -9 4.5c-2 0 -4 -0.5 -6 -1.5s-3.33301 -3.16699 -4 -6.5
c-6.66699 -12.667 -14 -25.334 -22 -38.001s-16.5 -24.334 -25.5 -35.001s-18.333 -19.834 -28 -27.501s-19.167 -13.167 -28.5 -16.5c-3.33301 -0.666992 -6.33301 -1.33398 -9 -2.00098s-5 -1 -7 -1c-8 0 -16 1.5 -24 4.5s-15.333 7 -22 12s-12.167 11.167 -16.5 18.5
s-6.5 15 -6.5 23v560c0 2.66699 -0.666992 5.66699 -2 9s-4.66602 5.33301 -9.99902 6c-14.667 2.66699 -28.834 4.33398 -42.501 5.00098s-27.167 1 -40.5 1c-50 0 -96.833 -6.66699 -140.5 -20s-83.834 -31.333 -120.501 -54s-69.167 -49.167 -97.5 -79.5
s-52.5 -62.666 -72.5 -96.999s-35.167 -69.333 -45.5 -105s-15.5 -70.5 -15.5 -104.5c0 -25.333 5.33301 -50 16 -74s25.334 -45.667 44.001 -65s41 -34.833 67 -46.5s54.333 -17.5 85 -17.5h10c24.667 0.666992 53.167 7.5 85.5 20.5s64.5 31.667 96.5 56s62 54 90 89
s50.667 75.167 68 120.5v-206c0 -10 2.66699 -20 8 -30s12.166 -18.667 20.499 -26s17.5 -13.333 27.5 -18s19.667 -7 29 -7h5zM566.001 373.001c-10 -55.333 -28.332 -104.666 -54.999 -147.999s-56.834 -79.833 -90.501 -109.5s-68 -52.5 -103 -68.5
s-65.5 -24.667 -91.5 -26h-7c-26.667 0 -51.5 5.16699 -74.5 15.5s-42.833 23.833 -59.5 40.5s-29.834 35.5 -39.501 56.5s-14.5 42.167 -14.5 63.5c0 32 4.83301 65.167 14.5 99.5s24 67.666 43 99.999s42 63 69 92s57.833 54.5 92.5 76.5s72.834 39.333 114.501 52
s86.5 19 134.5 19c11.333 0 22.5 -0.5 33.5 -1.5s22.833 -2.16699 35.5 -3.5c-0.666992 -64 -1.16699 -113.5 -1.5 -148.5s-0.5 -60.833 -0.5 -77.5v-28v-4zM518.002 760.001c-13.333 0 -25.5 -4.33398 -36.5 -13.001s-16.5 -19.667 -16.5 -33c0 -8.66699 2.66699 -17 8 -25
c5.33301 -5.33301 10.5 -9.16602 15.5 -11.499s14.167 -3.5 27.5 -3.5c12 0 22.667 4.33301 32 13s14 18.667 14 30c0 13.333 -4.66699 23.833 -14 31.5s-19.333 11.5 -30 11.5zM532.002 727c0.666992 -1.33301 1.33398 -3 2.00098 -5s1 -4 1 -6
c0 -5.33301 -2.33301 -9 -7 -11s-9.33398 -3 -14.001 -3c-6 0 -11 0.5 -15 1.5s-6.33301 4.16699 -7 9.5c0 6.66699 2.33301 11.667 7 15s10 5 16 5c7.33301 0 13 -2 17 -6z" />
    <glyph glyph-name="AE" unicode="&#xc6;" horiz-adv-x="1134" 
d="M592 315l3.00098 3.00195c6 8.66699 12.5 17 19.5 25s15.167 15.667 24.5 23c44 -36.667 94 -55 150 -55c10.667 0 22.667 1.5 36 4.5s25.666 7.66699 36.999 14s21 14.333 29 24s12 20.834 12 33.501s-4.16699 23.5 -12.5 32.5s-18.5 16.333 -30.5 22
s-24.5 9.66699 -37.5 12s-24.167 3.5 -33.5 3.5c-23.333 0 -48.166 -5 -74.499 -15s-51.166 -24.333 -74.499 -43c-18.667 17.333 -31.667 34.166 -39 50.499s-11 32.166 -11 47.499c0 20.667 7.33301 40.334 22 59.001s33.167 34.834 55.5 48.501s46.833 24.5 73.5 32.5
s51.667 12 75 12c26 0 48.667 -1.66699 68 -5s36.166 -7.83301 50.499 -13.5s26.833 -12 37.5 -19s20.667 -14.5 30 -22.5c3.33301 -3.33301 5.66602 -5 6.99902 -5s2.66602 0.333008 3.99902 1l4 2c3.33301 4.66699 5 8.66699 5 12c0 1.33301 -1.66699 3.66602 -5 6.99902
c-10 9.33301 -21 18.166 -33 26.499s-25.833 15.5 -41.5 21.5s-33.834 10.833 -54.501 14.5s-44.667 5.5 -72 5.5c-19.333 0 -39.833 -2.66699 -61.5 -8s-43 -12.833 -64 -22.5s-40.667 -21.167 -59 -34.5s-33.166 -28.333 -44.499 -45v75c0 2.66699 -0.666992 5.66699 -2 9
s-4.66602 5.33301 -9.99902 6c-14.667 2.66699 -28.834 4.33398 -42.501 5.00098s-27.167 1 -40.5 1c-50 0 -96.833 -6.66699 -140.5 -20s-83.834 -31.333 -120.501 -54s-69.167 -49.167 -97.5 -79.5s-52.5 -62.666 -72.5 -96.999s-35.167 -69.333 -45.5 -105
s-15.5 -70.5 -15.5 -104.5c0 -25.333 5.33301 -50 16 -74s25.334 -45.667 44.001 -65s41 -34.833 67 -46.5s54.333 -17.5 85 -17.5h10c22.667 0.666992 48.167 6.5 76.5 17.5s57.166 26.5 86.499 46.5s57.5 44.667 84.5 74s50.5 62.666 70.5 99.999v-8
c0 -40 5.83301 -73.5 17.5 -100.5s27.167 -49.333 46.5 -67s41.333 -31.334 66 -41.001s49.834 -16.667 75.501 -21s50.834 -6.83301 75.501 -7.5s46.667 -1 66 -1c24.667 0 49.667 3.5 75 10.5s49.5 16.667 72.5 29s44.167 27 63.5 44s35.333 35.167 48 54.5
c0 1.33301 0.166992 2.66602 0.5 3.99902s0.5 2.33301 0.5 3c0 5.33301 -2.33301 9.33301 -7 12c-0.666992 0.666992 -2.33398 1 -5.00098 1c-6.66699 0 -10.667 -2.33301 -12 -7c-12 -17.333 -26.667 -33.666 -44 -48.999s-36.5 -28.833 -57.5 -40.5
s-43 -20.834 -66 -27.501s-45.833 -10 -68.5 -10c-19.333 -0.666992 -40.666 -0.666992 -63.999 0s-46.666 3 -69.999 7s-46.166 10.333 -68.499 19s-42 21.167 -59 37.5s-31 36.833 -42 61.5s-16.833 55 -17.5 91c-0.666992 15.333 1.16602 30.5 5.49902 45.5
s11.166 28.5 20.499 40.5zM560.001 373.002c-10 -55.333 -28.332 -104.666 -54.999 -147.999s-56.834 -79.833 -90.501 -109.5s-68 -52.5 -103 -68.5s-65.5 -24.667 -91.5 -26h-7c-26.667 0 -51.5 5.16699 -74.5 15.5s-42.833 23.833 -59.5 40.5s-29.834 35.5 -39.501 56.5
s-14.5 42.167 -14.5 63.5c0 32 4.83301 65.167 14.5 99.5s24 67.666 43 99.999s42 63 69 92s57.833 54.5 92.5 76.5s72.834 39.333 114.501 52s86.5 19 134.5 19c11.333 0 22.5 -0.5 33.5 -1.5s22.833 -2.16699 35.5 -3.5c-0.666992 -64 -1.16699 -113.5 -1.5 -148.5
s-0.5 -60.833 -0.5 -77.5v-28v-4zM789.002 336.002c-18 0 -37.001 2.83301 -57.001 8.5s-44 17.834 -72 36.501c24.667 19.333 47.834 32.833 69.501 40.5s41.5 11.5 59.5 11.5c9.33301 0 19.333 -1 30 -3s20.5 -5 29.5 -9s16.333 -8.83301 22 -14.5s8.5 -12.167 8.5 -19.5
s-2.83301 -14 -8.5 -20s-13 -11.333 -22 -16s-18.833 -8.33398 -29.5 -11.001s-20.667 -4 -30 -4zM620.001 383.002c-6 -6 -11.668 -12 -17.001 -18s-10.666 -12.333 -15.999 -19v76c4.66699 -7.33301 9.66699 -14.333 15 -21s11.333 -12.667 18 -18z" />
    <glyph glyph-name="Ccedilla" unicode="&#xc7;" horiz-adv-x="625" 
d="M359 -14c60.667 0.666992 113.335 14.0039 158.002 40.0039s83.334 60.333 116.001 103c2 1.33301 3 3.66602 3 6.99902c0 2 -0.5 3.5 -1.5 4.5s-1.83301 2.16699 -2.5 3.5c-1.33301 1.33301 -2.83301 2.16602 -4.5 2.49902s-3.16699 0.5 -4.5 0.5
c-2 0 -3.83301 -0.166992 -5.5 -0.5s-3.16699 -2.16602 -4.5 -5.49902c-29.333 -37.333 -64.833 -68.333 -106.5 -93s-90.834 -37.334 -147.501 -38.001c-41.333 0 -81 7.16699 -119 21.5s-71.333 34.833 -100 61.5s-51.667 58.667 -69 96s-26 78.666 -26 123.999
c0 42 9.16699 82.833 27.5 122.5s42.5 75 72.5 106s64 55.833 102 74.5s76.667 28 116 28c27.333 0 49.833 -2 67.5 -6s32.667 -9.33301 45 -16s22.666 -14.5 30.999 -23.5s16.5 -18.5 24.5 -28.5c0.666992 -2.66699 3.33398 -4 8.00098 -4
c1.33301 0 2.83301 0.166992 4.5 0.5s3.16699 1.16602 4.5 2.49902c0.666992 0.666992 1.5 1.66699 2.5 3s1.5 3 1.5 5c0 1.33301 -0.166992 2.66602 -0.5 3.99902s-0.5 2.33301 -0.5 3c-10 12 -19.833 23.167 -29.5 33.5s-21.334 19.333 -35.001 27
s-30.334 13.834 -50.001 18.501s-44.167 7 -73.5 7c-43.333 0 -85.5 -10.167 -126.5 -30.5s-77.5 -47 -109.5 -80s-57.667 -70.667 -77 -113s-29 -85.833 -29 -130.5c0 -50 9.16699 -95.167 27.5 -135.5s43 -75 74 -104s66.667 -51.333 107 -67s82.5 -23.5 126.5 -23.5h3z
M343.001 -8.99609l-4.00195 -44.999c0 -8.66699 4 -13 12 -13h2c1.33301 0.666992 3.66602 1 6.99902 1c6.66699 0 12.334 -2.66699 17.001 -8s7 -11 7 -17c0 -8.66699 -3.66699 -13.834 -11 -15.501s-14.333 -2.5 -21 -2.5c-4 0 -7.66699 0.5 -11 1.5
s-6.66602 3.16699 -9.99902 6.5l2 -3l-4 7c-3.33301 4.66699 -7 7 -11 7c-3.33301 0 -6.33301 -1.5 -9 -4.5s-4 -6.5 -4 -10.5c0 -5.33301 1.66699 -10 5 -14s7.5 -7.33301 12.5 -10s10.333 -4.66699 16 -6s10.5 -2 14.5 -2c14.667 0 28.167 4.33301 40.5 13
s18.5 20 18.5 34c0 5.33301 -1.33301 10.833 -4 16.5s-6.16699 11 -10.5 16s-9 9.33301 -14 13s-9.83301 5.5 -14.5 5.5v27c0 8.66699 -4.33301 13 -13 13c-2.66699 0 -5.16699 -0.666992 -7.5 -2s-4.16602 -4 -5.49902 -8z" />
    <glyph glyph-name="Egrave" unicode="&#xc8;" horiz-adv-x="601" 
d="M353 -11c24.667 0 49.6699 3.6709 75.0029 11.0039s49.5 17.166 72.5 29.499s44.167 26.833 63.5 43.5s35.333 34.667 48 54c0 1.33301 0.166992 2.66602 0.5 3.99902s0.5 2.33301 0.5 3c0 5.33301 -2.33301 9.33301 -7 12c-0.666992 0.666992 -2.33398 1 -5.00098 1
c-6.66699 0 -10.667 -2.33301 -12 -7c-12 -17.333 -26.833 -33.666 -44.5 -48.999s-37 -28.833 -58 -40.5s-43 -20.834 -66 -27.501s-45.5 -10 -67.5 -10c-32.667 0 -67.834 5.5 -105.501 16.5s-72.5 26.167 -104.5 45.5s-58.667 42 -80 68s-32 54 -32 84
c0 23.333 6.5 47.666 19.5 72.999s31.167 47.333 54.5 66c44 -36.667 94 -55 150 -55c10.667 0 22.667 1.5 36 4.5s25.666 7.66699 36.999 14s21 14.333 29 24s12 20.834 12 33.501s-4.16699 23.5 -12.5 32.5s-18.5 16.333 -30.5 22s-24.5 9.66699 -37.5 12
s-24.167 3.5 -33.5 3.5c-23.333 0 -48.166 -5 -74.499 -15s-51.166 -24.333 -74.499 -43c-18.667 17.333 -31.667 34.166 -39 50.499s-11 32.166 -11 47.499c0 20.667 7.33301 40.334 22 59.001s33.167 34.834 55.5 48.501s46.833 24.5 73.5 32.5s51.667 12 75 12
c26 0 48.667 -1.66699 68 -5s36.166 -7.83301 50.499 -13.5s26.833 -12 37.5 -19s20.667 -14.5 30 -22.5c3.33301 -3.33301 5.66602 -5 6.99902 -5s2.66602 0.333008 3.99902 1l4 2c3.33301 4.66699 5 8.66699 5 12c0 1.33301 -1.66699 3.66602 -5 6.99902
c-10 9.33301 -21 18.166 -33 26.499s-25.833 15.5 -41.5 21.5s-33.834 10.833 -54.501 14.5s-44.667 5.5 -72 5.5c-24.667 0 -51.667 -4.5 -81 -13.5s-56.5 -21.167 -81.5 -36.5s-46 -33.833 -63 -55.5s-25.5 -45.5 -25.5 -71.5
c0.666992 -21.333 5.83398 -41.833 15.501 -61.5s22.834 -37.167 39.501 -52.5c-22 -21.333 -40.833 -45.5 -56.5 -72.5s-23.5 -54.833 -23.5 -83.5c0 -34.667 11.333 -66.5 34 -95.5s51.167 -54 85.5 -75s71.833 -37.5 112.5 -49.5s79 -18 115 -18zM255.003 336.004
c-18 0 -37.001 2.83301 -57.001 8.5s-44 17.834 -72 36.501c24.667 19.333 47.834 32.833 69.501 40.5s41.5 11.5 59.5 11.5c9.33301 0 19.333 -1 30 -3s20.5 -5 29.5 -9s16.333 -8.83301 22 -14.5s8.5 -12.167 8.5 -19.5s-2.83301 -14 -8.5 -20s-13 -11.333 -22 -16
s-18.833 -8.33398 -29.5 -11.001s-20.667 -4 -30 -4zM232.002 734.004l88 -47c2 -2 4 -3 6 -3c4 0 7.5 1.5 10.5 4.5s4.5 6.5 4.5 10.5c0 4.66699 -2.66699 8.66699 -8 12l-88 47c-2.66699 1.33301 -4.66699 2 -6 2c-4 0 -7.5 -1.33301 -10.5 -4s-4.5 -6 -4.5 -10
c0 -5.33301 2.66699 -9.33301 8 -12z" />
    <glyph glyph-name="Eacute" unicode="&#xc9;" horiz-adv-x="601" 
d="M353 -11c24.667 0 49.6699 3.6709 75.0029 11.0039s49.5 17.166 72.5 29.499s44.167 26.833 63.5 43.5s35.333 34.667 48 54c0 1.33301 0.166992 2.66602 0.5 3.99902s0.5 2.33301 0.5 3c0 5.33301 -2.33301 9.33301 -7 12c-0.666992 0.666992 -2.33398 1 -5.00098 1
c-6.66699 0 -10.667 -2.33301 -12 -7c-12 -17.333 -26.833 -33.666 -44.5 -48.999s-37 -28.833 -58 -40.5s-43 -20.834 -66 -27.501s-45.5 -10 -67.5 -10c-32.667 0 -67.834 5.5 -105.501 16.5s-72.5 26.167 -104.5 45.5s-58.667 42 -80 68s-32 54 -32 84
c0 23.333 6.5 47.666 19.5 72.999s31.167 47.333 54.5 66c44 -36.667 94 -55 150 -55c10.667 0 22.667 1.5 36 4.5s25.666 7.66699 36.999 14s21 14.333 29 24s12 20.834 12 33.501s-4.16699 23.5 -12.5 32.5s-18.5 16.333 -30.5 22s-24.5 9.66699 -37.5 12
s-24.167 3.5 -33.5 3.5c-23.333 0 -48.166 -5 -74.499 -15s-51.166 -24.333 -74.499 -43c-18.667 17.333 -31.667 34.166 -39 50.499s-11 32.166 -11 47.499c0 20.667 7.33301 40.334 22 59.001s33.167 34.834 55.5 48.501s46.833 24.5 73.5 32.5s51.667 12 75 12
c26 0 48.667 -1.66699 68 -5s36.166 -7.83301 50.499 -13.5s26.833 -12 37.5 -19s20.667 -14.5 30 -22.5c3.33301 -3.33301 5.66602 -5 6.99902 -5s2.66602 0.333008 3.99902 1l4 2c3.33301 4.66699 5 8.66699 5 12c0 1.33301 -1.66699 3.66602 -5 6.99902
c-10 9.33301 -21 18.166 -33 26.499s-25.833 15.5 -41.5 21.5s-33.834 10.833 -54.501 14.5s-44.667 5.5 -72 5.5c-24.667 0 -51.667 -4.5 -81 -13.5s-56.5 -21.167 -81.5 -36.5s-46 -33.833 -63 -55.5s-25.5 -45.5 -25.5 -71.5
c0.666992 -21.333 5.83398 -41.833 15.501 -61.5s22.834 -37.167 39.501 -52.5c-22 -21.333 -40.833 -45.5 -56.5 -72.5s-23.5 -54.833 -23.5 -83.5c0 -34.667 11.333 -66.5 34 -95.5s51.167 -54 85.5 -75s71.833 -37.5 112.5 -49.5s79 -18 115 -18zM255.003 336.004
c-18 0 -37.001 2.83301 -57.001 8.5s-44 17.834 -72 36.501c24.667 19.333 47.834 32.833 69.501 40.5s41.5 11.5 59.5 11.5c9.33301 0 19.333 -1 30 -3s20.5 -5 29.5 -9s16.333 -8.83301 22 -14.5s8.5 -12.167 8.5 -19.5s-2.83301 -14 -8.5 -20s-13 -11.333 -22 -16
s-18.833 -8.33398 -29.5 -11.001s-20.667 -4 -30 -4zM317.002 758.004c-9.33301 -13.333 -20.167 -24 -32.5 -32s-26.166 -12 -41.499 -12h-9c-5.33301 0 -9 -1.33301 -11 -4s-3 -5.66699 -3 -9c0 -8.66699 4.66699 -13 14 -13h8c19.333 0 37.333 5.33301 54 16
s31 23.667 43 39c2 2 3 4.33301 3 7c0 4 -1.5 7.33301 -4.5 10s-6.16699 4 -9.5 4c-4.66699 0 -8.33398 -2 -11.001 -6z" />
    <glyph glyph-name="Ecircumflex" unicode="&#xca;" horiz-adv-x="601" 
d="M353 -11c24.667 0 49.6699 3.6709 75.0029 11.0039s49.5 17.166 72.5 29.499s44.167 26.833 63.5 43.5s35.333 34.667 48 54c0 1.33301 0.166992 2.66602 0.5 3.99902s0.5 2.33301 0.5 3c0 5.33301 -2.33301 9.33301 -7 12c-0.666992 0.666992 -2.33398 1 -5.00098 1
c-6.66699 0 -10.667 -2.33301 -12 -7c-12 -17.333 -26.833 -33.666 -44.5 -48.999s-37 -28.833 -58 -40.5s-43 -20.834 -66 -27.501s-45.5 -10 -67.5 -10c-32.667 0 -67.834 5.5 -105.501 16.5s-72.5 26.167 -104.5 45.5s-58.667 42 -80 68s-32 54 -32 84
c0 23.333 6.5 47.666 19.5 72.999s31.167 47.333 54.5 66c44 -36.667 94 -55 150 -55c10.667 0 22.667 1.5 36 4.5s25.666 7.66699 36.999 14s21 14.333 29 24s12 20.834 12 33.501s-4.16699 23.5 -12.5 32.5s-18.5 16.333 -30.5 22s-24.5 9.66699 -37.5 12
s-24.167 3.5 -33.5 3.5c-23.333 0 -48.166 -5 -74.499 -15s-51.166 -24.333 -74.499 -43c-18.667 17.333 -31.667 34.166 -39 50.499s-11 32.166 -11 47.499c0 20.667 7.33301 40.334 22 59.001s33.167 34.834 55.5 48.501s46.833 24.5 73.5 32.5s51.667 12 75 12
c26 0 48.667 -1.66699 68 -5s36.166 -7.83301 50.499 -13.5s26.833 -12 37.5 -19s20.667 -14.5 30 -22.5c3.33301 -3.33301 5.66602 -5 6.99902 -5s2.66602 0.333008 3.99902 1l4 2c3.33301 4.66699 5 8.66699 5 12c0 1.33301 -1.66699 3.66602 -5 6.99902
c-10 9.33301 -21 18.166 -33 26.499s-25.833 15.5 -41.5 21.5s-33.834 10.833 -54.501 14.5s-44.667 5.5 -72 5.5c-24.667 0 -51.667 -4.5 -81 -13.5s-56.5 -21.167 -81.5 -36.5s-46 -33.833 -63 -55.5s-25.5 -45.5 -25.5 -71.5
c0.666992 -21.333 5.83398 -41.833 15.501 -61.5s22.834 -37.167 39.501 -52.5c-22 -21.333 -40.833 -45.5 -56.5 -72.5s-23.5 -54.833 -23.5 -83.5c0 -34.667 11.333 -66.5 34 -95.5s51.167 -54 85.5 -75s71.833 -37.5 112.5 -49.5s79 -18 115 -18zM255.003 336.004
c-18 0 -37.001 2.83301 -57.001 8.5s-44 17.834 -72 36.501c24.667 19.333 47.834 32.833 69.501 40.5s41.5 11.5 59.5 11.5c9.33301 0 19.333 -1 30 -3s20.5 -5 29.5 -9s16.333 -8.83301 22 -14.5s8.5 -12.167 8.5 -19.5s-2.83301 -14 -8.5 -20s-13 -11.333 -22 -16
s-18.833 -8.33398 -29.5 -11.001s-20.667 -4 -30 -4zM218.002 688.004l66.001 40.999l61 -45c2 -2 4.66699 -3 8 -3c4 0 7.16699 1.5 9.5 4.5s3.5 6.16699 3.5 9.5c0 4.66699 -1.66699 8.33398 -5 11.001l-65 48c-2 2 -4.66699 3 -8 3
c-1.33301 0 -2.33301 -0.166992 -3 -0.5s-1.33398 -0.5 -2.00098 -0.5h-1c-4 0 -6.66699 -0.666992 -8 -2l-70 -44c-4 -4 -6 -8 -6 -12c0 -8.66699 4 -13 12 -13c3.33301 0 6 1 8 3z" />
    <glyph glyph-name="Edieresis" unicode="&#xcb;" horiz-adv-x="601" 
d="M353 -11c24.667 0 49.6699 3.6709 75.0029 11.0039s49.5 17.166 72.5 29.499s44.167 26.833 63.5 43.5s35.333 34.667 48 54c0 1.33301 0.166992 2.66602 0.5 3.99902s0.5 2.33301 0.5 3c0 5.33301 -2.33301 9.33301 -7 12c-0.666992 0.666992 -2.33398 1 -5.00098 1
c-6.66699 0 -10.667 -2.33301 -12 -7c-12 -17.333 -26.833 -33.666 -44.5 -48.999s-37 -28.833 -58 -40.5s-43 -20.834 -66 -27.501s-45.5 -10 -67.5 -10c-32.667 0 -67.834 5.5 -105.501 16.5s-72.5 26.167 -104.5 45.5s-58.667 42 -80 68s-32 54 -32 84
c0 23.333 6.5 47.666 19.5 72.999s31.167 47.333 54.5 66c44 -36.667 94 -55 150 -55c10.667 0 22.667 1.5 36 4.5s25.666 7.66699 36.999 14s21 14.333 29 24s12 20.834 12 33.501s-4.16699 23.5 -12.5 32.5s-18.5 16.333 -30.5 22s-24.5 9.66699 -37.5 12
s-24.167 3.5 -33.5 3.5c-23.333 0 -48.166 -5 -74.499 -15s-51.166 -24.333 -74.499 -43c-18.667 17.333 -31.667 34.166 -39 50.499s-11 32.166 -11 47.499c0 20.667 7.33301 40.334 22 59.001s33.167 34.834 55.5 48.501s46.833 24.5 73.5 32.5s51.667 12 75 12
c26 0 48.667 -1.66699 68 -5s36.166 -7.83301 50.499 -13.5s26.833 -12 37.5 -19s20.667 -14.5 30 -22.5c3.33301 -3.33301 5.66602 -5 6.99902 -5s2.66602 0.333008 3.99902 1l4 2c3.33301 4.66699 5 8.66699 5 12c0 1.33301 -1.66699 3.66602 -5 6.99902
c-10 9.33301 -21 18.166 -33 26.499s-25.833 15.5 -41.5 21.5s-33.834 10.833 -54.501 14.5s-44.667 5.5 -72 5.5c-24.667 0 -51.667 -4.5 -81 -13.5s-56.5 -21.167 -81.5 -36.5s-46 -33.833 -63 -55.5s-25.5 -45.5 -25.5 -71.5
c0.666992 -21.333 5.83398 -41.833 15.501 -61.5s22.834 -37.167 39.501 -52.5c-22 -21.333 -40.833 -45.5 -56.5 -72.5s-23.5 -54.833 -23.5 -83.5c0 -34.667 11.333 -66.5 34 -95.5s51.167 -54 85.5 -75s71.833 -37.5 112.5 -49.5s79 -18 115 -18zM255.003 336.004
c-18 0 -37.001 2.83301 -57.001 8.5s-44 17.834 -72 36.501c24.667 19.333 47.834 32.833 69.501 40.5s41.5 11.5 59.5 11.5c9.33301 0 19.333 -1 30 -3s20.5 -5 29.5 -9s16.333 -8.83301 22 -14.5s8.5 -12.167 8.5 -19.5s-2.83301 -14 -8.5 -20s-13 -11.333 -22 -16
s-18.833 -8.33398 -29.5 -11.001s-20.667 -4 -30 -4zM206.002 741.004c0 7.33301 2.5 13.333 7.5 18s11.167 7 18.5 7s13.5 -2.33301 18.5 -7s7.5 -10.667 7.5 -18s-2.5 -13.166 -7.5 -17.499s-11.167 -6.5 -18.5 -6.5s-13.5 2.16699 -18.5 6.5s-7.5 10.166 -7.5 17.499z
M309.002 739.004c0 7.33301 2.5 13.333 7.5 18s11.167 7 18.5 7s13.5 -2.33301 18.5 -7s7.5 -10.667 7.5 -18s-2.5 -13.166 -7.5 -17.499s-11.167 -6.5 -18.5 -6.5s-13.5 2.16699 -18.5 6.5s-7.5 10.166 -7.5 17.499z" />
    <glyph glyph-name="Igrave" unicode="&#xcc;" 
d="M273 -11c32.667 0 63.3262 6.50488 91.9932 19.5049s53.334 30.333 74.001 52s36.834 46.167 48.501 73.5s17.5 55 17.5 83v3c0 19.333 -0.666992 39.333 -2 60l-4 63c-1.33301 23.333 -2.83301 46.833 -4.5 70.5s-2.5 47.167 -2.5 70.5c0 25.333 1.33301 50 4 74
s7.66699 46.667 15 68v4c0 3.33301 -1.16699 6.33301 -3.5 9s-5.16602 4 -8.49902 4c-2.66699 0 -5 -1 -7 -3v1c-15.333 -10 -30 -17 -44 -21s-27.333 -6 -40 -6c-18 0 -35.667 2.66699 -53 8s-34.666 11.666 -51.999 18.999s-35.166 14 -53.499 20s-37.5 9 -57.5 9
c-20.667 0 -42 -3 -64 -9s-42 -15.5 -60 -28.5s-32.833 -29.833 -44.5 -50.5s-17.5 -46 -17.5 -76v-3c0 -14 3 -29.167 9 -45.5s14.333 -31.5 25 -45.5s23.5 -25.5 38.5 -34.5s31.5 -13.5 49.5 -13.5c6.66699 0 13 0.666992 19 2s12.333 3 19 5c6 2.66699 9 7 9 13v5
c-3.33301 4.66699 -7.66602 7 -12.999 7h-3c-5.33301 -2.66699 -10.5 -4.33398 -15.5 -5.00098s-9.83301 -1 -14.5 -1c-14 0 -27 3.5 -39 10.5s-22.333 16 -31 27s-15.5 23.167 -20.5 36.5s-7.5 26.333 -7.5 39c0 26 4.83301 47.833 14.5 65.5s22.167 32.167 37.5 43.5
s32.5 19.666 51.5 24.999s38.167 8.33301 57.5 9c17.333 0 34.5 -3 51.5 -9s34.167 -12.667 51.5 -20c18 -8 36.5 -15 55.5 -21s38.5 -9 58.5 -9c11.333 0 22.833 1 34.5 3s23.167 5.66699 34.5 11c-5.33301 -18.667 -8.83301 -38.5 -10.5 -59.5s-2.5 -42.5 -2.5 -64.5
c0 -24 0.833008 -48.333 2.5 -73s3.5 -49 5.5 -73c1.33301 -20 3 -39.333 5 -58s3 -36.334 3 -53.001c0 -24.667 -5.16699 -49.334 -15.5 -74.001s-24.833 -46.834 -43.5 -66.501s-40.667 -35.667 -66 -48s-53 -18.5 -83 -18.5c-25.333 0 -49.5 2.83301 -72.5 8.5
s-44.333 14.334 -64 26.001s-36.667 26 -51 43s-25.166 36.833 -32.499 59.5c-1.33301 2 -3 4 -5 6s-4 3 -6 3c-8.66699 -2.66699 -13 -6.66699 -13 -12c7.33301 -24.667 18.666 -46.667 33.999 -66s33 -35.833 53 -49.5s41.333 -24.167 64 -31.5s45.334 -11 68.001 -11h25z
M222.992 734.005l88 -47c2 -2 4 -3 6 -3c4 0 7.5 1.5 10.5 4.5s4.5 6.5 4.5 10.5c0 4.66699 -2.66699 8.66699 -8 12l-88 47c-2.66699 1.33301 -4.66699 2 -6 2c-4 0 -7.5 -1.33301 -10.5 -4s-4.5 -6 -4.5 -10c0 -5.33301 2.66699 -9.33301 8 -12z" />
    <glyph glyph-name="Iacute" unicode="&#xcd;" 
d="M273 -11c32.667 0 63.3262 6.50488 91.9932 19.5049s53.334 30.333 74.001 52s36.834 46.167 48.501 73.5s17.5 55 17.5 83v3c0 19.333 -0.666992 39.333 -2 60l-4 63c-1.33301 23.333 -2.83301 46.833 -4.5 70.5s-2.5 47.167 -2.5 70.5c0 25.333 1.33301 50 4 74
s7.66699 46.667 15 68v4c0 3.33301 -1.16699 6.33301 -3.5 9s-5.16602 4 -8.49902 4c-2.66699 0 -5 -1 -7 -3v1c-15.333 -10 -30 -17 -44 -21s-27.333 -6 -40 -6c-18 0 -35.667 2.66699 -53 8s-34.666 11.666 -51.999 18.999s-35.166 14 -53.499 20s-37.5 9 -57.5 9
c-20.667 0 -42 -3 -64 -9s-42 -15.5 -60 -28.5s-32.833 -29.833 -44.5 -50.5s-17.5 -46 -17.5 -76v-3c0 -14 3 -29.167 9 -45.5s14.333 -31.5 25 -45.5s23.5 -25.5 38.5 -34.5s31.5 -13.5 49.5 -13.5c6.66699 0 13 0.666992 19 2s12.333 3 19 5c6 2.66699 9 7 9 13v5
c-3.33301 4.66699 -7.66602 7 -12.999 7h-3c-5.33301 -2.66699 -10.5 -4.33398 -15.5 -5.00098s-9.83301 -1 -14.5 -1c-14 0 -27 3.5 -39 10.5s-22.333 16 -31 27s-15.5 23.167 -20.5 36.5s-7.5 26.333 -7.5 39c0 26 4.83301 47.833 14.5 65.5s22.167 32.167 37.5 43.5
s32.5 19.666 51.5 24.999s38.167 8.33301 57.5 9c17.333 0 34.5 -3 51.5 -9s34.167 -12.667 51.5 -20c18 -8 36.5 -15 55.5 -21s38.5 -9 58.5 -9c11.333 0 22.833 1 34.5 3s23.167 5.66699 34.5 11c-5.33301 -18.667 -8.83301 -38.5 -10.5 -59.5s-2.5 -42.5 -2.5 -64.5
c0 -24 0.833008 -48.333 2.5 -73s3.5 -49 5.5 -73c1.33301 -20 3 -39.333 5 -58s3 -36.334 3 -53.001c0 -24.667 -5.16699 -49.334 -15.5 -74.001s-24.833 -46.834 -43.5 -66.501s-40.667 -35.667 -66 -48s-53 -18.5 -83 -18.5c-25.333 0 -49.5 2.83301 -72.5 8.5
s-44.333 14.334 -64 26.001s-36.667 26 -51 43s-25.166 36.833 -32.499 59.5c-1.33301 2 -3 4 -5 6s-4 3 -6 3c-8.66699 -2.66699 -13 -6.66699 -13 -12c7.33301 -24.667 18.666 -46.667 33.999 -66s33 -35.833 53 -49.5s41.333 -24.167 64 -31.5s45.334 -11 68.001 -11h25z
M307.992 758.005c-9.33301 -13.333 -20.167 -24 -32.5 -32s-26.166 -12 -41.499 -12h-9c-5.33301 0 -9 -1.33301 -11 -4s-3 -5.66699 -3 -9c0 -8.66699 4.66699 -13 14 -13h8c19.333 0 37.333 5.33301 54 16s31 23.667 43 39c2 2 3 4.33301 3 7c0 4 -1.5 7.33301 -4.5 10
s-6.16699 4 -9.5 4c-4.66699 0 -8.33398 -2 -11.001 -6z" />
    <glyph glyph-name="Icircumflex" unicode="&#xce;" 
d="M273 -11c32.667 0 63.3262 6.50488 91.9932 19.5049s53.334 30.333 74.001 52s36.834 46.167 48.501 73.5s17.5 55 17.5 83v3c0 19.333 -0.666992 39.333 -2 60l-4 63c-1.33301 23.333 -2.83301 46.833 -4.5 70.5s-2.5 47.167 -2.5 70.5c0 25.333 1.33301 50 4 74
s7.66699 46.667 15 68v4c0 3.33301 -1.16699 6.33301 -3.5 9s-5.16602 4 -8.49902 4c-2.66699 0 -5 -1 -7 -3v1c-15.333 -10 -30 -17 -44 -21s-27.333 -6 -40 -6c-18 0 -35.667 2.66699 -53 8s-34.666 11.666 -51.999 18.999s-35.166 14 -53.499 20s-37.5 9 -57.5 9
c-20.667 0 -42 -3 -64 -9s-42 -15.5 -60 -28.5s-32.833 -29.833 -44.5 -50.5s-17.5 -46 -17.5 -76v-3c0 -14 3 -29.167 9 -45.5s14.333 -31.5 25 -45.5s23.5 -25.5 38.5 -34.5s31.5 -13.5 49.5 -13.5c6.66699 0 13 0.666992 19 2s12.333 3 19 5c6 2.66699 9 7 9 13v5
c-3.33301 4.66699 -7.66602 7 -12.999 7h-3c-5.33301 -2.66699 -10.5 -4.33398 -15.5 -5.00098s-9.83301 -1 -14.5 -1c-14 0 -27 3.5 -39 10.5s-22.333 16 -31 27s-15.5 23.167 -20.5 36.5s-7.5 26.333 -7.5 39c0 26 4.83301 47.833 14.5 65.5s22.167 32.167 37.5 43.5
s32.5 19.666 51.5 24.999s38.167 8.33301 57.5 9c17.333 0 34.5 -3 51.5 -9s34.167 -12.667 51.5 -20c18 -8 36.5 -15 55.5 -21s38.5 -9 58.5 -9c11.333 0 22.833 1 34.5 3s23.167 5.66699 34.5 11c-5.33301 -18.667 -8.83301 -38.5 -10.5 -59.5s-2.5 -42.5 -2.5 -64.5
c0 -24 0.833008 -48.333 2.5 -73s3.5 -49 5.5 -73c1.33301 -20 3 -39.333 5 -58s3 -36.334 3 -53.001c0 -24.667 -5.16699 -49.334 -15.5 -74.001s-24.833 -46.834 -43.5 -66.501s-40.667 -35.667 -66 -48s-53 -18.5 -83 -18.5c-25.333 0 -49.5 2.83301 -72.5 8.5
s-44.333 14.334 -64 26.001s-36.667 26 -51 43s-25.166 36.833 -32.499 59.5c-1.33301 2 -3 4 -5 6s-4 3 -6 3c-8.66699 -2.66699 -13 -6.66699 -13 -12c7.33301 -24.667 18.666 -46.667 33.999 -66s33 -35.833 53 -49.5s41.333 -24.167 64 -31.5s45.334 -11 68.001 -11h25z
M208.992 688.005l66.001 40.999l61 -45c2 -2 4.66699 -3 8 -3c4 0 7.16699 1.5 9.5 4.5s3.5 6.16699 3.5 9.5c0 4.66699 -1.66699 8.33398 -5 11.001l-65 48c-2 2 -4.66699 3 -8 3c-1.33301 0 -2.33301 -0.166992 -3 -0.5s-1.33398 -0.5 -2.00098 -0.5h-1
c-4 0 -6.66699 -0.666992 -8 -2l-70 -44c-4 -4 -6 -8 -6 -12c0 -8.66699 4 -13 12 -13c3.33301 0 6 1 8 3z" />
    <glyph glyph-name="Idieresis" unicode="&#xcf;" 
d="M273 -11c32.667 0 63.3262 6.50488 91.9932 19.5049s53.334 30.333 74.001 52s36.834 46.167 48.501 73.5s17.5 55 17.5 83v3c0 19.333 -0.666992 39.333 -2 60l-4 63c-1.33301 23.333 -2.83301 46.833 -4.5 70.5s-2.5 47.167 -2.5 70.5c0 25.333 1.33301 50 4 74
s7.66699 46.667 15 68v4c0 3.33301 -1.16699 6.33301 -3.5 9s-5.16602 4 -8.49902 4c-2.66699 0 -5 -1 -7 -3v1c-15.333 -10 -30 -17 -44 -21s-27.333 -6 -40 -6c-18 0 -35.667 2.66699 -53 8s-34.666 11.666 -51.999 18.999s-35.166 14 -53.499 20s-37.5 9 -57.5 9
c-20.667 0 -42 -3 -64 -9s-42 -15.5 -60 -28.5s-32.833 -29.833 -44.5 -50.5s-17.5 -46 -17.5 -76v-3c0 -14 3 -29.167 9 -45.5s14.333 -31.5 25 -45.5s23.5 -25.5 38.5 -34.5s31.5 -13.5 49.5 -13.5c6.66699 0 13 0.666992 19 2s12.333 3 19 5c6 2.66699 9 7 9 13v5
c-3.33301 4.66699 -7.66602 7 -12.999 7h-3c-5.33301 -2.66699 -10.5 -4.33398 -15.5 -5.00098s-9.83301 -1 -14.5 -1c-14 0 -27 3.5 -39 10.5s-22.333 16 -31 27s-15.5 23.167 -20.5 36.5s-7.5 26.333 -7.5 39c0 26 4.83301 47.833 14.5 65.5s22.167 32.167 37.5 43.5
s32.5 19.666 51.5 24.999s38.167 8.33301 57.5 9c17.333 0 34.5 -3 51.5 -9s34.167 -12.667 51.5 -20c18 -8 36.5 -15 55.5 -21s38.5 -9 58.5 -9c11.333 0 22.833 1 34.5 3s23.167 5.66699 34.5 11c-5.33301 -18.667 -8.83301 -38.5 -10.5 -59.5s-2.5 -42.5 -2.5 -64.5
c0 -24 0.833008 -48.333 2.5 -73s3.5 -49 5.5 -73c1.33301 -20 3 -39.333 5 -58s3 -36.334 3 -53.001c0 -24.667 -5.16699 -49.334 -15.5 -74.001s-24.833 -46.834 -43.5 -66.501s-40.667 -35.667 -66 -48s-53 -18.5 -83 -18.5c-25.333 0 -49.5 2.83301 -72.5 8.5
s-44.333 14.334 -64 26.001s-36.667 26 -51 43s-25.166 36.833 -32.499 59.5c-1.33301 2 -3 4 -5 6s-4 3 -6 3c-8.66699 -2.66699 -13 -6.66699 -13 -12c7.33301 -24.667 18.666 -46.667 33.999 -66s33 -35.833 53 -49.5s41.333 -24.167 64 -31.5s45.334 -11 68.001 -11h25z
M195.992 741.005c0 7.33301 2.5 13.333 7.5 18s11.167 7 18.5 7s13.5 -2.33301 18.5 -7s7.5 -10.667 7.5 -18s-2.5 -13.166 -7.5 -17.499s-11.167 -6.5 -18.5 -6.5s-13.5 2.16699 -18.5 6.5s-7.5 10.166 -7.5 17.499zM298.992 739.005c0 7.33301 2.5 13.333 7.5 18
s11.167 7 18.5 7s13.5 -2.33301 18.5 -7s7.5 -10.667 7.5 -18s-2.5 -13.166 -7.5 -17.499s-11.167 -6.5 -18.5 -6.5s-13.5 2.16699 -18.5 6.5s-7.5 10.166 -7.5 17.499z" />
    <glyph glyph-name="Eth" unicode="&#xd0;" horiz-adv-x="628" 
d="M139 299l90 0.000976562c1.33301 -12.667 2.33301 -25.167 3 -37.5s1 -24.166 1 -35.499c0 -20 -2.16699 -42.333 -6.5 -67s-12.5 -48 -24.5 -70c-27.333 13.333 -51.666 20 -72.999 20c-8 -0.666992 -16.5 -2.66699 -25.5 -6s-17.333 -8 -25 -14s-14 -12.833 -19 -20.5
s-7.5 -15.834 -7.5 -24.501c0 -12 2.5 -21.5 7.5 -28.5s11.333 -12.333 19 -16s15.5 -6.16699 23.5 -7.5s15 -2 21 -2c18 0 34.5 6 49.5 18s28.5 28 40.5 48l6 -2c13.333 -6.66699 26.333 -13.667 39 -21s25.5 -14 38.5 -20s26.667 -10.833 41 -14.5
s30.166 -5.5 47.499 -5.5c38.667 0 73.834 10.667 105.501 32s58.667 48.5 81 81.5s39.5 69.167 51.5 108.5s18 77.333 18 114c0 42.667 -8.33301 84.5 -25 125.5s-39.334 77.5 -68.001 109.5s-62.334 57.833 -101.001 77.5s-80.334 29.5 -125.001 29.5
c-37.333 0 -72.333 -7 -105 -21s-62.5 -32 -89.5 -54s-50.833 -47 -71.5 -75s-37.334 -56 -50.001 -84c0 -8.66699 2.33301 -14 7 -16c4.66699 0 8.16699 0.666992 10.5 2s4.83301 3.33301 7.5 6c12.667 26 28.5 52 47.5 78s40.833 49.333 65.5 70s52 37.5 82 50.5
s62 19.5 96 19.5c40.667 0 78.834 -9 114.501 -27s66.667 -42 93 -72s47.166 -64 62.499 -102s23 -77 23 -117c0 -35.333 -5.66699 -71.5 -17 -108.5s-27.166 -70.5 -47.499 -100.5s-44.666 -54.667 -72.999 -74s-59.166 -29 -92.499 -29
c-12.667 0 -25.834 2.16699 -39.501 6.5s-27.5 9.5 -41.5 15.5s-27.667 12.667 -41 20l-38 20c10.667 22.667 18.834 47 24.501 73s8.5 50.667 8.5 74c0 12 -0.5 24.167 -1.5 36.5s-2.16699 24.5 -3.5 36.5h88c8.66699 0 13 4.33301 13 13c0 3.33301 -1 6.33301 -3 9
s-5.33301 4 -10 4h-91c0 2.66699 -0.166992 5.16699 -0.5 7.5s-0.5 4.83301 -0.5 7.5c-2 17.333 -3.83301 34.5 -5.5 51.5s-2.5 33.167 -2.5 48.5c0.666992 25.333 5 51 13 77s19.667 44.667 35 56c3.33301 0.666992 5.33301 2 6 4s1 4 1 6c0 8.66699 -4.33301 13 -13 13
c-2.66699 0 -5 -1 -7 -3c-10.667 -6.66699 -19.667 -15.834 -27 -27.501s-13.333 -24.667 -18 -39s-8.16699 -29 -10.5 -44s-3.83301 -29.167 -4.5 -42.5c0 -17.333 1.66699 -36 5 -56s5 -39.667 5 -59h-87c-4.66699 0 -8.16699 -1.33301 -10.5 -4s-3.5 -5.66699 -3.5 -9
c0 -8.66699 4.66699 -13 14 -13zM123 16.001c-13.333 0 -24.5 2 -33.5 6s-13.5 11 -13.5 21s5.83301 19.167 17.5 27.5s23.5 12.5 35.5 12.5c9.33301 0 19.166 -1.16699 29.499 -3.5s21.166 -6.5 32.499 -12.5c-9.33301 -18 -19.666 -31 -30.999 -39
s-23.666 -12 -36.999 -12z" />
    <glyph glyph-name="Ntilde" unicode="&#xd1;" horiz-adv-x="783" 
d="M652 1c11.333 0 23.667 3.66895 37 11.002s26.333 17.166 39 29.499s24.667 26.5 36 42.5s21 32.667 29 50v5c0 4.66699 -2.33301 8.33398 -7 11.001h-4c-2 0 -4.33301 -0.333008 -7 -1s-4.66699 -2.66699 -6 -6c-7.33301 -16.667 -15.833 -32.167 -25.5 -46.5
s-20 -26.666 -31 -36.999s-21.833 -18.5 -32.5 -24.5s-20 -9 -28 -9c-8.66699 0 -17.334 2 -26.001 6s-16.5 9.16699 -23.5 15.5s-12.833 13.666 -17.5 21.999s-7 16.5 -7 24.5v482c0 10 -2 21 -6 33s-9.83301 23.167 -17.5 33.5s-16.5 19 -26.5 26s-21 10.5 -33 10.5
c-26.667 -0.666992 -51.167 -7.16699 -73.5 -19.5s-42.666 -28.833 -60.999 -49.5s-34.666 -44.834 -48.999 -72.501s-26.5 -56.834 -36.5 -87.501v19c0 18.667 -1.5 39.5 -4.5 62.5s-7.16699 44.833 -12.5 65.5c-2.66699 10 -5.83398 19.833 -9.50098 29.5
s-8 18.5 -13 26.5s-10.833 14.333 -17.5 19s-14 7 -22 7c-22.667 -0.666992 -43.834 -8.66699 -63.501 -24s-37.5 -34.166 -53.5 -56.499s-30.167 -46.5 -42.5 -72.5s-22.5 -50 -30.5 -72l2 2c-2 -2 -3 -4 -3 -6s0.833008 -4.16699 2.5 -6.5s3.5 -3.83301 5.5 -4.5h5
c4.66699 0 8.33398 2.33301 11.001 7c8.66699 22 18.834 45.167 30.501 69.5s24.834 46.666 39.501 66.999s30.167 37.166 46.5 50.499s33.166 20 50.499 20c13.333 0 25.666 -21 36.999 -63c6 -20 10.5 -41.167 13.5 -63.5s4.5 -41.5 4.5 -57.5l-2 -113v-5l-3 -331
c0 -7.33301 4 -11 12 -11c2.66699 0 5.5 1 8.5 3s4.5 4.66699 4.5 8l2 331c8.66699 40 19.834 78.167 33.501 114.5s29.667 68.333 48 96s39.166 49.834 62.499 66.501s49.333 25 78 25h1c7.33301 0 14.333 -2.5 21 -7.5s12.667 -11.167 18 -18.5
s9.66602 -15.5 12.999 -24.5s5 -17.833 5 -26.5l-1 -482c0 -12 3.16699 -23.5 9.5 -34.5s14.333 -20.833 24 -29.5s20.334 -15.667 32.001 -21s23.167 -8 34.5 -8zM353.001 701.002l0.00195312 6c0 2.66699 -0.666992 5.33398 -2 8.00098
c1.33301 8 5.16602 13.833 11.499 17.5s13.166 5.5 20.499 5.5c8 0 15.667 -2.33301 23 -7s11.666 -11.334 12.999 -20.001c5.33301 -9.33301 12.166 -15.833 20.499 -19.5s17.166 -5.5 26.499 -5.5c16 0 30.833 5 44.5 15s20.5 23.333 20.5 40c0 6 -1 12 -3 18s-6 9 -12 9
c-3.33301 0 -6.5 -1.16699 -9.5 -3.5s-4.5 -5.83301 -4.5 -10.5v-1c0.666992 -2 1.33398 -3.83301 2.00098 -5.5s1 -3.16699 1 -4.5c0 -9.33301 -4 -16.833 -12 -22.5s-16.667 -8.5 -26 -8.5c-6 0 -11.667 1.33301 -17 4s-9 7.66699 -11 15
c-5.33301 11.333 -13.166 19.833 -23.499 25.5s-21.166 8.5 -32.499 8.5c-15.333 0 -29 -4.33301 -41 -13s-18 -21 -18 -37c0 -7.33301 1.33301 -13.833 4 -19.5s6.66699 -8.5 12 -8.5c3.33301 0 6.33301 1 9 3s4 5.66699 4 11z" />
    <glyph glyph-name="Ograve" unicode="&#xd2;" horiz-adv-x="711" 
d="M321 -1c42.667 0 82.667 8.99805 120 26.998s70 42.167 98 72.5s50 66 66 107s24 84.833 24 131.5v3c-0.666992 34.667 -5.5 67.334 -14.5 98.001s-21.833 60 -38.5 88c26 9.33301 51.167 22 75.5 38s46.833 36.667 67.5 62c2 2 3 4.33301 3 7c0 2 -0.5 3.83301 -1.5 5.5
s-1.83301 3.16699 -2.5 4.5c-1.33301 1.33301 -2.83301 2.16602 -4.5 2.49902s-3.16699 0.5 -4.5 0.5c-2 0 -3.83301 -0.166992 -5.5 -0.5s-3.16699 -2.16602 -4.5 -5.49902l2 1c-21.333 -23.333 -43.666 -42.666 -66.999 -57.999s-47.333 -27.333 -72 -36
c-25.333 36 -56.166 65.167 -92.499 87.5s-76.5 35.5 -120.5 39.5c-0.666992 1.33301 -1.33398 2 -2.00098 2h-1h-1c-4.66699 0 -9 0.166992 -13 0.5s-8.33301 0.5 -13 0.5h-3c-42.667 0 -82.834 -9 -120.501 -27s-70.5 -42.333 -98.5 -73s-50.167 -66.5 -66.5 -107.5
s-24.5 -84.5 -24.5 -130.5v-3c0.666992 -46.667 9.16699 -90.5 25.5 -131.5s38.5 -76.667 66.5 -107s60.833 -54.333 98.5 -72s78.167 -26.5 121.5 -26.5h3zM462 505.998l4.00586 0.000976562c13.333 0 27.166 0.833008 41.499 2.5s29.166 4.5 44.499 8.5
c15.333 -25.333 27.666 -52.833 36.999 -82.5s14.666 -61.167 15.999 -94.5v-3c0 -43.333 -7.5 -84 -22.5 -122s-35.5 -71.167 -61.5 -99.5s-56.167 -50.833 -90.5 -67.5s-70.833 -25 -109.5 -25h-3c-39.333 0 -76.333 8.16699 -111 24.5s-65 38.666 -91 66.999
s-46.5 61.5 -61.5 99.5s-22.5 78.667 -22.5 122v3c0 42.667 7.5 83 22.5 121s35.5 71.167 61.5 99.5s56.167 50.833 90.5 67.5s70.833 25.334 109.5 26.001h9c-4.66699 -8.66699 -7.83398 -16.834 -9.50098 -24.501s-2.5 -15.167 -2.5 -22.5
c0 -8.66699 1.33301 -16.5 4 -23.5s6.33398 -14.167 11.001 -21.5c10 -14 23.5 -25.333 40.5 -34s36.833 -14.667 59.5 -18h-2c3.33301 -1.33301 6.33301 -2 9 -2h10c3.33301 0 6.16602 -0.166992 8.49902 -0.5s5.16602 -0.5 8.49902 -0.5zM536.006 539.999
c-23.333 -6 -46.0029 -9.00098 -68.0029 -9.00098c-6.66699 0 -13.167 0.333008 -19.5 1s-12.166 1.33398 -17.499 2.00098c-39.333 6 -65.333 18 -78 36c-9.33301 12 -14 24.333 -14 37c0 6 0.833008 12.667 2.5 20s4.83398 15 9.50098 23
c37.333 -5.33301 71.833 -17.5 103.5 -36.5s58.834 -43.5 81.501 -73.5zM267.003 733.998l88 -47c2 -2 4 -3 6 -3c4 0 7.5 1.5 10.5 4.5s4.5 6.5 4.5 10.5c0 4.66699 -2.66699 8.66699 -8 12l-88 47c-2.66699 1.33301 -4.66699 2 -6 2c-4 0 -7.5 -1.33301 -10.5 -4
s-4.5 -6 -4.5 -10c0 -5.33301 2.66699 -9.33301 8 -12z" />
    <glyph glyph-name="Oacute" unicode="&#xd3;" horiz-adv-x="711" 
d="M321 -1c42.667 0 82.667 8.99805 120 26.998s70 42.167 98 72.5s50 66 66 107s24 84.833 24 131.5v3c-0.666992 34.667 -5.5 67.334 -14.5 98.001s-21.833 60 -38.5 88c26 9.33301 51.167 22 75.5 38s46.833 36.667 67.5 62c2 2 3 4.33301 3 7c0 2 -0.5 3.83301 -1.5 5.5
s-1.83301 3.16699 -2.5 4.5c-1.33301 1.33301 -2.83301 2.16602 -4.5 2.49902s-3.16699 0.5 -4.5 0.5c-2 0 -3.83301 -0.166992 -5.5 -0.5s-3.16699 -2.16602 -4.5 -5.49902l2 1c-21.333 -23.333 -43.666 -42.666 -66.999 -57.999s-47.333 -27.333 -72 -36
c-25.333 36 -56.166 65.167 -92.499 87.5s-76.5 35.5 -120.5 39.5c-0.666992 1.33301 -1.33398 2 -2.00098 2h-1h-1c-4.66699 0 -9 0.166992 -13 0.5s-8.33301 0.5 -13 0.5h-3c-42.667 0 -82.834 -9 -120.501 -27s-70.5 -42.333 -98.5 -73s-50.167 -66.5 -66.5 -107.5
s-24.5 -84.5 -24.5 -130.5v-3c0.666992 -46.667 9.16699 -90.5 25.5 -131.5s38.5 -76.667 66.5 -107s60.833 -54.333 98.5 -72s78.167 -26.5 121.5 -26.5h3zM462 505.998l4.00586 0.000976562c13.333 0 27.166 0.833008 41.499 2.5s29.166 4.5 44.499 8.5
c15.333 -25.333 27.666 -52.833 36.999 -82.5s14.666 -61.167 15.999 -94.5v-3c0 -43.333 -7.5 -84 -22.5 -122s-35.5 -71.167 -61.5 -99.5s-56.167 -50.833 -90.5 -67.5s-70.833 -25 -109.5 -25h-3c-39.333 0 -76.333 8.16699 -111 24.5s-65 38.666 -91 66.999
s-46.5 61.5 -61.5 99.5s-22.5 78.667 -22.5 122v3c0 42.667 7.5 83 22.5 121s35.5 71.167 61.5 99.5s56.167 50.833 90.5 67.5s70.833 25.334 109.5 26.001h9c-4.66699 -8.66699 -7.83398 -16.834 -9.50098 -24.501s-2.5 -15.167 -2.5 -22.5
c0 -8.66699 1.33301 -16.5 4 -23.5s6.33398 -14.167 11.001 -21.5c10 -14 23.5 -25.333 40.5 -34s36.833 -14.667 59.5 -18h-2c3.33301 -1.33301 6.33301 -2 9 -2h10c3.33301 0 6.16602 -0.166992 8.49902 -0.5s5.16602 -0.5 8.49902 -0.5zM536.006 539.999
c-23.333 -6 -46.0029 -9.00098 -68.0029 -9.00098c-6.66699 0 -13.167 0.333008 -19.5 1s-12.166 1.33398 -17.499 2.00098c-39.333 6 -65.333 18 -78 36c-9.33301 12 -14 24.333 -14 37c0 6 0.833008 12.667 2.5 20s4.83398 15 9.50098 23
c37.333 -5.33301 71.833 -17.5 103.5 -36.5s58.834 -43.5 81.501 -73.5zM352.003 757.998c-9.33301 -13.333 -20.167 -24 -32.5 -32s-26.166 -12 -41.499 -12h-9c-5.33301 0 -9 -1.33301 -11 -4s-3 -5.66699 -3 -9c0 -8.66699 4.66699 -13 14 -13h8
c19.333 0 37.333 5.33301 54 16s31 23.667 43 39c2 2 3 4.33301 3 7c0 4 -1.5 7.33301 -4.5 10s-6.16699 4 -9.5 4c-4.66699 0 -8.33398 -2 -11.001 -6z" />
    <glyph glyph-name="Ocircumflex" unicode="&#xd4;" horiz-adv-x="711" 
d="M321 -1c42.667 0 82.667 8.99805 120 26.998s70 42.167 98 72.5s50 66 66 107s24 84.833 24 131.5v3c-0.666992 34.667 -5.5 67.334 -14.5 98.001s-21.833 60 -38.5 88c26 9.33301 51.167 22 75.5 38s46.833 36.667 67.5 62c2 2 3 4.33301 3 7c0 2 -0.5 3.83301 -1.5 5.5
s-1.83301 3.16699 -2.5 4.5c-1.33301 1.33301 -2.83301 2.16602 -4.5 2.49902s-3.16699 0.5 -4.5 0.5c-2 0 -3.83301 -0.166992 -5.5 -0.5s-3.16699 -2.16602 -4.5 -5.49902l2 1c-21.333 -23.333 -43.666 -42.666 -66.999 -57.999s-47.333 -27.333 -72 -36
c-25.333 36 -56.166 65.167 -92.499 87.5s-76.5 35.5 -120.5 39.5c-0.666992 1.33301 -1.33398 2 -2.00098 2h-1h-1c-4.66699 0 -9 0.166992 -13 0.5s-8.33301 0.5 -13 0.5h-3c-42.667 0 -82.834 -9 -120.501 -27s-70.5 -42.333 -98.5 -73s-50.167 -66.5 -66.5 -107.5
s-24.5 -84.5 -24.5 -130.5v-3c0.666992 -46.667 9.16699 -90.5 25.5 -131.5s38.5 -76.667 66.5 -107s60.833 -54.333 98.5 -72s78.167 -26.5 121.5 -26.5h3zM462 505.998l4.00586 0.000976562c13.333 0 27.166 0.833008 41.499 2.5s29.166 4.5 44.499 8.5
c15.333 -25.333 27.666 -52.833 36.999 -82.5s14.666 -61.167 15.999 -94.5v-3c0 -43.333 -7.5 -84 -22.5 -122s-35.5 -71.167 -61.5 -99.5s-56.167 -50.833 -90.5 -67.5s-70.833 -25 -109.5 -25h-3c-39.333 0 -76.333 8.16699 -111 24.5s-65 38.666 -91 66.999
s-46.5 61.5 -61.5 99.5s-22.5 78.667 -22.5 122v3c0 42.667 7.5 83 22.5 121s35.5 71.167 61.5 99.5s56.167 50.833 90.5 67.5s70.833 25.334 109.5 26.001h9c-4.66699 -8.66699 -7.83398 -16.834 -9.50098 -24.501s-2.5 -15.167 -2.5 -22.5
c0 -8.66699 1.33301 -16.5 4 -23.5s6.33398 -14.167 11.001 -21.5c10 -14 23.5 -25.333 40.5 -34s36.833 -14.667 59.5 -18h-2c3.33301 -1.33301 6.33301 -2 9 -2h10c3.33301 0 6.16602 -0.166992 8.49902 -0.5s5.16602 -0.5 8.49902 -0.5zM536.006 539.999
c-23.333 -6 -46.0029 -9.00098 -68.0029 -9.00098c-6.66699 0 -13.167 0.333008 -19.5 1s-12.166 1.33398 -17.499 2.00098c-39.333 6 -65.333 18 -78 36c-9.33301 12 -14 24.333 -14 37c0 6 0.833008 12.667 2.5 20s4.83398 15 9.50098 23
c37.333 -5.33301 71.833 -17.5 103.5 -36.5s58.834 -43.5 81.501 -73.5zM253.003 687.998l66.001 40.999l61 -45c2 -2 4.66699 -3 8 -3c4 0 7.16699 1.5 9.5 4.5s3.5 6.16699 3.5 9.5c0 4.66699 -1.66699 8.33398 -5 11.001l-65 48c-2 2 -4.66699 3 -8 3
c-1.33301 0 -2.33301 -0.166992 -3 -0.5s-1.33398 -0.5 -2.00098 -0.5h-1c-4 0 -6.66699 -0.666992 -8 -2l-70 -44c-4 -4 -6 -8 -6 -12c0 -8.66699 4 -13 12 -13c3.33301 0 6 1 8 3z" />
    <glyph glyph-name="Otilde" unicode="&#xd5;" horiz-adv-x="711" 
d="M321 -1c42.667 0 82.667 8.99805 120 26.998s70 42.167 98 72.5s50 66 66 107s24 84.833 24 131.5v3c-0.666992 34.667 -5.5 67.334 -14.5 98.001s-21.833 60 -38.5 88c26 9.33301 51.167 22 75.5 38s46.833 36.667 67.5 62c2 2 3 4.33301 3 7c0 2 -0.5 3.83301 -1.5 5.5
s-1.83301 3.16699 -2.5 4.5c-1.33301 1.33301 -2.83301 2.16602 -4.5 2.49902s-3.16699 0.5 -4.5 0.5c-2 0 -3.83301 -0.166992 -5.5 -0.5s-3.16699 -2.16602 -4.5 -5.49902l2 1c-21.333 -23.333 -43.666 -42.666 -66.999 -57.999s-47.333 -27.333 -72 -36
c-25.333 36 -56.166 65.167 -92.499 87.5s-76.5 35.5 -120.5 39.5c-0.666992 1.33301 -1.33398 2 -2.00098 2h-1h-1c-4.66699 0 -9 0.166992 -13 0.5s-8.33301 0.5 -13 0.5h-3c-42.667 0 -82.834 -9 -120.501 -27s-70.5 -42.333 -98.5 -73s-50.167 -66.5 -66.5 -107.5
s-24.5 -84.5 -24.5 -130.5v-3c0.666992 -46.667 9.16699 -90.5 25.5 -131.5s38.5 -76.667 66.5 -107s60.833 -54.333 98.5 -72s78.167 -26.5 121.5 -26.5h3zM462 505.998l4.00586 0.000976562c13.333 0 27.166 0.833008 41.499 2.5s29.166 4.5 44.499 8.5
c15.333 -25.333 27.666 -52.833 36.999 -82.5s14.666 -61.167 15.999 -94.5v-3c0 -43.333 -7.5 -84 -22.5 -122s-35.5 -71.167 -61.5 -99.5s-56.167 -50.833 -90.5 -67.5s-70.833 -25 -109.5 -25h-3c-39.333 0 -76.333 8.16699 -111 24.5s-65 38.666 -91 66.999
s-46.5 61.5 -61.5 99.5s-22.5 78.667 -22.5 122v3c0 42.667 7.5 83 22.5 121s35.5 71.167 61.5 99.5s56.167 50.833 90.5 67.5s70.833 25.334 109.5 26.001h9c-4.66699 -8.66699 -7.83398 -16.834 -9.50098 -24.501s-2.5 -15.167 -2.5 -22.5
c0 -8.66699 1.33301 -16.5 4 -23.5s6.33398 -14.167 11.001 -21.5c10 -14 23.5 -25.333 40.5 -34s36.833 -14.667 59.5 -18h-2c3.33301 -1.33301 6.33301 -2 9 -2h10c3.33301 0 6.16602 -0.166992 8.49902 -0.5s5.16602 -0.5 8.49902 -0.5zM536.006 539.999
c-23.333 -6 -46.0029 -9.00098 -68.0029 -9.00098c-6.66699 0 -13.167 0.333008 -19.5 1s-12.166 1.33398 -17.499 2.00098c-39.333 6 -65.333 18 -78 36c-9.33301 12 -14 24.333 -14 37c0 6 0.833008 12.667 2.5 20s4.83398 15 9.50098 23
c37.333 -5.33301 71.833 -17.5 103.5 -36.5s58.834 -43.5 81.501 -73.5zM243.003 690.998l0.00195312 6c0 2.66699 -0.666992 5.33398 -2 8.00098c1.33301 8 5.16602 13.833 11.499 17.5s13.166 5.5 20.499 5.5c8 0 15.667 -2.33301 23 -7s11.666 -11.334 12.999 -20.001
c5.33301 -9.33301 12.166 -15.833 20.499 -19.5s17.166 -5.5 26.499 -5.5c16 0 30.833 5 44.5 15s20.5 23.333 20.5 40c0 6 -1 12 -3 18s-6 9 -12 9c-3.33301 0 -6.5 -1.16699 -9.5 -3.5s-4.5 -5.83301 -4.5 -10.5v-1c0.666992 -2 1.33398 -3.83301 2.00098 -5.5
s1 -3.16699 1 -4.5c0 -9.33301 -4 -16.833 -12 -22.5s-16.667 -8.5 -26 -8.5c-6 0 -11.667 1.33301 -17 4s-9 7.66699 -11 15c-5.33301 11.333 -13.166 19.833 -23.499 25.5s-21.166 8.5 -32.499 8.5c-15.333 0 -29 -4.33301 -41 -13s-18 -21 -18 -37
c0 -7.33301 1.33301 -13.833 4 -19.5s6.66699 -8.5 12 -8.5c3.33301 0 6.33301 1 9 3s4 5.66699 4 11z" />
    <glyph glyph-name="Odieresis" unicode="&#xd6;" horiz-adv-x="711" 
d="M321 -1c42.667 0 82.667 8.99805 120 26.998s70 42.167 98 72.5s50 66 66 107s24 84.833 24 131.5v3c-0.666992 34.667 -5.5 67.334 -14.5 98.001s-21.833 60 -38.5 88c26 9.33301 51.167 22 75.5 38s46.833 36.667 67.5 62c2 2 3 4.33301 3 7c0 2 -0.5 3.83301 -1.5 5.5
s-1.83301 3.16699 -2.5 4.5c-1.33301 1.33301 -2.83301 2.16602 -4.5 2.49902s-3.16699 0.5 -4.5 0.5c-2 0 -3.83301 -0.166992 -5.5 -0.5s-3.16699 -2.16602 -4.5 -5.49902l2 1c-21.333 -23.333 -43.666 -42.666 -66.999 -57.999s-47.333 -27.333 -72 -36
c-25.333 36 -56.166 65.167 -92.499 87.5s-76.5 35.5 -120.5 39.5c-0.666992 1.33301 -1.33398 2 -2.00098 2h-1h-1c-4.66699 0 -9 0.166992 -13 0.5s-8.33301 0.5 -13 0.5h-3c-42.667 0 -82.834 -9 -120.501 -27s-70.5 -42.333 -98.5 -73s-50.167 -66.5 -66.5 -107.5
s-24.5 -84.5 -24.5 -130.5v-3c0.666992 -46.667 9.16699 -90.5 25.5 -131.5s38.5 -76.667 66.5 -107s60.833 -54.333 98.5 -72s78.167 -26.5 121.5 -26.5h3zM462 505.998l4.00586 0.000976562c13.333 0 27.166 0.833008 41.499 2.5s29.166 4.5 44.499 8.5
c15.333 -25.333 27.666 -52.833 36.999 -82.5s14.666 -61.167 15.999 -94.5v-3c0 -43.333 -7.5 -84 -22.5 -122s-35.5 -71.167 -61.5 -99.5s-56.167 -50.833 -90.5 -67.5s-70.833 -25 -109.5 -25h-3c-39.333 0 -76.333 8.16699 -111 24.5s-65 38.666 -91 66.999
s-46.5 61.5 -61.5 99.5s-22.5 78.667 -22.5 122v3c0 42.667 7.5 83 22.5 121s35.5 71.167 61.5 99.5s56.167 50.833 90.5 67.5s70.833 25.334 109.5 26.001h9c-4.66699 -8.66699 -7.83398 -16.834 -9.50098 -24.501s-2.5 -15.167 -2.5 -22.5
c0 -8.66699 1.33301 -16.5 4 -23.5s6.33398 -14.167 11.001 -21.5c10 -14 23.5 -25.333 40.5 -34s36.833 -14.667 59.5 -18h-2c3.33301 -1.33301 6.33301 -2 9 -2h10c3.33301 0 6.16602 -0.166992 8.49902 -0.5s5.16602 -0.5 8.49902 -0.5zM536.006 539.999
c-23.333 -6 -46.0029 -9.00098 -68.0029 -9.00098c-6.66699 0 -13.167 0.333008 -19.5 1s-12.166 1.33398 -17.499 2.00098c-39.333 6 -65.333 18 -78 36c-9.33301 12 -14 24.333 -14 37c0 6 0.833008 12.667 2.5 20s4.83398 15 9.50098 23
c37.333 -5.33301 71.833 -17.5 103.5 -36.5s58.834 -43.5 81.501 -73.5zM242.003 740.998c0 7.33301 2.5 13.333 7.5 18s11.167 7 18.5 7s13.5 -2.33301 18.5 -7s7.5 -10.667 7.5 -18s-2.5 -13.166 -7.5 -17.499s-11.167 -6.5 -18.5 -6.5s-13.5 2.16699 -18.5 6.5
s-7.5 10.166 -7.5 17.499zM345.003 738.998c0 7.33301 2.5 13.333 7.5 18s11.167 7 18.5 7s13.5 -2.33301 18.5 -7s7.5 -10.667 7.5 -18s-2.5 -13.166 -7.5 -17.499s-11.167 -6.5 -18.5 -6.5s-13.5 2.16699 -18.5 6.5s-7.5 10.166 -7.5 17.499z" />
    <glyph glyph-name="Oslash" unicode="&#xd8;" horiz-adv-x="711" 
d="M466 727l-32 -75.002c-13.333 6.66699 -27.5 11.5 -42.5 14.5l-45.5 9.5h-1c-4.66699 0 -9 0.166992 -13 0.5s-8.33301 0.5 -13 0.5h-3c-42.667 0 -82.834 -9 -120.501 -27s-70.5 -42.333 -98.5 -73s-50.167 -66.5 -66.5 -107.5s-24.5 -84.5 -24.5 -130.5v-3
c0.666992 -65.333 16.167 -124.333 46.5 -177s70.5 -93.334 120.5 -122.001l-34 -81c-0.666992 -1.33301 -1 -3.33301 -1 -6c0 -8.66699 4.33301 -13 13 -13c4.66699 0 8.66699 3 12 9l34 79c38 -17.333 78.333 -26 121 -26h3c42.667 0 82.667 9 120 27s70 42.167 98 72.5
s50 66 66 107s24 84.833 24 131.5v3c-0.666992 34.667 -5.5 67.334 -14.5 98.001s-21.833 60 -38.5 88c26 9.33301 51.167 22 75.5 38s46.833 36.667 67.5 62c2 2 3 4.33301 3 7c0 4.66699 -1.5 8 -4.5 10s-5.83301 3 -8.5 3c-2 0 -3.83301 -0.166992 -5.5 -0.5
s-3.16699 -2.16602 -4.5 -5.49902l2 1c-21.333 -23.333 -43.666 -42.666 -66.999 -57.999s-47.333 -27.333 -72 -36c-14 19.333 -29.833 37 -47.5 53s-36.5 29.667 -56.5 41l32 76c0.666992 1.33301 1 3.33301 1 6c0 8.66699 -4.33301 13 -13 13
c-5.33301 0 -9.33301 -3 -12 -9zM462 505.998h4.00391c13.333 0 27.166 0.833008 41.499 2.5s29.166 4.5 44.499 8.5c15.333 -25.333 27.666 -52.833 36.999 -82.5s14.666 -61.167 15.999 -94.5v-3c0 -43.333 -7.5 -84 -22.5 -122s-35.5 -71.167 -61.5 -99.5
s-56.167 -50.833 -90.5 -67.5s-70.833 -25 -109.5 -25h-3c-20 0 -39.333 2.16699 -58 6.5s-36.667 10.5 -54 18.5l198 466c8.66699 -2.66699 16.667 -4.33398 24 -5.00098h-2c5.33301 -1.33301 11.333 -2.16602 18 -2.49902s12.667 -0.5 18 -0.5zM32.0039 335.998
l0.00195312 2.99902c0 42.667 7.5 83 22.5 121s35.5 71.167 61.5 99.5s56.167 50.833 90.5 67.5s70.833 25.334 109.5 26.001h9c-4.66699 -8.66699 -7.83398 -16.834 -9.50098 -24.501s-2.5 -15.167 -2.5 -22.5c0 -18.667 6.16699 -35.5 18.5 -50.5
s28.166 -26.167 47.499 -33.5l-196 -462c-45.333 26.667 -81.833 64.334 -109.5 113.001s-41.5 103 -41.5 163zM536.006 539.997c-23.333 -6 -46 -9 -68 -9c-9.33301 0 -19.333 0.5 -30 1.5s-18.667 2.5 -24 4.5l34 80c34.667 -19.333 64 -45 88 -77zM353.006 569.997
c-9.33301 12 -14.001 24.333 -14.001 37c0 6 0.833008 12.667 2.5 20s4.83398 15 9.50098 23c26 -4 50.333 -11 73 -21l-36 -84c-16 6 -27.667 14.333 -35 25z" />
    <glyph glyph-name="Ugrave" unicode="&#xd9;" horiz-adv-x="788" 
d="M646 1l6.99707 0.00195312c16.667 0.666992 32.167 5.5 46.5 14.5s27.666 19.833 39.999 32.5s23.333 26.5 33 41.5s18.167 28.833 25.5 41.5c0.666992 1.33301 1 3.33301 1 6c0 3.33301 -0.666992 5.5 -2 6.5s-3 2.16699 -5 3.5s-4 2 -6 2
c-4.66699 0 -8 -2.66699 -10 -8v2c-7.33301 -12.667 -15.666 -25.667 -24.999 -39s-19.166 -25.666 -29.499 -36.999s-21.333 -20.833 -33 -28.5s-23.834 -11.834 -36.501 -12.501h-3c-6.66699 0 -13.5 1.16699 -20.5 3.5s-13.5 5.33301 -19.5 9
s-10.833 7.83398 -14.5 12.501s-5.5 9.66699 -5.5 15l-1 200c0 5.33301 0.333008 9.66602 1 12.999c0 3.33301 -0.333008 5.66602 -1 6.99902l-3 371c0 8 -4.33301 12 -13 12c-7.33301 0 -11 -4.33301 -11 -13l2 -386c-10.667 -70.667 -31.667 -127.667 -63 -171
s-71 -68.333 -119 -75l-20 -3l-19 2c-20.667 0.666992 -38.5 7.33398 -53.5 20.001s-22.5 31.667 -22.5 57l6 489c0 8 -1.83301 16.667 -5.5 26s-8.66699 18 -15 26s-13.5 15 -21.5 21s-16 10 -24 12h-15l-15 -3c-21.333 -4 -41.333 -14.667 -60 -32
s-35.667 -37.166 -51 -59.499s-28.166 -45.166 -38.499 -68.499s-17.5 -43.333 -21.5 -60c0 -8.66699 3.33301 -13.667 10 -15h4c1.33301 0 3.16602 0.666992 5.49902 2s3.83301 3.33301 4.5 6c4 17.333 11.333 37.666 22 60.999s23.5 45.666 38.5 66.999
s31.333 39.5 49 54.5s35.834 22.5 54.501 22.5c3.33301 0 5.33301 0.333008 6 1c4.66699 0 9.83398 -2.16699 15.501 -6.5s11 -9.5 16 -15.5s9.16699 -12.5 12.5 -19.5s5 -13.5 5 -19.5l-6 -489v-3c0 -19.333 3.5 -35.333 10.5 -48s16.167 -22.834 27.5 -30.501
s24 -13.167 38 -16.5s28.333 -5 43 -5h1c46 4.66699 86.333 22 121 52s61.334 70.333 80.001 121l2 -104c0 -9.33301 2.66699 -17.833 8 -25.5s12 -14.334 20 -20.001s16.833 -10.167 26.5 -13.5s18.5 -5.33301 26.5 -6zM312.997 734.002l88 -47c2 -2 4 -3 6 -3
c4 0 7.5 1.5 10.5 4.5s4.5 6.5 4.5 10.5c0 4.66699 -2.66699 8.66699 -8 12l-88 47c-2.66699 1.33301 -4.66699 2 -6 2c-4 0 -7.5 -1.33301 -10.5 -4s-4.5 -6 -4.5 -10c0 -5.33301 2.66699 -9.33301 8 -12z" />
    <glyph glyph-name="Uacute" unicode="&#xda;" horiz-adv-x="788" 
d="M646 1l6.99707 0.00195312c16.667 0.666992 32.167 5.5 46.5 14.5s27.666 19.833 39.999 32.5s23.333 26.5 33 41.5s18.167 28.833 25.5 41.5c0.666992 1.33301 1 3.33301 1 6c0 3.33301 -0.666992 5.5 -2 6.5s-3 2.16699 -5 3.5s-4 2 -6 2
c-4.66699 0 -8 -2.66699 -10 -8v2c-7.33301 -12.667 -15.666 -25.667 -24.999 -39s-19.166 -25.666 -29.499 -36.999s-21.333 -20.833 -33 -28.5s-23.834 -11.834 -36.501 -12.501h-3c-6.66699 0 -13.5 1.16699 -20.5 3.5s-13.5 5.33301 -19.5 9
s-10.833 7.83398 -14.5 12.501s-5.5 9.66699 -5.5 15l-1 200c0 5.33301 0.333008 9.66602 1 12.999c0 3.33301 -0.333008 5.66602 -1 6.99902l-3 371c0 8 -4.33301 12 -13 12c-7.33301 0 -11 -4.33301 -11 -13l2 -386c-10.667 -70.667 -31.667 -127.667 -63 -171
s-71 -68.333 -119 -75l-20 -3l-19 2c-20.667 0.666992 -38.5 7.33398 -53.5 20.001s-22.5 31.667 -22.5 57l6 489c0 8 -1.83301 16.667 -5.5 26s-8.66699 18 -15 26s-13.5 15 -21.5 21s-16 10 -24 12h-15l-15 -3c-21.333 -4 -41.333 -14.667 -60 -32
s-35.667 -37.166 -51 -59.499s-28.166 -45.166 -38.499 -68.499s-17.5 -43.333 -21.5 -60c0 -8.66699 3.33301 -13.667 10 -15h4c1.33301 0 3.16602 0.666992 5.49902 2s3.83301 3.33301 4.5 6c4 17.333 11.333 37.666 22 60.999s23.5 45.666 38.5 66.999
s31.333 39.5 49 54.5s35.834 22.5 54.501 22.5c3.33301 0 5.33301 0.333008 6 1c4.66699 0 9.83398 -2.16699 15.501 -6.5s11 -9.5 16 -15.5s9.16699 -12.5 12.5 -19.5s5 -13.5 5 -19.5l-6 -489v-3c0 -19.333 3.5 -35.333 10.5 -48s16.167 -22.834 27.5 -30.501
s24 -13.167 38 -16.5s28.333 -5 43 -5h1c46 4.66699 86.333 22 121 52s61.334 70.333 80.001 121l2 -104c0 -9.33301 2.66699 -17.833 8 -25.5s12 -14.334 20 -20.001s16.833 -10.167 26.5 -13.5s18.5 -5.33301 26.5 -6zM396.997 758.002
c-9.33301 -13.333 -20.167 -24 -32.5 -32s-26.166 -12 -41.499 -12h-9c-5.33301 0 -9 -1.33301 -11 -4s-3 -5.66699 -3 -9c0 -8.66699 4.66699 -13 14 -13h8c19.333 0 37.333 5.33301 54 16s31 23.667 43 39c2 2 3 4.33301 3 7c0 4 -1.5 7.33301 -4.5 10s-6.16699 4 -9.5 4
c-4.66699 0 -8.33398 -2 -11.001 -6z" />
    <glyph glyph-name="Ucircumflex" unicode="&#xdb;" horiz-adv-x="788" 
d="M646 1l6.99707 0.00195312c16.667 0.666992 32.167 5.5 46.5 14.5s27.666 19.833 39.999 32.5s23.333 26.5 33 41.5s18.167 28.833 25.5 41.5c0.666992 1.33301 1 3.33301 1 6c0 3.33301 -0.666992 5.5 -2 6.5s-3 2.16699 -5 3.5s-4 2 -6 2
c-4.66699 0 -8 -2.66699 -10 -8v2c-7.33301 -12.667 -15.666 -25.667 -24.999 -39s-19.166 -25.666 -29.499 -36.999s-21.333 -20.833 -33 -28.5s-23.834 -11.834 -36.501 -12.501h-3c-6.66699 0 -13.5 1.16699 -20.5 3.5s-13.5 5.33301 -19.5 9
s-10.833 7.83398 -14.5 12.501s-5.5 9.66699 -5.5 15l-1 200c0 5.33301 0.333008 9.66602 1 12.999c0 3.33301 -0.333008 5.66602 -1 6.99902l-3 371c0 8 -4.33301 12 -13 12c-7.33301 0 -11 -4.33301 -11 -13l2 -386c-10.667 -70.667 -31.667 -127.667 -63 -171
s-71 -68.333 -119 -75l-20 -3l-19 2c-20.667 0.666992 -38.5 7.33398 -53.5 20.001s-22.5 31.667 -22.5 57l6 489c0 8 -1.83301 16.667 -5.5 26s-8.66699 18 -15 26s-13.5 15 -21.5 21s-16 10 -24 12h-15l-15 -3c-21.333 -4 -41.333 -14.667 -60 -32
s-35.667 -37.166 -51 -59.499s-28.166 -45.166 -38.499 -68.499s-17.5 -43.333 -21.5 -60c0 -8.66699 3.33301 -13.667 10 -15h4c1.33301 0 3.16602 0.666992 5.49902 2s3.83301 3.33301 4.5 6c4 17.333 11.333 37.666 22 60.999s23.5 45.666 38.5 66.999
s31.333 39.5 49 54.5s35.834 22.5 54.501 22.5c3.33301 0 5.33301 0.333008 6 1c4.66699 0 9.83398 -2.16699 15.501 -6.5s11 -9.5 16 -15.5s9.16699 -12.5 12.5 -19.5s5 -13.5 5 -19.5l-6 -489v-3c0 -19.333 3.5 -35.333 10.5 -48s16.167 -22.834 27.5 -30.501
s24 -13.167 38 -16.5s28.333 -5 43 -5h1c46 4.66699 86.333 22 121 52s61.334 70.333 80.001 121l2 -104c0 -9.33301 2.66699 -17.833 8 -25.5s12 -14.334 20 -20.001s16.833 -10.167 26.5 -13.5s18.5 -5.33301 26.5 -6zM296.997 688.002l66.001 40.999l61 -45
c2 -2 4.66699 -3 8 -3c4 0 7.16699 1.5 9.5 4.5s3.5 6.16699 3.5 9.5c0 4.66699 -1.66699 8.33398 -5 11.001l-65 48c-2 2 -4.66699 3 -8 3c-1.33301 0 -2.33301 -0.166992 -3 -0.5s-1.33398 -0.5 -2.00098 -0.5h-1c-4 0 -6.66699 -0.666992 -8 -2l-70 -44
c-4 -4 -6 -8 -6 -12c0 -8.66699 4 -13 12 -13c3.33301 0 6 1 8 3z" />
    </font>
</defs>
</svg>
